<?xml version="1.0" encoding="utf-8"?>
<!-- Generator: Adobe Illustrator 25.0.0, SVG Export Plug-In . SVG Version: 6.00 Build 0)  -->
<svg version="1.1" id="Layer_1" xmlns="http://www.w3.org/2000/svg" xmlns:xlink="http://www.w3.org/1999/xlink" x="0px" y="0px"
	 viewBox="0 0 45 45" style="enable-background:new 0 0 45 45;" xml:space="preserve">
<style type="text/css">
	.st0{fill:none;stroke:#8C30F5;stroke-width:2.75;stroke-linecap:round;stroke-linejoin:round;}
</style>
<g>
	<path class="st0" d="M22.5,25.7c3,0,5.5-2.5,5.5-5.5s-2.5-5.5-5.5-5.5S17,17.2,17,20.2S19.5,25.7,22.5,25.7z"/>
	<path class="st0" d="M32.9,30.6l-7.8,7.8c-0.7,0.7-1.6,1.1-2.6,1.1s-1.9-0.4-2.6-1.1l-7.8-7.8c-2.1-2.1-3.4-4.7-4-7.5
		c-0.6-2.8-0.3-5.8,0.8-8.5c1.1-2.7,3-5,5.4-6.6s5.2-2.5,8.1-2.5c2.9,0,5.7,0.9,8.1,2.5s4.3,3.9,5.4,6.6c1.1,2.7,1.4,5.6,0.8,8.5
		C36.3,25.9,34.9,28.5,32.9,30.6L32.9,30.6z"/>
</g>
</svg>
