<svg width="130" height="41" viewBox="0 0 130 41" fill="none" xmlns="http://www.w3.org/2000/svg">
<g clip-path="url(#clip0)">
<path d="M37.2663 28.6224C37.0624 28.1349 36.8712 27.6224 36.6673 27.1849L35.7242 25.0974L35.6859 25.0599C32.882 19.0599 29.8869 12.9599 26.7134 6.95989L26.5859 6.70989C26.2673 6.12239 25.9487 5.47239 25.6173 4.87239C25.2095 4.15989 24.8144 3.39739 24.1644 2.67239C23.5308 1.91381 22.7334 1.30263 21.8297 0.88296C20.9261 0.463293 19.9387 0.245605 18.9389 0.245605C17.939 0.245605 16.9517 0.463293 16.048 0.88296C15.1444 1.30263 14.347 1.91381 13.7134 2.67239C13.1144 3.39739 12.6683 4.15989 12.2604 4.87239C11.9418 5.52239 11.6232 6.15989 11.2918 6.74739L11.1644 6.99739C8.04182 12.9974 4.99574 19.0974 2.19182 25.0974L2.11535 25.1724C1.83496 25.8224 1.50358 26.4974 1.18496 27.2224C0.981036 27.6599 0.777114 28.1349 0.573192 28.6599C0.0226456 30.0346 -0.153161 31.5263 0.0630981 32.988C0.279357 34.4497 0.880219 35.8308 1.80646 36.9954C2.73271 38.16 3.95237 39.0677 5.34524 39.6292C6.73812 40.1907 8.25613 40.3865 9.74966 40.1974C11.1815 40.0125 12.5603 39.5448 13.8026 38.8224C15.4595 37.9099 17.0526 36.5849 18.8369 34.6724C20.6212 36.5849 22.2526 37.9099 23.8712 38.8349C25.4278 39.7309 27.1905 40.2255 28.9948 40.2724C31.0841 40.2809 33.1061 39.5477 34.6873 38.2083C36.2686 36.8688 37.3023 35.0135 37.5977 32.9849C37.9391 31.5271 37.8236 30.0022 37.2663 28.6099V28.6224ZM18.9644 30.6974C16.7722 27.9474 15.3448 25.4224 14.8604 23.2599C14.6598 22.4586 14.6165 21.6271 14.733 20.8099C14.8222 20.1724 15.0644 19.6099 15.3957 19.1349C16.1604 18.0474 17.4987 17.3724 18.9644 17.3724C19.6604 17.3515 20.3509 17.5005 20.9737 17.806C21.5966 18.1114 22.1324 18.5637 22.533 19.1224C22.8644 19.6224 23.1065 20.1724 23.183 20.8099C23.3105 21.5349 23.2595 22.3724 23.0555 23.2599C22.5712 25.3849 21.1438 27.9349 18.9644 30.6974ZM35.2016 32.5474C35.0568 33.5773 34.6394 34.5521 33.9909 35.3745C33.3424 36.1969 32.4855 36.8384 31.5055 37.2349C30.5369 37.6349 29.4663 37.7474 28.4212 37.6349C27.4016 37.5099 26.382 37.1849 25.3369 36.5849C23.6017 35.533 22.0414 34.2261 20.7104 32.7099C23.3869 29.4599 25.0055 26.4974 25.6173 23.8599C25.9105 22.6099 25.9487 21.4849 25.8212 20.4474C25.6621 19.464 25.2882 18.5259 24.7252 17.6974C24.0823 16.799 23.2242 16.0692 22.2264 15.5722C21.2285 15.0753 20.1215 14.8264 19.0026 14.8474C16.6448 14.8474 14.5418 15.9224 13.2673 17.6849C12.6936 18.5113 12.3228 19.4569 12.184 20.4474C12.0183 21.4974 12.0565 22.6599 12.3879 23.8599C12.9997 26.4974 14.6565 29.4974 17.2948 32.7349C15.9865 34.2801 14.4225 35.5985 12.6683 36.6349C11.6104 37.2349 10.6036 37.5474 9.58398 37.6724C7.99834 37.8716 6.39662 37.4489 5.12697 36.4963C3.85731 35.5436 3.02236 34.138 2.80358 32.5849C2.67613 31.5849 2.76535 30.5849 3.17319 29.4599C3.30064 29.0599 3.49182 28.6599 3.69574 28.1849C3.97613 27.5349 4.30751 26.8599 4.62613 26.1849L4.67711 26.0974C7.43006 20.1349 10.4379 14.0474 13.5604 8.08489L13.6879 7.83489C14.0065 7.23489 14.3252 6.59739 14.6565 5.99739C14.9879 5.35989 15.3448 4.74739 15.8036 4.24739C16.2007 3.78242 16.697 3.40848 17.2574 3.15191C17.8178 2.89534 18.4288 2.76238 19.0472 2.76238C19.6657 2.76238 20.2766 2.89534 20.837 3.15191C21.3974 3.40848 21.8937 3.78242 22.2908 4.24739C22.7369 4.74739 23.1065 5.35989 23.4379 5.99739C23.7565 6.59739 24.0752 7.24739 24.4065 7.83489L24.534 8.08489C27.6438 14.0474 30.6516 20.1349 33.4555 26.0974L33.4938 26.1349C33.8252 26.7849 34.1055 27.5099 34.4242 28.1349C34.6281 28.6224 34.832 29.0099 34.9595 29.4224C35.2016 30.5474 35.3291 31.5474 35.2016 32.5474ZM52.9428 30.4224C51.9824 30.4362 51.0312 30.2377 50.1597 29.8417C49.2882 29.4457 48.5187 28.8623 47.9085 28.1349C46.5372 26.5848 45.8094 24.5862 45.8693 22.5349C45.8483 20.4389 46.5996 18.406 47.985 16.8099C48.6258 16.0732 49.4235 15.4832 50.3219 15.0815C51.2203 14.6798 52.1976 14.4761 53.185 14.4849C54.114 14.46 55.0342 14.6671 55.8592 15.087C56.6841 15.5068 57.3866 16.1255 57.9006 16.8849L58.0281 14.9224H61.7497V30.0224H58.0154L57.8879 27.8224C57.3579 28.6332 56.6254 29.2977 55.7599 29.7528C54.8944 30.2078 53.9247 30.4383 52.9428 30.4224ZM53.9114 26.8224C54.6506 26.8224 55.3006 26.6224 55.9124 26.2599C56.4732 25.8599 56.932 25.3349 57.2889 24.6974C57.6075 24.0599 57.7732 23.2974 57.7732 22.4474C57.8229 21.7091 57.6764 20.9709 57.348 20.3048C57.0196 19.6387 56.5205 19.0676 55.8997 18.6474C55.3031 18.2828 54.6143 18.0896 53.9114 18.0896C53.2086 18.0896 52.5198 18.2828 51.9232 18.6474C51.3624 19.0474 50.9036 19.5724 50.5467 20.2099C50.2097 20.9129 50.0439 21.6832 50.0624 22.4599C50.0127 23.1981 50.1592 23.9364 50.4876 24.6025C50.816 25.2686 51.3151 25.8396 51.9359 26.2599C52.535 26.6224 53.185 26.8224 53.9114 26.8224ZM68.1222 10.8474C68.1222 11.2849 68.0457 11.6849 67.8418 12.0099C67.6379 12.3224 67.3575 12.6099 66.9879 12.8099C66.6183 13.0099 66.2232 13.0849 65.8154 13.0849C65.4075 13.0849 64.9997 13.0099 64.6301 12.8099C64.2805 12.619 63.9865 12.3436 63.7761 12.0099C63.5788 11.6538 63.482 11.2525 63.4957 10.8474C63.4957 10.3974 63.585 9.99739 63.7761 9.68489C63.9801 9.30989 64.2732 9.08489 64.6301 8.88489C64.9997 8.68489 65.3948 8.59739 65.8154 8.59739C66.221 8.58822 66.6222 8.68246 66.9797 8.87088C67.3371 9.05931 67.6385 9.33548 67.8546 9.67239C68.04 10.0368 68.1319 10.4402 68.1222 10.8474ZM63.7889 29.9724V14.8974H67.8418V29.9974H63.7761L63.7889 29.9724ZM78.6752 18.8474V18.8974C78.484 18.8099 78.2291 18.7724 78.0379 18.7349C77.783 18.6849 77.5791 18.6849 77.3369 18.6849C76.2026 18.6849 75.3487 19.0099 74.7879 19.6849C74.1761 20.3724 73.8957 21.3349 73.8957 22.5724V29.9849H69.8301V14.8849H73.5644L73.6918 17.1724C74.0997 16.3724 74.584 15.7724 75.2722 15.3224C75.9568 14.8852 76.7627 14.6668 77.5791 14.6974C77.8722 14.6974 78.1526 14.7224 78.3948 14.7724C78.5222 14.8099 78.5987 14.8099 78.6752 14.8474V18.8474ZM80.3065 29.9724V8.69739H84.3595V16.8224C84.933 16.0974 85.583 15.5349 86.3987 15.0974C87.69 14.4764 89.157 14.3003 90.5629 14.5974C91.9688 14.8945 93.2317 15.6475 94.1477 16.7349C95.522 18.2881 96.25 20.2918 96.1869 22.3474C96.2079 24.4434 95.4566 26.4763 94.0712 28.0724C93.4304 28.8091 92.6327 29.3991 91.7343 29.8008C90.8359 30.2025 89.8586 30.4061 88.8712 30.3974C87.9422 30.4223 87.022 30.2151 86.197 29.7953C85.3721 29.3755 84.6696 28.7568 84.1556 27.9974L84.0281 29.9599L80.3065 29.9974V29.9724ZM88.1448 26.8224C88.8712 26.8224 89.5212 26.6224 90.133 26.2599C90.6938 25.8599 91.1526 25.3349 91.5095 24.6974C91.8409 24.0599 91.9938 23.2974 91.9938 22.4474C91.9938 21.6099 91.8409 20.8474 91.5095 20.2099C91.1748 19.5952 90.7046 19.0614 90.133 18.6474C89.5365 18.2828 88.8476 18.0896 88.1448 18.0896C87.4419 18.0896 86.7531 18.2828 86.1565 18.6474C85.583 19.0474 85.1369 19.5724 84.7673 20.2099C84.4303 20.9129 84.2645 21.6832 84.283 22.4599C84.2333 23.1981 84.3798 23.9364 84.7082 24.6025C85.0366 25.2686 85.5357 25.8396 86.1565 26.2599C86.7556 26.6224 87.4056 26.8224 88.1448 26.8224ZM97.7163 29.9849V14.8849H101.451L101.578 16.8474C102.047 16.0951 102.713 15.4795 103.506 15.0641C104.299 14.6488 105.191 14.4488 106.09 14.4849C107.117 14.4675 108.127 14.7475 108.993 15.29C109.859 15.8325 110.543 16.6133 110.958 17.5349C111.405 18.4849 111.647 19.6599 111.647 20.9724V30.0224H107.581V21.4974C107.581 20.4474 107.339 19.6224 106.855 19.0099C106.37 18.4099 105.708 18.0849 104.866 18.0849C104.255 18.0849 103.719 18.2099 103.248 18.4849C102.802 18.7724 102.432 19.1349 102.152 19.6474C101.868 20.1654 101.728 20.7472 101.744 21.3349V29.9849H97.7163ZM113.673 29.9849V8.68489H117.739V16.8099C118.29 16.0808 119.006 15.4877 119.831 15.0776C120.656 14.6675 121.568 14.4518 122.493 14.4474C123.453 14.4336 124.404 14.6321 125.276 15.0281C126.147 15.4241 126.917 16.0074 127.527 16.7349C128.892 18.288 129.614 20.2856 129.554 22.3349C129.576 24.4311 128.824 26.4644 127.438 28.0599C126.797 28.7966 125.999 29.3866 125.101 29.7883C124.203 30.19 123.225 30.3936 122.238 30.3849C121.309 30.4098 120.389 30.2026 119.564 29.7828C118.739 29.363 118.036 28.7443 117.522 27.9849L117.408 29.9474L113.673 29.9849ZM121.55 26.8224C122.289 26.8224 122.939 26.6224 123.538 26.2599C124.111 25.8599 124.558 25.3349 124.927 24.6974C125.246 24.0599 125.411 23.2974 125.411 22.4474C125.461 21.7091 125.315 20.9709 124.986 20.3048C124.658 19.6387 124.159 19.0676 123.538 18.6474C122.941 18.2828 122.253 18.0896 121.55 18.0896C120.847 18.0896 120.158 18.2828 119.561 18.6474C119.001 19.0474 118.542 19.5724 118.185 20.2099C117.829 20.9067 117.662 21.6815 117.701 22.4599C117.651 23.1981 117.797 23.9364 118.126 24.6025C118.454 25.2686 118.953 25.8396 119.574 26.2599C120.173 26.6224 120.785 26.8224 121.55 26.8224Z" fill="#FF385C"/>
</g>
<defs>
<clipPath id="clip0">
<rect width="130" height="40" fill="white" transform="translate(0 0.272949)"/>
</clipPath>
</defs>
</svg>
