<svg width="143" height="121" viewBox="0 0 143 121" fill="none" xmlns="http://www.w3.org/2000/svg">
<path fill-rule="evenodd" clip-rule="evenodd" d="M142.373 19.0148C121.049 29.427 110.387 41.6612 110.387 55.7176C119.476 56.7589 126.992 60.4465 132.934 66.7805C138.877 73.1146 141.849 80.4464 141.849 88.7762C141.849 97.6266 138.965 105.089 133.197 111.162C127.428 117.236 120.175 120.273 111.435 120.273C101.647 120.273 93.1701 116.325 86.0037 108.429C78.8374 100.533 75.2542 90.9455 75.2542 79.6656C75.2542 45.8259 94.306 19.362 132.41 0.272949L142.373 19.0148ZM67.1186 19.0148C45.6196 29.427 34.8702 41.6612 34.8702 55.7176C44.134 56.7589 51.7373 60.4465 57.6801 66.7805C63.6229 73.1146 66.5943 80.4464 66.5943 88.7762C66.5943 97.6266 63.6666 105.089 57.8112 111.162C51.9557 117.236 44.6584 120.273 35.919 120.273C26.1308 120.273 17.6973 116.325 10.6184 108.429C3.53942 100.533 0 90.9455 0 79.6656C0 45.8259 18.9643 19.362 56.8935 0.272949L67.1186 19.0148Z" fill="#2EC5CE"/>
</svg>
