<svg width="134" height="41" viewBox="0 0 134 41" fill="none" xmlns="http://www.w3.org/2000/svg">
<path fill-rule="evenodd" clip-rule="evenodd" d="M84.1041 12.5L81.9252 8.84591L78.0578 10.6729L75.8789 7.00807L72.0114 8.84591L69.8435 5.17024L65.976 7.00807L63.7971 3.34321L59.9296 5.18105L57.7617 1.50537L53.8833 3.34321L45.6799 29.8513L55.6482 32.8783C56.0237 31.6836 56.8174 30.6615 57.8861 29.9968C58.9547 29.3321 60.2277 29.0686 61.475 29.254C62.7223 29.4394 63.8616 30.0614 64.6871 31.0077C65.5126 31.9539 65.9697 33.1619 65.976 34.4135V34.5216C65.9978 34.9973 65.9433 35.4729 65.8017 35.9486L75.9334 39.0297L84.1041 12.5Z" fill="#D61920"/>
<path fill-rule="evenodd" clip-rule="evenodd" d="M54.2319 27.6676C53.9799 27.6263 53.7512 27.4966 53.5873 27.3023C53.4234 27.1079 53.3352 26.8616 53.3386 26.6082V13.6352C53.3371 13.4928 53.3643 13.3516 53.4186 13.2198C53.4728 13.088 53.553 12.9682 53.6544 12.8675C53.7559 12.7669 53.8766 12.6873 54.0094 12.6335C54.1422 12.5796 54.2846 12.5527 54.428 12.5541H63.8734C64.4299 12.5527 64.9813 12.6601 65.496 12.8701C66.0107 13.0801 66.4787 13.3887 66.8732 13.7782C67.2678 14.1677 67.5811 14.6305 67.7954 15.1402C68.0097 15.6499 68.1207 16.1964 68.1222 16.7487V26.6082C68.1219 26.7674 68.0862 26.9246 68.0176 27.0685C67.949 27.2124 67.8492 27.3395 67.7253 27.4408C67.6015 27.542 67.4566 27.6148 67.3011 27.654C67.1456 27.6932 66.9833 27.6979 66.8258 27.6676C66.5758 27.624 66.3496 27.4933 66.1879 27.2992C66.0262 27.105 65.9395 26.86 65.9433 26.6082V16.7595C65.9433 16.2148 65.7252 15.6923 65.337 15.3071C64.9489 14.9219 64.4224 14.7055 63.8734 14.7055H61.8144V26.5974C61.8152 26.7422 61.7867 26.8858 61.7306 27.0195C61.6744 27.1532 61.5918 27.2743 61.4875 27.3757C61.3635 27.4978 61.2115 27.5881 61.0445 27.639C60.8775 27.6898 60.7005 27.6997 60.5288 27.6676C60.2769 27.6263 60.0481 27.4966 59.8842 27.3023C59.7203 27.1079 59.6321 26.8616 59.6355 26.6082V14.7055H55.5175V26.5974C55.5185 26.7564 55.4841 26.9137 55.4169 27.058C55.3496 27.2024 55.251 27.3302 55.1283 27.4324C55.0055 27.5346 54.8615 27.6087 54.7066 27.6494C54.5516 27.69 54.3896 27.6963 54.2319 27.6676ZM69.9415 33.3217C69.6876 33.2801 69.4575 33.1489 69.2933 32.9522C69.1292 32.7556 69.0421 32.5067 69.0482 32.2514C69.0494 31.9678 69.1629 31.696 69.3641 31.4947C69.5653 31.291 69.8394 31.1744 70.1267 31.1703C71.0527 31.1703 71.848 30.5865 72.1095 29.7109L73.2316 26.0028L69.5602 13.819C69.5164 13.6827 69.5003 13.5392 69.5128 13.3967C69.5254 13.2542 69.5662 13.1156 69.6331 12.9889C69.7 12.8622 69.7915 12.75 69.9024 12.6586C70.0134 12.5673 70.1414 12.4987 70.2792 12.4568C70.5537 12.3813 70.8468 12.4133 71.0982 12.546C71.3496 12.6788 71.54 12.9023 71.6301 13.1703L74.3537 22.2514L77.1209 13.1703C77.2516 12.673 77.8072 12.3379 78.3737 12.446L78.45 12.4568C79.0383 12.6406 79.3651 13.2568 79.1908 13.8298L75.4105 26.3271L74.2121 30.3271C73.9432 31.1879 73.4099 31.9439 72.6869 32.4893C71.9514 33.0366 71.0569 33.3325 70.1376 33.3325C70.0721 33.335 70.0064 33.3314 69.9415 33.3217Z" fill="#FEFEFE"/>
<path fill-rule="evenodd" clip-rule="evenodd" d="M3.35548 25.2999H5.49077C6.05997 25.2999 6.60586 25.0755 7.00834 24.6761C7.41083 24.2767 7.63694 23.735 7.63694 23.1702V16.9323C7.63838 16.6527 7.58429 16.3754 7.47775 16.1165C7.37122 15.8576 7.21433 15.622 7.01605 15.4232C6.81777 15.2244 6.58198 15.0664 6.32214 14.958C6.0623 14.8497 5.7835 14.7932 5.50166 14.7918H3.35548V25.2783V25.2999ZM2.01548 27.5269C1.75389 27.4831 1.51675 27.3478 1.34691 27.1456C1.17708 26.9433 1.08576 26.6875 1.08946 26.4242V7.05125C1.08754 6.90303 1.11546 6.75592 1.17158 6.61855C1.2277 6.48117 1.3109 6.3563 1.41629 6.25125C1.54381 6.11986 1.7019 6.02157 1.87666 5.96502C2.05143 5.90847 2.23752 5.89539 2.41857 5.92693C2.96329 6.03504 3.35548 6.48909 3.35548 7.04044V12.554H5.49077C6.06967 12.5525 6.64317 12.6645 7.17842 12.8833C7.71367 13.1022 8.20015 13.4237 8.61 13.8294C9.01985 14.2351 9.34503 14.717 9.56689 15.2476C9.78876 15.7782 9.90296 16.3471 9.90296 16.9215V23.1594C9.90008 24.3168 9.43545 25.4261 8.61067 26.2445C7.78589 27.063 6.66807 27.5241 5.50166 27.5269H2.22247C2.14966 27.5312 2.0766 27.5276 2.00459 27.5161L2.01548 27.5269Z" fill="#333545"/>
<path fill-rule="evenodd" clip-rule="evenodd" d="M17.5835 14.7053C17.4611 14.6841 17.3372 14.6733 17.2131 14.6729C16.9304 14.67 16.65 14.7231 16.3883 14.8291C16.1266 14.9351 15.8889 15.0919 15.689 15.2902C15.4891 15.4886 15.3311 15.7245 15.2243 15.9842C15.1175 16.2439 15.064 16.5221 15.0669 16.8026V23.2999C15.0654 23.58 15.12 23.8576 15.2273 24.1166C15.3347 24.3757 15.4927 24.611 15.6923 24.809C15.8918 25.0071 16.129 25.1639 16.39 25.2704C16.6511 25.377 16.9308 25.4311 17.2131 25.4296C17.7823 25.4296 18.3282 25.2053 18.7306 24.8059C19.1331 24.4065 19.3592 23.8647 19.3592 23.2999V16.8134C19.3592 15.7648 18.6075 14.8891 17.5835 14.7053ZM16.4396 27.6242C15.4181 27.4459 14.4929 26.9154 13.8272 26.1262C13.1615 25.337 12.798 24.3399 12.8009 23.3107V16.8134C12.7989 16.2384 12.9126 15.6688 13.1352 15.1379C13.3578 14.607 13.6849 14.1255 14.0973 13.7215C14.5063 13.3157 14.9922 12.9941 15.5269 12.7752C16.0616 12.5562 16.6346 12.4443 17.2131 12.4459C18.3804 12.4459 19.4998 12.906 20.3253 13.7251C21.1507 14.5442 21.6144 15.6551 21.6144 16.8134V23.3107C21.6144 24.4783 21.1568 25.581 20.3179 26.4134C19.9105 26.8184 19.4265 27.1396 18.8937 27.3585C18.3609 27.5775 17.7897 27.6898 17.2131 27.6891C16.9538 27.6902 16.695 27.6685 16.4396 27.6242ZM29.2948 14.7161C29.1725 14.6949 29.0486 14.684 28.9244 14.6837C28.6418 14.6808 28.3614 14.7339 28.0997 14.8399C27.838 14.9459 27.6002 15.1027 27.4004 15.301C27.2005 15.4994 27.0425 15.7353 26.9357 15.995C26.8289 16.2547 26.7753 16.5329 26.7783 16.8134V23.3107C26.7768 23.5908 26.8313 23.8684 26.9387 24.1274C27.046 24.3865 27.2041 24.6218 27.4036 24.8199C27.6032 25.0179 27.8404 25.1747 28.1014 25.2812C28.3625 25.3878 28.6422 25.4419 28.9244 25.4404C29.2067 25.4419 29.4864 25.3878 29.7475 25.2812C30.0085 25.1747 30.2457 25.0179 30.4452 24.8199C30.6448 24.6218 30.8028 24.3865 30.9102 24.1274C31.0175 23.8684 31.0721 23.5908 31.0706 23.3107V16.8134C31.0706 15.7756 30.3189 14.8999 29.2948 14.7161ZM28.1509 27.6242C27.1315 27.4436 26.2089 26.9121 25.5453 26.1232C24.8818 25.3342 24.5198 24.3383 24.5231 23.3107V16.8134C24.5249 16.1763 24.6667 15.5472 24.9387 14.9701C25.2107 14.3929 25.6064 13.8817 26.0981 13.472C26.5898 13.0623 27.1657 12.764 27.7856 12.598C28.4055 12.4319 29.0544 12.4022 29.687 12.5107C30.7086 12.6864 31.6349 13.2144 32.3026 14.0016C32.9703 14.7887 33.3365 15.7845 33.3366 16.8134V23.3107C33.338 23.8882 33.223 24.4602 32.9985 24.993C32.774 25.5258 32.4445 26.0087 32.0293 26.4134C31.6219 26.8184 31.1379 27.1396 30.6051 27.3585C30.0723 27.5775 29.5011 27.6898 28.9244 27.6891C28.663 27.6891 28.4015 27.6675 28.1509 27.6242ZM37.1605 27.6675C36.899 27.6236 36.6618 27.4883 36.492 27.2861C36.3221 27.0839 36.2308 26.828 36.2345 26.5648V7.05126C36.2345 6.74856 36.3435 6.45667 36.5614 6.25126C36.6899 6.12537 36.8471 6.03212 37.0197 5.97942C37.1923 5.92672 37.3751 5.91613 37.5527 5.94856C38.0975 6.03505 38.5005 6.49991 38.5005 7.05126V18.5972L43.708 12.8026C43.9695 12.5215 44.3617 12.3918 44.7539 12.4567C44.9516 12.4895 45.1369 12.5743 45.2904 12.7023C45.4439 12.8302 45.5601 12.9967 45.6268 13.1843C45.6936 13.3719 45.7084 13.5739 45.6698 13.7691C45.6313 13.9643 45.5407 14.1458 45.4075 14.2945L41.4747 18.6513L45.5383 26.035C45.6114 26.1596 45.6588 26.2974 45.6775 26.4403C45.6962 26.5833 45.6859 26.7285 45.6472 26.8675C45.6051 27.0107 45.5341 27.1439 45.4386 27.2591C45.3431 27.3743 45.2251 27.4691 45.0916 27.5377C44.8609 27.6693 44.5907 27.7153 44.329 27.6675C44.1662 27.6402 44.0115 27.5776 43.876 27.4841C43.7404 27.3907 43.6272 27.2687 43.5446 27.1269L39.8841 20.4459L38.4896 21.9702V26.5648C38.4896 26.863 38.3703 27.1489 38.1578 27.3598C37.9453 27.5706 37.6571 27.6891 37.3566 27.6891C37.2804 27.6891 37.215 27.6891 37.1388 27.6675H37.1605ZM87.0674 27.6567C86.4547 27.5548 85.8727 27.3186 85.3638 26.9651C84.8549 26.6116 84.432 26.1498 84.1259 25.6134C83.9762 25.3506 83.9371 25.0398 84.017 24.7486C84.1041 24.4675 84.2893 24.2296 84.5399 24.0783C84.7725 23.9522 85.0421 23.9101 85.3025 23.9594C85.6293 24.0134 85.9235 24.208 86.0869 24.4999C86.381 24.9972 86.8495 25.3215 87.4269 25.4188C87.7246 25.4701 88.0301 25.454 88.3206 25.3716C88.6112 25.2893 88.8792 25.1428 89.1046 24.9431C89.5404 24.5431 89.7583 23.9702 89.7038 23.408C89.6917 23.1199 89.6114 22.8386 89.4695 22.5869C89.3275 22.3353 89.1279 22.1203 88.8867 21.9594L85.8363 19.808C85.3393 19.4617 84.9254 19.0109 84.6241 18.4877C84.3228 17.9644 84.1416 17.3817 84.0932 16.781C84.0538 16.1749 84.154 15.5679 84.3862 15.006C84.6183 14.444 84.9764 13.9419 85.4332 13.5377C85.8789 13.1266 86.4113 12.8192 86.9917 12.6378C87.5721 12.4564 88.186 12.4056 88.7887 12.4891C90.0742 12.7053 91.12 13.4405 91.7192 14.4783C91.8636 14.7376 91.9011 15.0424 91.824 15.3286C91.7468 15.6149 91.5609 15.8603 91.3053 16.0134C91.0746 16.145 90.8043 16.191 90.5426 16.1432C90.3799 16.1159 90.2252 16.0533 90.0896 15.9598C89.954 15.8664 89.8409 15.7444 89.7583 15.6026C89.6216 15.3732 89.4354 15.1767 89.2132 15.0272C88.9909 14.8777 88.738 14.7788 88.4727 14.7377C88.2013 14.689 87.9221 14.7037 87.6574 14.7806C87.3926 14.8575 87.1496 14.9946 86.9475 15.181C86.7502 15.3658 86.5963 15.5913 86.4965 15.8416C86.3967 16.0919 86.3536 16.3609 86.3701 16.6296C86.3919 17.1594 86.697 17.6783 87.1545 17.981L90.2049 20.0891C90.7227 20.4489 91.1509 20.9212 91.4568 21.4702C91.7626 22.0192 91.9381 22.6302 91.9698 23.2567C92.0203 23.8802 91.9235 24.5069 91.6871 25.0868C91.4507 25.6667 91.0812 26.1839 90.608 26.5972C90.1478 27.0215 89.5981 27.3388 88.9988 27.5258C88.3995 27.7128 87.7657 27.7649 87.1436 27.6783L87.0565 27.6567H87.0674ZM95.8155 27.6891C95.5538 27.6435 95.3166 27.508 95.1454 27.3065C94.9741 27.1049 94.8797 26.85 94.8786 26.5864V7.07288C94.8771 6.92483 94.9054 6.77798 94.9619 6.64092C95.0183 6.50386 95.1017 6.37934 95.2072 6.27465C95.3127 6.16995 95.4382 6.08719 95.5763 6.0312C95.7144 5.97521 95.8624 5.94711 96.0116 5.94856L96.2295 5.95937C96.7742 6.06748 97.1446 6.51072 97.1446 7.07288V12.5864H99.2908C99.8692 12.585 100.442 12.697 100.977 12.916C101.511 13.1349 101.997 13.4566 102.406 13.8624C102.815 14.2683 103.139 14.7503 103.36 15.2809C103.581 15.8114 103.694 16.38 103.692 16.954V26.5756C103.693 26.7388 103.658 26.9003 103.589 27.0485C103.52 27.1967 103.419 27.3281 103.293 27.4333C103.167 27.5385 103.02 27.615 102.861 27.6573C102.702 27.6997 102.536 27.7068 102.374 27.6783C101.829 27.581 101.437 27.1161 101.437 26.5648V16.9432C101.437 16.664 101.381 16.3876 101.273 16.1298C101.165 15.872 101.007 15.6379 100.808 15.441C100.608 15.2441 100.372 15.0883 100.111 14.9824C99.8509 14.8766 99.5721 14.8228 99.2908 14.8242H97.1446V26.5756C97.1458 26.7399 97.1104 26.9025 97.0408 27.0516C96.9713 27.2007 96.8693 27.3328 96.7423 27.4382C96.6152 27.5436 96.4662 27.6198 96.306 27.6613C96.1458 27.7028 95.9783 27.7086 95.8155 27.6783V27.6891ZM111.373 14.7269C111.064 14.6713 110.747 14.6839 110.443 14.7638C110.14 14.8437 109.858 14.9889 109.618 15.1892C109.378 15.3894 109.185 15.6397 109.053 15.9223C108.921 16.2049 108.854 16.5129 108.856 16.8242V23.3215C108.855 23.6007 108.909 23.8774 109.015 24.1357C109.122 24.3941 109.279 24.6289 109.478 24.8268C109.676 25.0247 109.912 25.1818 110.172 25.2889C110.431 25.3961 110.71 25.4513 110.991 25.4513C111.558 25.4513 112.102 25.235 112.506 24.835C112.707 24.6374 112.867 24.4016 112.976 24.1417C113.084 23.8817 113.139 23.6029 113.137 23.3215V16.8134C113.137 15.7756 112.397 14.8891 111.362 14.7161L111.373 14.7269ZM110.218 27.6134C109.199 27.4352 108.277 26.9058 107.613 26.1186C106.949 25.3315 106.587 24.3371 106.59 23.3107V16.8134C106.59 16.1754 106.731 15.5451 107.002 14.9666C107.273 14.3882 107.669 13.8755 108.161 13.4647C108.653 13.0538 109.229 12.7545 109.85 12.5879C110.47 12.4212 111.12 12.3912 111.754 12.4999C112.777 12.676 113.705 13.2055 114.373 13.9949C115.041 14.7843 115.406 15.7827 115.403 16.8134V23.3107C115.404 23.8865 115.289 24.4566 115.064 24.9875C114.84 25.5185 114.511 25.9996 114.096 26.4026C113.596 26.9005 112.983 27.2708 112.307 27.4817C111.632 27.6926 110.915 27.7378 110.218 27.6134Z" fill="#333545"/>
<path fill-rule="evenodd" clip-rule="evenodd" d="M132.802 13.8297C132.839 13.6924 132.848 13.5491 132.83 13.4081C132.811 13.2671 132.764 13.1312 132.693 13.0081C132.61 12.8769 132.502 12.7633 132.375 12.6742C132.248 12.5851 132.104 12.5222 131.952 12.4892C131.671 12.4365 131.38 12.4921 131.14 12.6448C130.899 12.7975 130.725 13.0357 130.655 13.3108C130.655 13.3648 129.435 18.2405 128.477 21.9486L128.455 22.0243L128.433 21.9486L126.254 13.3216C126.212 13.111 126.106 12.9182 125.95 12.7694C125.794 12.6205 125.596 12.5227 125.383 12.4892C125.318 12.4765 125.252 12.4693 125.187 12.4675C124.685 12.4675 124.25 12.8135 124.108 13.3108C124.097 13.3648 122.877 18.2405 121.929 21.9486L121.907 22.0243L121.886 21.9486C120.96 18.2405 119.707 13.3648 119.707 13.3108C119.655 13.1039 119.545 12.9161 119.388 12.7703C119.231 12.6245 119.036 12.5268 118.824 12.4892C118.643 12.4573 118.456 12.4707 118.282 12.5282C118.107 12.5856 117.949 12.6853 117.823 12.8183C117.696 12.9512 117.605 13.1132 117.557 13.2898C117.51 13.4663 117.507 13.6519 117.55 13.8297L120.829 26.8351C120.891 27.0734 121.03 27.285 121.225 27.4373C121.42 27.5896 121.659 27.6743 121.907 27.6783C122.441 27.6783 122.866 27.3324 122.975 26.8351L125.154 18.1973L125.187 18.1216L125.208 18.1973C126.167 21.9486 127.387 26.8459 127.387 26.8459C127.452 27.0796 127.591 27.2865 127.783 27.4363C127.975 27.5861 128.211 27.6709 128.455 27.6783C128.706 27.6861 128.952 27.6058 129.149 27.4516C129.346 27.2974 129.482 27.0791 129.533 26.8351L132.802 13.8297Z" fill="#333545"/>
</svg>
