<?xml version="1.0" encoding="utf-8"?>
<!-- Generator: Adobe Illustrator 25.0.0, SVG Export Plug-In . SVG Version: 6.00 Build 0)  -->
<svg version="1.1" id="Layer_1" xmlns="http://www.w3.org/2000/svg" xmlns:xlink="http://www.w3.org/1999/xlink" x="0px" y="0px"
	 viewBox="0 0 45 45" style="enable-background:new 0 0 45 45;" xml:space="preserve">
<style type="text/css">
	.st0{fill:none;stroke:#8C30F5;stroke-width:2.75;stroke-linecap:round;stroke-linejoin:round;}
</style>
<g>
	<path class="st0" d="M32.6,13.3L32.6,13.3"/>
	<path class="st0" d="M32.6,26.1l-6.4-9.2c-0.6-1.1-0.9-2.4-0.9-3.7c0-1.3,0.4-2.5,1-3.6c0.6-1.1,1.6-2,2.7-2.6c1.1-0.6,2.4-1,3.6-1
		c1.3,0,2.5,0.3,3.6,1c1.1,0.6,2,1.5,2.7,2.6c0.6,1.1,1,2.3,1,3.6c0,1.3-0.3,2.5-0.9,3.7L32.6,26.1z"/>
	<path class="st0" d="M18.8,11l-2.8-1.4l-11,5.5v23.8l11-5.5l11,5.5l11-5.5v-3.7"/>
	<path class="st0" d="M16.1,9.6v23.8"/>
	<path class="st0" d="M27.1,29.8v9.2"/>
</g>
</svg>
