<?xml version="1.0" encoding="utf-8"?>
<!-- Generator: Adobe Illustrator 25.0.0, SVG Export Plug-In . SVG Version: 6.00 Build 0)  -->
<svg version="1.1" id="Layer_1" xmlns="http://www.w3.org/2000/svg" xmlns:xlink="http://www.w3.org/1999/xlink" x="0px" y="0px"
	 viewBox="0 0 45 45" style="enable-background:new 0 0 45 45;" xml:space="preserve">
<style type="text/css">
	.st0{fill:none;stroke:#8C30F5;stroke-width:2.75;stroke-linecap:round;stroke-linejoin:round;}
</style>
<path class="st0" d="M22.5,6c4.3,3.8,9.9,5.8,15.6,5.5c0.8,2.8,1.1,5.8,0.7,8.7c-0.3,2.9-1.3,5.8-2.7,8.3c-1.5,2.6-3.4,4.8-5.7,6.6
	c-2.3,1.8-5,3.1-7.9,3.8c-2.9-0.7-5.5-2-7.9-3.8c-2.3-1.8-4.3-4-5.7-6.6c-1.5-2.6-2.4-5.4-2.7-8.3c-0.3-2.9-0.1-5.9,0.7-8.7
	C12.6,11.8,18.2,9.8,22.5,6"/>
</svg>
