<svg width="158" height="40" viewBox="0 0 158 40" fill="none" xmlns="http://www.w3.org/2000/svg">
<g clip-path="url(#clip0)">
<path d="M-5.72205e-06 0.0522461V39.892L158 40.0002V0.0522461H-5.72205e-06Z" fill="#1482C2"/>
<path d="M63.1735 9.60824L54.3251 22.9304C53.4049 24.3402 51.7904 25.1925 50.1006 25.1925C47.3491 25.1925 45.0715 22.8938 45.0715 20.12C45.0715 17.3054 47.3491 15.011 50.1199 15.011C50.3946 14.9752 50.763 14.9361 51.0201 14.9361C52.9301 14.9361 54.8761 15.7508 56.1983 17.1215L58.841 13.0495C56.7853 10.904 53.7373 9.53076 50.6885 9.53076C44.997 9.53076 39.7836 14.3061 39.7836 20.0809C39.7836 25.8216 44.4468 30.5211 50.14 30.5211C52.8933 30.5211 55.6465 29.3369 57.5565 27.3736H63.6516L63.6878 30.5211H68.9775V9.60824H63.1737H63.1735ZM60.7527 22.7831L63.6516 18.6778L63.6878 22.7831H60.7529H60.7527Z" fill="white"/>
<path d="M79.112 30.5208H73.824V14.4914H69.7118V9.64285L83.2225 9.60791V14.4913H79.112V30.5208V30.5208Z" fill="white"/>
<path d="M100.85 9.60825L95.5619 9.60961L95.5251 17.4175H89.2817L89.2422 9.60791H83.9584V30.5208H89.2815V22.2651H95.5617V30.5208H100.85V9.60791L100.85 9.60825Z" fill="white"/>
<path d="M143.224 9.60791V19.3399L135.954 9.60791L131.142 9.64197L131.106 17.2693C129.894 12.8269 125.744 9.60791 121.118 9.60791C115.427 9.60791 110.763 14.3057 110.763 20.0805C110.763 21.9348 111.313 23.818 112.193 25.4492H106.955V9.60791H101.566V30.5208H113.885V27.5947C115.831 29.4098 118.474 30.5208 121.118 30.5208C125.744 30.5208 129.821 27.3733 131.106 22.9301L131.142 30.5208H136.468V20.3436L143.699 30.5208H148.508L148.514 9.60791H143.225H143.224ZM121.118 25.4126C118.217 25.4126 115.831 23.0441 115.831 20.0805C115.831 17.1578 118.217 14.7527 121.118 14.7527C124.057 14.7527 126.443 17.1578 126.443 20.0805C126.443 23.0441 124.057 25.4126 121.118 25.4126Z" fill="white"/>
<path d="M33.3886 25.4497V22.5227H39.0634L39.0534 17.4171H33.3886V14.7532H39.6437L39.633 9.6084L27.5892 9.64245V16.8246C26.3407 12.9015 22.7409 10.0128 18.6287 9.64245L9.4855 9.6084V30.5205H18.6663C22.7409 30.1518 26.3407 27.2648 27.5892 23.3775V30.5205H39.6438L39.6331 25.4497H33.3889H33.3886ZM21.7502 23.2651C21.4211 24.6733 20.0981 25.6702 18.6662 25.7077H15.2883V14.491H18.6662C20.0981 14.491 21.4211 15.5322 21.7502 16.9735C22.0818 17.9364 22.2651 19.0466 22.2651 20.081C22.2651 21.1572 22.0818 22.2656 21.7502 23.2651Z" fill="white"/>
</g>
<defs>
<clipPath id="clip0">
<rect width="158" height="40" fill="white"/>
</clipPath>
</defs>
</svg>
