<?xml version="1.0" encoding="utf-8"?>
<!-- Generator: Adobe Illustrator 25.0.0, SVG Export Plug-In . SVG Version: 6.00 Build 0)  -->
<svg version="1.1" id="Layer_1" xmlns="http://www.w3.org/2000/svg" xmlns:xlink="http://www.w3.org/1999/xlink" x="0px" y="0px"
	 viewBox="0 0 45 45" style="enable-background:new 0 0 45 45;" xml:space="preserve">
<style type="text/css">
	.st0{fill:none;stroke:#8C30F5;stroke-width:2.75;stroke-linecap:round;stroke-linejoin:round;}
</style>
<g>
	<path class="st0" d="M31.7,31.7h3.7c1,0,1.9-0.4,2.6-1.1C38.6,29.9,39,29,39,28v-7.3c0-1-0.4-1.9-1.1-2.6c-0.7-0.7-1.6-1.1-2.6-1.1
		H9.7c-1,0-1.9,0.4-2.6,1.1C6.4,18.8,6,19.7,6,20.7V28c0,1,0.4,1.9,1.1,2.6c0.7,0.7,1.6,1.1,2.6,1.1h3.7"/>
	<path class="st0" d="M31.7,17V9.7c0-1-0.4-1.9-1.1-2.6C29.9,6.4,29,6,28,6H17c-1,0-1.9,0.4-2.6,1.1c-0.7,0.7-1.1,1.6-1.1,2.6V17"/>
	<path class="st0" d="M28,24.3H17c-2,0-3.7,1.6-3.7,3.7v7.3c0,2,1.6,3.7,3.7,3.7h11c2,0,3.7-1.6,3.7-3.7V28C31.7,26,30,24.3,28,24.3
		z"/>
</g>
</svg>
