<svg width="140" height="41" viewBox="0 0 140 41" fill="none" xmlns="http://www.w3.org/2000/svg">
<g clip-path="url(#clip0)">
<path d="M15.1612 6.89404V18.177H4.88077V6.89404H0V33.8275H4.88077V22.9109H15.1612V33.8275H20.042V6.89404H15.1612Z" fill="#33475B"/>
<path d="M35.6624 25.1215C35.6624 26.2009 35.237 27.2361 34.4798 27.9993C33.7226 28.7626 32.6955 29.1914 31.6246 29.1914C30.5537 29.1914 29.5267 28.7626 28.7695 27.9993C28.0122 27.2361 27.5868 26.2009 27.5868 25.1215V13.5854H22.9571V25.1215C22.9571 27.4362 23.8694 29.6562 25.4933 31.293C27.1172 32.9298 29.3197 33.8494 31.6163 33.8494C33.9128 33.8494 36.1153 32.9298 37.7392 31.293C39.3631 29.6562 40.2754 27.4362 40.2754 25.1215V13.5854H35.6624V25.1215Z" fill="#33475B"/>
<path d="M69.9644 14.7735C69.9644 12.409 71.5164 11.6593 73.2167 11.6593C74.5869 11.6593 76.3972 12.7103 77.5809 13.9853L80.6131 10.3843C79.0994 8.32098 76.0289 6.89404 73.5156 6.89404C68.4937 6.89404 64.8612 9.85879 64.8612 14.7735C64.8612 23.8919 75.9189 20.9995 75.9189 26.1022C75.9189 27.6762 74.4028 29.067 72.6666 29.067C69.9285 29.067 69.0413 27.7172 67.7835 26.2902L64.4188 29.8166C66.5711 32.4801 69.2255 33.8323 72.406 33.8323C77.1768 33.8323 81.0149 30.8314 81.0149 26.1408C81.0149 16.0173 69.9572 19.1628 69.9572 14.7735" fill="#33475B"/>
<path d="M138.371 29.5251C135.636 29.5251 134.859 28.332 134.859 26.5049V18.4181H139.11V14.3205H134.859V8.91406L130.164 11.0376V27.51C130.164 31.7233 133.048 33.8469 137.004 33.8469C137.624 33.8583 138.244 33.8082 138.854 33.6974L140 29.448C139.483 29.4841 138.89 29.5203 138.371 29.5203" fill="#33475B"/>
<path d="M53.2844 13.7198C50.9911 13.7198 49.3913 14.3899 47.8441 15.9205V7.05518H43.2072V23.4866C43.2072 29.6379 47.6193 33.8512 52.5766 33.8512C58.0767 33.8512 62.9144 29.5632 62.9144 23.7879C62.9144 18.085 58.4617 13.7222 53.2844 13.7222V13.7198ZM53.2557 29.1486C52.2152 29.1486 51.198 28.8376 50.3329 28.2549C49.4677 27.6722 48.7934 26.844 48.3952 25.8751C47.997 24.9061 47.8928 23.8399 48.0958 22.8112C48.2988 21.7826 48.7999 20.8377 49.5356 20.0961C50.2714 19.3545 51.2088 18.8495 52.2294 18.6449C53.2499 18.4403 54.3077 18.5453 55.269 18.9466C56.2303 19.348 57.052 20.0277 57.6301 20.8997C58.2082 21.7717 58.5167 22.797 58.5167 23.8458C58.5167 25.2522 57.9624 26.601 56.9758 27.5954C55.9892 28.5899 54.651 29.1486 53.2557 29.1486Z" fill="#33475B"/>
<path d="M103.632 23.5423C103.632 17.7574 98.8038 13.479 93.2941 13.479C88.3368 13.479 83.9248 17.6923 83.9248 23.8436V40.2847H88.5616V31.4073C90.1064 32.9355 91.7086 33.6079 93.9996 33.6079C99.1769 33.6079 103.63 29.2476 103.63 23.5423H103.632ZM99.2414 23.4844C99.2414 24.5332 98.9329 25.5585 98.3548 26.4305C97.7767 27.3025 96.9551 27.9822 95.9937 28.3836C95.0324 28.7849 93.9746 28.8899 92.9541 28.6853C91.9335 28.4807 90.9961 27.9757 90.2604 27.2341C89.5246 26.4925 89.0235 25.5476 88.8205 24.5189C88.6175 23.4903 88.7217 22.4241 89.1199 21.4551C89.5181 20.4862 90.1924 19.658 91.0576 19.0753C91.9228 18.4926 92.9399 18.1816 93.9804 18.1816C95.3757 18.1816 96.7139 18.7403 97.7005 19.7348C98.6872 20.7292 99.2414 22.078 99.2414 23.4844Z" fill="#33475B"/>
<path d="M118.612 13.2527V8.55734C119.227 8.2674 119.749 7.80719 120.115 7.23026C120.481 6.65333 120.677 5.98342 120.68 5.29853V5.19006C120.68 4.23116 120.302 3.31153 119.63 2.63348C118.957 1.95544 118.045 1.57451 117.093 1.57451H116.986C116.034 1.57451 115.122 1.95544 114.449 2.63348C113.776 3.31153 113.399 4.23116 113.399 5.19006V5.29853C113.402 5.98342 113.598 6.65333 113.964 7.23026C114.33 7.80719 114.851 8.2674 115.467 8.55734V13.2527C113.698 13.5256 112.031 14.2648 110.637 15.3955L97.8619 5.36602C97.9523 5.03528 98.0005 4.69428 98.0053 4.35125C98.0068 3.54549 97.7711 2.7574 97.3281 2.08667C96.8851 1.41593 96.2547 0.892694 95.5166 0.583129C94.7785 0.273564 93.966 0.191582 93.1817 0.347551C92.3974 0.503521 91.6766 0.890436 91.1105 1.45936C90.5444 2.02828 90.1584 2.75364 90.0013 3.54371C89.8443 4.33377 89.9232 5.15303 90.2281 5.89788C90.5331 6.64272 91.0503 7.27968 91.7144 7.72818C92.3786 8.17668 93.1597 8.41658 93.9592 8.41754C94.6582 8.41439 95.3442 8.22656 95.9488 7.8728L108.53 17.7384C107.399 19.4594 106.809 21.4837 106.837 23.5475C106.865 25.6112 107.509 27.6187 108.685 29.3082L104.859 33.1648C104.55 33.0652 104.227 33.0124 103.902 33.0081C103.246 33.0086 102.605 33.2051 102.059 33.5729C101.514 33.9407 101.089 34.4632 100.838 35.0745C100.587 35.6857 100.521 36.3582 100.65 37.0069C100.778 37.6557 101.094 38.2516 101.558 38.7193C102.022 39.1871 102.613 39.5057 103.257 39.6348C103.9 39.764 104.568 39.698 105.174 39.445C105.78 39.1921 106.299 38.7637 106.664 38.2139C107.029 37.6641 107.224 37.0176 107.224 36.3561C107.22 36.0287 107.168 35.7038 107.069 35.3919L110.854 31.5763C112.089 32.5338 113.524 33.1937 115.05 33.5057C116.577 33.8177 118.154 33.7734 119.661 33.3762C121.168 32.979 122.564 32.2394 123.744 31.2141C124.924 30.1889 125.855 28.9051 126.466 27.4611C127.077 26.0172 127.353 24.4513 127.271 22.8836C127.189 21.3158 126.752 19.7877 125.994 18.4163C125.236 17.0449 124.177 15.8665 122.897 14.9715C121.618 14.0765 120.152 13.4886 118.612 13.2527ZM117.043 28.6935C116.008 28.6926 114.996 28.3822 114.135 27.8017C113.274 27.2212 112.604 26.3966 112.208 25.4321C111.812 24.4676 111.709 23.4065 111.912 22.3829C112.114 21.3594 112.613 20.4192 113.345 19.6814C114.078 18.9435 115.011 18.4411 116.026 18.2375C117.042 18.0339 118.095 18.1384 119.051 18.5377C120.008 18.937 120.826 19.6132 121.401 20.4809C121.977 21.3485 122.284 22.3687 122.285 23.4124C122.285 24.8124 121.733 26.1551 120.751 27.145C119.769 28.135 118.437 28.6911 117.048 28.6911" fill="#FF7A59"/>
</g>
<defs>
<clipPath id="clip0">
<rect width="140" height="40" fill="white" transform="translate(0 0.272949)"/>
</clipPath>
</defs>
</svg>
