<?xml version="1.0" encoding="utf-8"?>
<!-- Generator: Adobe Illustrator 25.0.0, SVG Export Plug-In . SVG Version: 6.00 Build 0)  -->
<svg version="1.1" id="Layer_1" xmlns="http://www.w3.org/2000/svg" xmlns:xlink="http://www.w3.org/1999/xlink" x="0px" y="0px"
	 viewBox="0 0 45 45" style="enable-background:new 0 0 45 45;" xml:space="preserve">
<style type="text/css">
	.st0{fill:none;stroke:#8C30F5;stroke-width:2.75;stroke-linecap:round;stroke-linejoin:round;}
</style>
<g>
	<path class="st0" d="M35.3,17H17c-2,0-3.7,1.6-3.7,3.7v11c0,2,1.6,3.7,3.7,3.7h18.3c2,0,3.7-1.6,3.7-3.7v-11
		C39,18.6,37.4,17,35.3,17z"/>
	<path class="st0" d="M26.2,29.8c2,0,3.7-1.6,3.7-3.7c0-2-1.6-3.7-3.7-3.7c-2,0-3.7,1.6-3.7,3.7C22.5,28.2,24.1,29.8,26.2,29.8z"/>
	<path class="st0" d="M31.7,17v-3.7c0-1-0.4-1.9-1.1-2.6C29.9,10.1,29,9.7,28,9.7H9.7c-1,0-1.9,0.4-2.6,1.1C6.4,11.4,6,12.4,6,13.3
		v11c0,1,0.4,1.9,1.1,2.6C7.8,27.6,8.7,28,9.7,28h3.7"/>
</g>
</svg>
