<?xml version="1.0" encoding="utf-8"?>
<!-- Generator: Adobe Illustrator 25.0.0, SVG Export Plug-In . SVG Version: 6.00 Build 0)  -->
<svg version="1.1" id="Layer_1" xmlns="http://www.w3.org/2000/svg" xmlns:xlink="http://www.w3.org/1999/xlink" x="0px" y="0px"
	 viewBox="0 0 45 45" style="enable-background:new 0 0 45 45;" xml:space="preserve">
<style type="text/css">
	.st0{fill:none;stroke:#8C30F5;stroke-width:2.75;stroke-linecap:round;stroke-linejoin:round;}
</style>
<g>
	<path class="st0" d="M13.3,28H9.7c-2,0-3.7,1.6-3.7,3.7v3.7c0,2,1.6,3.7,3.7,3.7h3.7c2,0,3.7-1.6,3.7-3.7v-3.7
		C17,29.6,15.4,28,13.3,28z"/>
	<path class="st0" d="M35.3,28h-3.7c-2,0-3.7,1.6-3.7,3.7v3.7c0,2,1.6,3.7,3.7,3.7h3.7c2,0,3.7-1.6,3.7-3.7v-3.7
		C39,29.6,37.4,28,35.3,28z"/>
	<path class="st0" d="M24.3,6h-3.7c-2,0-3.7,1.6-3.7,3.7v3.7c0,2,1.6,3.7,3.7,3.7h3.7c2,0,3.7-1.6,3.7-3.7V9.7C28,7.6,26.4,6,24.3,6
		z"/>
	<path class="st0" d="M11.5,28v-1.8c0-1,0.4-1.9,1.1-2.6c0.7-0.7,1.6-1.1,2.6-1.1h14.7c1,0,1.9,0.4,2.6,1.1c0.7,0.7,1.1,1.6,1.1,2.6
		V28"/>
	<path class="st0" d="M22.5,17v5.5"/>
</g>
</svg>
