<?xml version="1.0" encoding="utf-8"?>
<!-- Generator: Adobe Illustrator 25.0.0, SVG Export Plug-In . SVG Version: 6.00 Build 0)  -->
<svg version="1.1" id="Layer_1" xmlns="http://www.w3.org/2000/svg" xmlns:xlink="http://www.w3.org/1999/xlink" x="0px" y="0px"
	 viewBox="0 0 45 45" style="enable-background:new 0 0 45 45;" xml:space="preserve">
<style type="text/css">
	.st0{fill:none;stroke:#8C30F5;stroke-width:2.75;stroke-linecap:round;stroke-linejoin:round;}
</style>
<g>
	<path class="st0" d="M16.1,20.7c4.1,0,7.3-3.3,7.3-7.3c0-4.1-3.3-7.3-7.3-7.3s-7.3,3.3-7.3,7.3C8.8,17.4,12,20.7,16.1,20.7z"/>
	<path class="st0" d="M5.1,39v-3.7c0-1.9,0.8-3.8,2.1-5.2c1.4-1.4,3.2-2.1,5.2-2.1h7.3c1.9,0,3.8,0.8,5.2,2.1s2.1,3.2,2.1,5.2V39"/>
	<path class="st0" d="M34.4,15.2v11 M28.9,20.7h11H28.9z"/>
</g>
</svg>
