<svg width="45" height="44" viewBox="0 0 45 44" fill="none" xmlns="http://www.w3.org/2000/svg">
<path d="M34.9503 16.501H16.6169C14.5919 16.501 12.9503 18.1426 12.9503 20.1676V31.1676C12.9503 33.1927 14.5919 34.8343 16.6169 34.8343H34.9503C36.9753 34.8343 38.6169 33.1927 38.6169 31.1676V20.1676C38.6169 18.1426 36.9753 16.501 34.9503 16.501Z" stroke="#0795DD" stroke-width="2.75" stroke-linecap="round" stroke-linejoin="round"/>
<path d="M25.7836 29.3343C27.8087 29.3343 29.4503 27.6927 29.4503 25.6676C29.4503 23.6426 27.8087 22.001 25.7836 22.001C23.7586 22.001 22.1169 23.6426 22.1169 25.6676C22.1169 27.6927 23.7586 29.3343 25.7836 29.3343Z" stroke="#0795DD" stroke-width="2.75" stroke-linecap="round" stroke-linejoin="round"/>
<path d="M31.2836 16.5009V12.8343C31.2836 11.8618 30.8973 10.9292 30.2097 10.2415C29.522 9.55391 28.5894 9.1676 27.6169 9.1676H9.28361C8.31115 9.1676 7.37852 9.55391 6.69089 10.2415C6.00325 10.9292 5.61694 11.8618 5.61694 12.8343V23.8343C5.61694 24.8067 6.00325 25.7394 6.69089 26.427C7.37852 27.1146 8.31115 27.5009 9.28361 27.5009H12.9503" stroke="#0795DD" stroke-width="2.75" stroke-linecap="round" stroke-linejoin="round"/>
</svg>
