<svg width="45" height="44" viewBox="0 0 45 44" fill="none" xmlns="http://www.w3.org/2000/svg">
<path d="M12.9503 20.1677V34.8344C12.9503 35.3206 12.7571 35.7869 12.4133 36.1307C12.0695 36.4745 11.6032 36.6677 11.1169 36.6677H7.45028C6.96405 36.6677 6.49773 36.4745 6.15391 36.1307C5.8101 35.7869 5.61694 35.3206 5.61694 34.8344V22.001C5.61694 21.5148 5.8101 21.0485 6.15391 20.7047C6.49773 20.3608 6.96405 20.1677 7.45028 20.1677H12.9503ZM12.9503 20.1677C14.8952 20.1677 16.7605 19.3951 18.1357 18.0198C19.511 16.6445 20.2836 14.7793 20.2836 12.8344V11.001C20.2836 10.0286 20.6699 9.09593 21.3576 8.40829C22.0452 7.72066 22.9778 7.33435 23.9503 7.33435C24.9227 7.33435 25.8554 7.72066 26.543 8.40829C27.2306 9.09593 27.6169 10.0286 27.6169 11.001V20.1677H33.1169C34.0894 20.1677 35.022 20.554 35.7097 21.2416C36.3973 21.9293 36.7836 22.8619 36.7836 23.8344L34.9503 33.001C34.6866 34.1257 34.1865 35.0915 33.5251 35.7528C32.8638 36.4141 32.0771 36.7352 31.2836 36.6677H18.4503C16.9916 36.6677 15.5926 36.0882 14.5612 35.0568C13.5297 34.0253 12.9503 32.6264 12.9503 31.1677" stroke="#0795DD" stroke-width="2.75" stroke-linecap="round" stroke-linejoin="round"/>
</svg>
