<svg width="104" height="29" viewBox="0 0 104 29" fill="none" xmlns="http://www.w3.org/2000/svg">
<path d="M43.8871 13.9563L42.158 13.5933C41.2795 13.4113 40.8009 12.8933 40.8009 12.1133C40.8009 11.1273 41.6793 10.4003 42.8765 10.4003C44.4991 10.4003 44.9777 11.5683 45.111 11.9323C45.1376 12.0623 45.2442 12.1403 45.3508 12.2183C45.4574 12.2703 45.5907 12.2703 45.6963 12.2443L46.6188 11.9323C46.8586 11.8543 46.9642 11.6203 46.9119 11.3873C46.6721 10.5823 45.7844 8.68726 42.8673 8.68726C40.684 8.68726 38.8493 10.3223 38.8493 12.2433C38.8493 13.9033 39.9768 15.1233 41.8289 15.5133L43.4689 15.8763C44.4796 16.0843 45.0659 16.6813 45.0659 17.4593C45.0659 18.4713 44.2151 19.0943 42.857 19.0943C41.2601 19.0943 40.4626 18.0563 40.2761 17.0943C40.2494 16.9643 40.1695 16.8603 40.0629 16.7823C39.9481 16.7254 39.8173 16.7071 39.6908 16.7303L38.6801 17.0423C38.4669 17.1203 38.3347 17.3283 38.3603 17.5353C38.6801 19.1183 40.0003 20.8323 42.857 20.8323C45.2514 20.8323 47.0595 19.3003 47.0595 17.2763C47.0329 15.6163 45.889 14.3963 43.8666 13.9533L43.8871 13.9563ZM52.2409 12.3213C50.2985 12.3213 48.2762 13.9043 48.2762 16.5783C48.2762 17.8503 48.7016 18.9663 49.5267 19.7453C50.2719 20.4723 51.3102 20.8873 52.4274 20.8873C54.1033 20.8873 55.4338 20.0303 56.0457 18.6033C56.0722 18.5462 56.0858 18.4844 56.0858 18.4218C56.0858 18.3592 56.0722 18.2973 56.0457 18.2403C55.9924 18.1363 55.8858 18.0323 55.7792 18.0063L54.9541 17.7203C54.7142 17.6423 54.4754 17.7463 54.3954 17.9543C54.05 18.7593 53.3848 19.1743 52.4274 19.1743C51.2835 19.1743 50.4051 18.4213 50.2442 17.3043C50.2442 17.2783 50.2442 17.2523 50.2708 17.2263C50.2708 17.2263 50.2975 17.2003 50.3508 17.2003H55.7525C55.9924 17.2003 56.2035 17.0183 56.2035 16.7853V16.5513C56.2035 13.9293 54.6865 12.3213 52.2388 12.3213H52.2409ZM54.2089 15.5143C54.2089 15.5403 54.2089 15.5663 54.1822 15.5923C54.1822 15.5923 54.1556 15.6183 54.1023 15.6183H50.4041C50.3774 15.6183 50.3508 15.5923 50.3241 15.5923C50.3241 15.5923 50.2975 15.5663 50.2975 15.5143C50.385 15.0837 50.625 14.6968 50.9754 14.4215C51.3258 14.1462 51.7644 13.9999 52.2142 14.0083C53.3417 14.0083 54.0592 14.5783 54.2099 15.5143H54.2089ZM64.8689 12.5563H63.8849C63.7622 12.5614 63.6464 12.6132 63.5622 12.7004C63.4779 12.7876 63.4319 12.9034 63.4339 13.0233C63.4339 13.0753 63.3806 13.1013 63.3806 13.1013C63.3539 13.1013 63.3273 13.1273 63.3006 13.1013C62.7953 12.6613 62.1034 12.4263 61.1994 12.4263C58.9905 12.4263 57.3946 14.0863 57.3946 16.3463C57.3946 18.6063 58.9915 20.2663 61.1994 20.2663C62.0245 20.2663 62.743 20.0063 63.275 19.5393C63.3017 19.5133 63.355 19.5133 63.355 19.5133C63.3816 19.5133 63.4083 19.5393 63.4083 19.5913V19.9283C63.4083 21.5113 62.6908 22.2283 61.1738 22.2283C60.2154 22.2283 59.4446 21.6583 59.2314 20.7483C59.2047 20.6443 59.1248 20.5403 59.0182 20.4623C58.9123 20.4075 58.7906 20.3892 58.6728 20.4103L57.7144 20.6183C57.4745 20.6703 57.3044 20.9043 57.369 21.1633C57.7144 22.7983 59.2314 23.9153 61.1471 23.9153C62.5842 23.9153 63.6748 23.5003 64.3933 22.6433C64.9775 21.9433 65.2984 20.9833 65.2984 19.8653V13.0063C65.325 12.7723 65.1118 12.5663 64.873 12.5663L64.8689 12.5563ZM61.43 18.6303C60.1262 18.6303 59.3288 17.7473 59.3288 16.3463C59.3288 14.9453 60.1539 14.0623 61.43 14.0623C62.6539 14.0623 63.5056 14.9623 63.5056 16.3463C63.5056 17.7303 62.6549 18.6303 61.43 18.6303ZM76.4903 12.3463C75.3997 12.3463 74.5223 12.7463 73.936 13.4883C73.9094 13.5143 73.8827 13.5403 73.8561 13.5403C73.8294 13.5403 73.8028 13.5143 73.8028 13.5143C73.3241 12.7873 72.4723 12.3463 71.4883 12.3463C70.7165 12.3463 69.9447 12.6063 69.4383 13.0733C69.385 13.0993 69.3584 13.0993 69.3317 13.0993C69.3051 13.0993 69.2784 13.0733 69.2784 13.0213C69.2784 12.7873 69.0652 12.5813 68.8274 12.5813H67.8691C67.6292 12.5813 67.4181 12.7893 67.4181 13.0213V20.1863C67.4181 20.4463 67.6313 20.6263 67.8691 20.6263H68.8531C69.0929 20.6263 69.3041 20.4183 69.3041 20.1863V15.7993C69.3041 14.7353 69.9703 14.0343 70.9441 14.0343C72.2479 14.0343 72.4344 15.0203 72.4344 15.6173V20.1873C72.4344 20.4473 72.6476 20.6273 72.8854 20.6273H73.8694C74.1093 20.6273 74.3204 20.4193 74.3204 20.1873V15.7743C74.3204 14.7363 74.9867 14.0093 75.9604 14.0093C77.2642 14.0093 77.4508 14.9953 77.4508 15.5923V20.1623C77.4508 20.4223 77.664 20.6023 77.9018 20.6023H78.8858C79.1256 20.6023 79.3368 20.3943 79.3368 20.1623V15.4363C79.3634 13.3063 77.9264 12.3363 76.4627 12.3363L76.4903 12.3463ZM84.8994 12.3213C82.9571 12.3213 80.9347 13.9043 80.9347 16.5783C80.9347 17.8503 81.3601 18.9663 82.1852 19.7453C82.9304 20.4723 83.9687 20.8873 85.086 20.8873C86.7619 20.8873 88.0923 20.0303 88.7042 18.6033C88.7307 18.5462 88.7444 18.4844 88.7444 18.4218C88.7444 18.3592 88.7307 18.2973 88.7042 18.2403C88.6509 18.1363 88.5443 18.0323 88.4377 18.0063L87.6126 17.7203C87.3728 17.6423 87.1339 17.7463 87.054 17.9543C86.7086 18.7593 86.0433 19.1743 85.086 19.1743C83.9421 19.1743 83.0637 18.4213 82.9027 17.3043C82.9027 17.2783 82.9027 17.2523 82.9294 17.2263C82.9294 17.2263 82.956 17.2003 83.0093 17.2003H88.4111C88.6509 17.2003 88.8621 17.0183 88.8621 16.7853V16.5513C88.8887 13.9293 87.3717 12.3213 84.8974 12.3213H84.8994ZM83.0903 15.6183C83.0637 15.6183 83.037 15.5923 83.0104 15.5923C83.0104 15.5923 82.9837 15.5663 82.9837 15.5143C83.0712 15.0837 83.3112 14.6968 83.6616 14.4215C84.0121 14.1462 84.4506 13.9999 84.9005 14.0083C85.9644 14.0083 86.7096 14.5783 86.8685 15.5143C86.8685 15.5403 86.8685 15.5663 86.8418 15.5923C86.8418 15.5923 86.8152 15.6183 86.7619 15.6183H83.0903ZM94.6913 12.3463C93.8661 12.3463 93.1476 12.6323 92.59 13.1513C92.5634 13.1773 92.5101 13.1773 92.4834 13.1773C92.4568 13.1773 92.4301 13.1513 92.4301 13.0993V13.0473C92.4301 12.8133 92.2169 12.6073 91.9791 12.6073H91.0207C90.7809 12.6073 90.5697 12.8153 90.5697 13.0473V20.2123C90.5697 20.4723 90.7829 20.6523 91.0207 20.6523H92.0047C92.2446 20.6523 92.4557 20.4443 92.4557 20.2123V15.9823C92.4557 15.0473 92.8811 14.0353 94.0957 14.0353C95.1863 14.0353 95.7357 14.6323 95.7357 15.8003V20.1603C95.7357 20.4203 95.9489 20.6003 96.1867 20.6003H97.1707C97.4106 20.6003 97.6217 20.3923 97.6217 20.1603V15.5663C97.675 13.5663 96.5311 12.3463 94.6697 12.3463H94.6913ZM102.338 14.2683H103.482C103.722 14.2683 103.933 14.0603 103.933 13.8283V12.9983C103.933 12.7643 103.719 12.5583 103.482 12.5583H102.328C102.274 12.5583 102.248 12.5063 102.248 12.4803V10.5863C102.248 10.3523 102.034 10.1463 101.797 10.1463H100.946C100.706 10.1463 100.495 10.3543 100.495 10.5863V11.5723C100.495 12.0393 100.308 12.5843 99.4575 12.5843H99.271C99.0311 12.5843 98.82 12.7923 98.82 13.0243V13.8543C98.82 14.0883 99.0332 14.2943 99.271 14.2943H100.229C100.283 14.2943 100.336 14.3463 100.336 14.3723V18.3443C100.336 19.7983 101.241 20.7063 102.73 20.7063C103.14 20.7063 103.448 20.6543 103.609 20.6283C103.822 20.5763 103.954 20.3943 103.954 20.1883V19.4353C103.954 19.3053 103.901 19.1753 103.794 19.0983C103.688 19.0213 103.554 18.9683 103.449 18.9943C103.342 18.9943 103.236 19.0203 103.156 19.0203C102.489 19.0203 102.233 18.7863 102.233 18.1373V14.3733C102.26 14.3213 102.287 14.2693 102.34 14.2693L102.338 14.2683Z" fill="#49B881"/>
<path d="M19.4178 19.4556H1.55125C0.730659 19.4556 0.0592651 18.8006 0.0592651 18C0.0592651 17.1995 0.730659 16.5444 1.55125 16.5444H19.4178C20.2384 16.5444 20.9098 17.1995 20.9098 18C20.9098 18.8006 20.2384 19.4556 19.4178 19.4556Z" fill="#99CFAC"/>
<path d="M15.6132 28.3712C14.1585 28.3712 12.7038 28.1528 11.3238 27.7525C10.5405 27.4978 10.0929 26.6972 10.354 25.9331C10.6151 25.1689 11.4357 24.7322 12.2189 24.9869C13.3006 25.3144 14.4569 25.4964 15.6132 25.4964C20.686 25.4964 25.0873 22.3305 26.542 17.5998C26.7658 16.8356 27.6237 16.3989 28.407 16.6172C29.1903 16.8356 29.6379 17.6725 29.4141 18.4367C27.5118 24.3683 21.9915 28.3712 15.6132 28.3712Z" fill="#49B881"/>
<path d="M29.6379 12.0684H11.7713C10.9508 12.0684 10.2794 11.4134 10.2794 10.6128C10.2794 9.81224 10.9508 9.15723 11.7713 9.15723H29.6379C30.4585 9.15723 31.1299 9.81224 31.1299 10.6128C31.1299 11.4134 30.4585 12.0684 29.6379 12.0684Z" fill="#99CFAC"/>
<path d="M3.2297 12.0684C3.0805 12.0684 2.93131 12.032 2.78211 11.9956C1.99881 11.7773 1.55122 10.9403 1.77502 10.1761C3.6773 4.24459 9.19765 0.241699 15.6132 0.241699C17.0679 0.241699 18.5226 0.460039 19.9026 0.860327C20.6859 1.11506 21.1335 1.91563 20.8724 2.67982C20.6113 3.44401 19.7907 3.88069 19.0075 3.62596C17.9258 3.29845 16.7695 3.1165 15.6132 3.1165C10.5404 3.1165 6.13908 6.28242 4.68439 11.0131C4.46059 11.6681 3.8638 12.0684 3.2297 12.0684Z" fill="#49B881"/>
<path d="M24.4532 6.53717C25.2772 6.53717 25.9452 5.88548 25.9452 5.08157C25.9452 4.27767 25.2772 3.62598 24.4532 3.62598C23.6292 3.62598 22.9612 4.27767 22.9612 5.08157C22.9612 5.88548 23.6292 6.53717 24.4532 6.53717Z" fill="#99CFAC"/>
<path d="M6.73588 25.0233C7.55988 25.0233 8.22787 24.3716 8.22787 23.5677C8.22787 22.7638 7.55988 22.1121 6.73588 22.1121C5.91188 22.1121 5.2439 22.7638 5.2439 23.5677C5.2439 24.3716 5.91188 25.0233 6.73588 25.0233Z" fill="#99CFAC"/>
</svg>
