<svg width="94" height="26" viewBox="0 0 94 26" fill="none" xmlns="http://www.w3.org/2000/svg">
<g clip-path="url(#clip0)">
<path d="M40.5443 15.4474C40.5433 15.8438 40.6084 16.2374 40.7367 16.6103C40.8609 16.9786 41.0544 17.3171 41.3058 17.6057C41.5571 17.8943 41.8612 18.1272 42.1999 18.2905C42.5502 18.4626 42.9477 18.5486 43.3916 18.5486C43.8359 18.5486 44.2325 18.4634 44.5833 18.2905C44.9233 18.1258 45.2285 17.8918 45.4811 17.602C45.7298 17.3134 45.9217 16.9762 46.0459 16.6097C46.1733 16.2366 46.2379 15.843 46.2368 15.4467C46.2368 15.0467 46.1733 14.6574 46.0466 14.2838C45.9227 13.9181 45.731 13.5817 45.4826 13.2938C45.2296 13.0042 44.9242 12.7702 44.5841 12.6053C44.2102 12.4274 43.8032 12.3388 43.3926 12.3457C42.9499 12.3457 42.5517 12.4332 42.2009 12.6053C41.8624 12.7686 41.5587 13.0013 41.3075 13.2896C41.0563 13.5778 40.8628 13.9159 40.7383 14.2838C40.6104 14.6568 40.5452 15.0503 40.5458 15.4467L40.5443 15.4474ZM38.1743 15.5707C38.1743 14.749 38.3149 14.0007 38.594 13.3303C38.858 12.6819 39.2442 12.0959 39.7295 11.6074C40.2177 11.1232 40.7942 10.7472 41.4244 10.5019C42.0918 10.2404 42.7992 10.1085 43.5117 10.1126C44.2466 10.1126 44.9423 10.243 45.5966 10.5019C46.2275 10.7479 46.8049 11.1239 47.2947 11.6076C47.7791 12.096 48.1649 12.6813 48.4293 13.3288C48.7083 14.0007 48.8482 14.7474 48.8482 15.5715C48.8482 16.3957 48.7076 17.143 48.4293 17.8144C48.1655 18.4622 47.7796 19.0476 47.2947 19.5355C46.8056 20.0196 46.2283 20.3953 45.5973 20.6403C44.9312 20.9026 44.2248 21.0345 43.5132 21.0295C42.8005 21.0346 42.093 20.9026 41.4257 20.6403C40.7954 20.3961 40.2189 20.0206 39.731 19.5365C39.2457 19.0489 38.8597 18.4634 38.5964 17.8153C38.3173 17.143 38.1774 16.3965 38.1774 15.5722L38.1743 15.5707ZM52.4032 15.4474C52.4032 15.8507 52.4669 16.2382 52.5956 16.6103C52.7185 16.9772 52.9103 17.3145 53.1596 17.6026C53.4126 17.8921 53.718 18.1259 54.0581 18.2905C54.4082 18.4626 54.8057 18.5486 55.2498 18.5486C55.6939 18.5486 56.0906 18.4634 56.4413 18.2905C56.7894 18.1199 57.0898 17.8895 57.3385 17.602C57.5875 17.3134 57.7796 16.9762 57.904 16.6097C58.0305 16.2363 58.0949 15.8429 58.0942 15.4467C58.0942 15.0467 58.0299 14.6574 57.9033 14.2838C57.7788 13.918 57.5866 13.5816 57.3378 13.2938C57.0855 13.0037 56.7802 12.7696 56.44 12.6053C56.066 12.4274 55.659 12.3387 55.2483 12.3457C54.8042 12.3457 54.4074 12.4332 54.0568 12.6053C53.7183 12.7685 53.4144 13.0012 53.1632 13.2894C52.912 13.5777 52.7185 13.9158 52.5941 14.2838C52.4658 14.6567 52.4007 15.0503 52.4017 15.4467L52.4032 15.4474ZM58.354 18.9905H58.3125C57.955 19.617 57.4762 20.072 56.8707 20.3567C56.2545 20.6421 55.5874 20.787 54.9136 20.7817C54.144 20.7817 53.4616 20.6442 52.8636 20.3667C52.2822 20.1012 51.7596 19.7127 51.3284 19.2255C50.897 18.7326 50.5669 18.1519 50.3588 17.5197C50.136 16.8415 50.0251 16.1284 50.0309 15.4111C50.0309 14.6574 50.1464 13.9534 50.3816 13.2992C50.5992 12.6699 50.931 12.0906 51.3587 11.5934C51.7817 11.1069 52.2974 10.7187 52.8724 10.4538C53.4645 10.1747 54.1098 10.0367 54.8086 10.0367C55.2771 10.0367 55.6895 10.087 56.0469 10.1855C56.4044 10.2865 56.7189 10.4128 56.9943 10.5709C57.4512 10.8198 57.8518 11.1685 58.1689 11.5936H58.2304V5.9557C58.2304 5.69993 58.4258 5.39897 58.7693 5.39897H60.1666C60.4894 5.39897 60.704 5.67974 60.704 5.9557V19.9682C60.704 20.3247 60.4124 20.5265 60.1666 20.5265H58.8943C58.7524 20.5259 58.6164 20.4671 58.5154 20.3628C58.4144 20.2584 58.3565 20.1168 58.354 19.9682V18.9903V18.9905ZM64.7342 15.4474C64.7342 15.8507 64.7992 16.2382 64.9266 16.6103C65.0507 16.9771 65.2432 17.3144 65.4928 17.6026C65.7454 17.8926 66.0509 18.1265 66.3913 18.2905C66.7393 18.4626 67.1389 18.5486 67.5816 18.5486C68.0257 18.5486 68.4224 18.4634 68.7731 18.2905C69.1133 18.1262 69.4186 17.8921 69.6709 17.602C69.9198 17.3134 70.112 16.9762 70.2363 16.6097C70.3629 16.2363 70.4273 15.8429 70.4267 15.4467C70.4267 15.0467 70.3638 14.6574 70.2373 14.2838C70.1128 13.9182 69.9209 13.5818 69.6725 13.2938C69.4201 13.0038 69.1149 12.7698 68.7748 12.6053C68.4008 12.4274 67.9937 12.3387 67.583 12.3457C67.1404 12.3457 66.7422 12.4332 66.3928 12.6053C66.0541 12.7686 65.7501 13.0012 65.4985 13.2895C65.247 13.5778 65.053 13.9158 64.9281 14.2838C64.8005 14.6569 64.7354 15.0503 64.7357 15.4467L64.7342 15.4474ZM62.365 15.5707C62.365 14.749 62.5056 14.0007 62.7846 13.3303C63.0478 12.6816 63.4338 12.0955 63.9193 11.6074C64.4075 11.1232 64.984 10.7472 65.6142 10.5019C66.2816 10.2404 66.9889 10.1085 67.7015 10.1126C68.4364 10.1126 69.1322 10.243 69.7858 10.5019C70.4165 10.7477 70.9936 11.1237 71.483 11.6076C71.9676 12.0958 72.3535 12.6811 72.6176 13.3288C72.8966 14.0007 73.0365 14.7474 73.0365 15.5715C73.0365 16.3957 72.8959 17.143 72.6168 17.8144C72.3525 18.4621 71.9664 19.0474 71.4815 19.5355C70.9926 20.0197 70.4153 20.3955 69.7843 20.6403C69.1182 20.9026 68.4117 21.0345 67.7 21.0295C66.9874 21.0345 66.2799 20.9026 65.6127 20.6403C64.9823 20.3962 64.4057 20.0206 63.9178 19.5365C63.4325 19.0489 63.0466 18.4634 62.7832 17.8153C62.5034 17.143 62.3635 16.3965 62.3635 15.5722L62.365 15.5707ZM74.2214 6.64032C74.2214 6.24032 74.365 5.89378 74.6509 5.59609C74.9395 5.29993 75.3021 5.15186 75.7425 5.15186C76.1829 5.15186 76.5538 5.29301 76.8527 5.57589C77.1532 5.8582 77.3043 6.2132 77.3043 6.64032C77.3043 7.06686 77.1532 7.42339 76.8527 7.70493C76.5538 7.98782 76.1829 8.12897 75.7425 8.12897C75.3028 8.12897 74.9402 7.98166 74.6516 7.6832C74.3643 7.38705 74.2207 7.03974 74.2207 6.64032H74.2214ZM84.4039 13.2538C84.1597 13.2538 83.982 13.0582 83.9501 12.973C83.7474 12.407 83.1004 12.1938 82.5779 12.1938C81.7541 12.1938 81.1078 12.6001 81.1078 13.2986C81.1078 13.9745 81.7334 14.1126 82.1196 14.2367C82.543 14.374 83.3536 14.5622 83.7999 14.674C84.2427 14.7828 84.6705 14.9503 85.0729 15.1724C86.3682 15.8888 86.5532 17.0161 86.5532 17.6953C86.5532 20.1978 84.2216 21.029 82.6038 21.029C81.3559 21.029 79.0118 20.8274 78.4973 18.2961C78.447 18.0503 78.6528 17.6711 79.0288 17.6711H80.3759C80.6424 17.6711 80.8202 17.8767 80.8717 18.0378C81.0465 18.5474 81.5971 18.9311 82.5254 18.9311C83.5216 18.9311 84.1107 18.5109 84.1107 17.9519C84.1107 17.5905 83.9183 17.268 83.6666 17.0874C82.9117 16.5417 81.0429 16.4803 80.0287 15.9059C79.6402 15.6865 78.6653 15.1834 78.6653 13.4699C78.6653 11.1092 80.683 10.113 82.4551 10.113C85.0693 10.113 86.0285 11.8705 86.1365 12.5217C86.1958 12.8815 86.007 13.2536 85.6274 13.2536H84.4024H84.4039V13.2538ZM86.7908 11.8388V10.7726C86.7908 10.5169 86.9854 10.2122 87.3311 10.2122H88.662V7.59378C88.662 7.31301 88.8471 7.14262 88.9855 7.07974C89.0668 7.04262 89.8129 6.70762 90.4065 6.43859C90.8233 6.26262 91.1592 6.61705 91.1592 6.95647V10.2128H93.3627C93.7031 10.2128 93.9053 10.5182 93.9053 10.7724V11.8401C93.9053 12.1501 93.6372 12.4022 93.3627 12.4022H91.1585V16.9144C91.1585 17.4307 91.1438 17.8338 91.3362 18.1317C91.5101 18.4051 91.7669 18.5059 92.2814 18.5059C92.4279 18.5059 92.5597 18.4803 92.6706 18.4417C92.9963 18.3253 93.2406 18.523 93.3242 18.6897C93.4857 19.013 93.6721 19.3697 93.8024 19.6255C93.8356 19.6921 93.8559 19.765 93.8621 19.8399C93.8683 19.9147 93.8603 19.9902 93.8386 20.0618C93.8168 20.1334 93.7818 20.1998 93.7354 20.2572C93.6891 20.3146 93.6324 20.3618 93.5685 20.3961C93.1466 20.6086 92.5604 20.7807 91.7574 20.7807C91.0911 20.7807 90.7151 20.7055 90.2941 20.5557C89.8799 20.3986 89.5123 20.1302 89.2282 19.7774C88.984 19.4705 88.8625 19.058 88.7729 18.599C88.682 18.1417 88.6605 17.5857 88.6605 16.9834V12.4013H87.3326C86.9847 12.4013 86.7901 12.0897 86.7901 11.8378L86.7908 11.8388ZM30.5832 11.8386V10.7724C30.5832 10.5167 30.7727 10.212 31.1089 10.212H32.5905V7.59378C32.5905 7.31301 32.7696 7.14262 32.9059 7.07974C32.9859 7.04262 33.7113 6.70762 34.2902 6.43859C34.6955 6.26262 35.0227 6.61705 35.0227 6.95647V10.2128H37.1693C37.5009 10.2128 37.6984 10.5182 37.6984 10.7724V11.8401C37.6984 12.1501 37.4371 12.4022 37.17 12.4022H35.0234V16.9144C35.0234 17.4307 35.0088 17.8338 35.1938 18.1317C35.364 18.4051 35.6157 18.5059 36.116 18.5059C36.2596 18.5059 36.3877 18.4803 36.4964 18.4417C36.6132 18.3949 36.7422 18.3943 36.8594 18.4399C36.9765 18.4856 37.0738 18.5744 37.1329 18.6897C37.2906 19.013 37.472 19.3697 37.5993 19.6255C37.7384 19.9045 37.6259 20.2651 37.3698 20.3961C36.9591 20.6086 36.389 20.7807 35.6082 20.7807C34.9592 20.7807 34.592 20.7055 34.182 20.5557C33.7761 20.397 33.4175 20.1285 33.1429 19.7774C32.9044 19.4705 32.7875 19.058 32.6986 18.599C32.6099 18.1417 32.5892 17.5857 32.5892 16.9834V12.4013H31.1111C30.7705 12.4013 30.5818 12.0897 30.5818 11.8378L30.5832 11.8386ZM75.2119 20.5334H76.5516C76.8358 20.5334 77.0675 20.2853 77.0675 19.9805V10.9144C77.0687 10.7697 77.0152 10.6303 76.9187 10.5268C76.8222 10.4233 76.6905 10.3639 76.5523 10.3617H75.2127C75.0742 10.3633 74.942 10.4224 74.8452 10.526C74.7483 10.6297 74.6947 10.7693 74.696 10.9144V19.9807C74.696 20.2845 74.9268 20.5336 75.211 20.5336" fill="#E44332"/>
<path d="M20.7518 0.5H2.9643C1.33014 0.503846 0.00569141 1.88942 0 3.60115V22.2081C0 23.9138 1.33381 25.3092 2.9643 25.3092H20.7518C22.3823 25.3092 23.7161 23.9137 23.7161 22.2081V3.60115C23.7161 1.89538 22.3823 0.5 20.7518 0.5Z" fill="#E44332"/>
<path d="M5.02716 12.2509C5.44172 11.9975 14.3456 6.57745 14.5493 6.45187C14.7529 6.32784 14.7641 5.9463 14.5346 5.80841C14.3065 5.67111 13.8736 5.41053 13.713 5.31053C13.6002 5.24556 13.4733 5.21227 13.3446 5.21393C13.2159 5.21558 13.0898 5.2521 12.9786 5.31995C12.8648 5.38976 5.25666 10.018 5.00275 10.17C4.69706 10.353 4.32161 10.3561 4.01832 10.17L0 7.70034V9.79976C0.977086 10.4028 3.40989 11.9007 3.99904 12.2536C4.35062 12.4628 4.68752 12.4582 5.0279 12.2511" fill="white"/>
<path d="M5.02716 16.2205C5.44172 15.9668 14.3456 10.5468 14.5493 10.4213C14.7529 10.2972 14.7641 9.91587 14.5346 9.7778C14.3065 9.64049 13.8736 9.3801 13.713 9.2801C13.6002 9.2151 13.4733 9.18179 13.3446 9.18341C13.2159 9.18502 13.0898 9.22152 12.9786 9.28933C12.8648 9.35914 5.25666 13.9874 5.00275 14.1395C4.69706 14.3226 4.32161 14.3257 4.01832 14.1395L0 11.6695V13.7689C0.977086 14.3722 3.40989 15.8699 3.99904 16.2228C4.35062 16.432 4.68752 16.4274 5.0279 16.2205" fill="white"/>
<path d="M5.02716 20.438C5.44172 20.1846 14.3456 14.7644 14.5493 14.6388C14.7529 14.5148 14.7641 14.1334 14.5346 13.9953C14.3065 13.8582 13.8736 13.5976 13.713 13.4976C13.6002 13.4326 13.4733 13.3993 13.3446 13.4009C13.2159 13.4026 13.0898 13.439 12.9786 13.5069C12.8648 13.5767 5.25666 18.2051 5.00275 18.3571C4.69706 18.5401 4.32161 18.5432 4.01832 18.3571L0 15.8871V17.9865C0.977086 18.5898 3.40989 20.0876 3.99904 20.4403C4.35062 20.6498 4.68752 20.6449 5.0279 20.438" fill="white"/>
</g>
<defs>
<clipPath id="clip0">
<rect width="94" height="25" fill="white" transform="translate(0 0.5)"/>
</clipPath>
</defs>
</svg>
