<svg id="Layer_1" data-name="Layer 1" xmlns="http://www.w3.org/2000/svg" viewBox="0 0 300 85"><defs><style>.cls-1{fill:#12100e;}.cls-2{fill:#70c7d8;}.cls-3{fill:#fcd66b;}.cls-4{fill:#fff;}.cls-5{fill:#da9063;}</style></defs><path class="cls-1" d="M156.62,35.58l8.73,0,0,11.91a25.51,25.51,0,0,1-4.11,1,29.81,29.81,0,0,1-4.26.31c-3.59,0-6.37-1-8.32-3.16s-2.94-5.12-2.95-9,1.07-6.81,3.26-9,5.21-3.26,9.06-3.27a17.71,17.71,0,0,1,7.05,1.4L163.77,29A13.84,13.84,0,0,0,158,27.7a7.81,7.81,0,0,0-6,2.41,9.21,9.21,0,0,0-2.18,6.53c0,2.9.67,5.1,2,6.61a7.19,7.19,0,0,0,5.72,2.24,18.94,18.94,0,0,0,4-.48l0-6.12-2.69,0-2.22-3.19Z"/><path class="cls-1" d="M183.91,39.35a9.79,9.79,0,0,1-2.24,6.87,8.06,8.06,0,0,1-6.27,2.49A8.71,8.71,0,0,1,171,47.59a7.55,7.55,0,0,1-3-3.26,11.07,11.07,0,0,1-1.05-4.92,9.78,9.78,0,0,1,2.21-6.83,8.16,8.16,0,0,1,6.31-2.47,7.89,7.89,0,0,1,6.17,2.49A9.67,9.67,0,0,1,183.91,39.35Zm-13.06,0c0,4.15,1.55,6.21,4.61,6.2S180,43.5,180,39.36s-1.55-6.14-4.6-6.13a3.88,3.88,0,0,0-3.47,1.6A8,8,0,0,0,170.85,39.39Z"/><path class="cls-1" d="M188.84,48.34h-1.65l-.08-23.72,13-.05-1.55,1.53-9.78,0,0,10.06,10.71,0L198,37.71l-9.15,0Z"/><path class="cls-1" d="M204.75,48.29h-1.6l-.09-25.24,1.61,1.55Z"/><path class="cls-1" d="M223.22,39.38a10,10,0,0,1-2.07,6.75,7.23,7.23,0,0,1-5.76,2.45,7.56,7.56,0,0,1-4.1-1.11,7.15,7.15,0,0,1-2.72-3.2,11.82,11.82,0,0,1-1-4.83,10,10,0,0,1,2.08-6.74,7.18,7.18,0,0,1,5.73-2.42,7,7,0,0,1,5.71,2.42A10,10,0,0,1,223.22,39.38Zm-13.92,0a9,9,0,0,0,1.62,5.67,6,6,0,0,0,9,0,9.07,9.07,0,0,0,1.58-5.68,8.87,8.87,0,0,0-1.64-5.66,5.46,5.46,0,0,0-4.54-2,5.36,5.36,0,0,0-4.49,2A9,9,0,0,0,209.3,39.43Z"/><path class="cls-1" d="M236.85,48.18l-.41-2.79h-.13a8.34,8.34,0,0,1-2.73,2.42,7.41,7.41,0,0,1-3.31.72,5.79,5.79,0,0,1-4.05-1.32,4.79,4.79,0,0,1-1.46-3.68,4.54,4.54,0,0,1,2.14-4A11.63,11.63,0,0,1,233.12,38l3.36-.11V36.71a6,6,0,0,0-1-3.79,4,4,0,0,0-3.3-1.27A10.85,10.85,0,0,0,227.07,33l-.61-1.4a13.57,13.57,0,0,1,5.74-1.38,5.71,5.71,0,0,1,4.35,1.5,6.62,6.62,0,0,1,1.45,4.7l0,11.73Zm-6.49-1.11A5.61,5.61,0,0,0,236.42,41V39.21l-3.09.14A11.65,11.65,0,0,0,228,40.53a3.34,3.34,0,0,0-1.57,3.06,3.28,3.28,0,0,0,1,2.57A4.14,4.14,0,0,0,230.36,47.07Z"/><path class="cls-1" d="M247.07,47a11.59,11.59,0,0,0,2.66-.27v1.3a8.52,8.52,0,0,1-2.7.4,4.39,4.39,0,0,1-3.45-1.24,5.79,5.79,0,0,1-1.12-3.92l0-11.39h-2.61V31l2.61-.74v-4l1.62,1.56v2.71l5.18,0v1.4h-5.17l0,11.17a5.13,5.13,0,0,0,.73,3A2.58,2.58,0,0,0,247.07,47Z"/><path class="cls-1" d="M258.68,48.43a7.65,7.65,0,0,1-6-2.35,9.51,9.51,0,0,1-2.18-6.63,10.33,10.33,0,0,1,2.06-6.76,6.85,6.85,0,0,1,5.59-2.56,6,6,0,0,1,4.92,2.16,9,9,0,0,1,1.82,5.9v1.3l-12.71,0a8.3,8.3,0,0,0,1.72,5.54,5.92,5.92,0,0,0,4.76,1.9,14.88,14.88,0,0,0,2.66-.22,15.93,15.93,0,0,0,2.89-.92v1.46a12.71,12.71,0,0,1-2.75.9A15,15,0,0,1,258.68,48.43Zm-.53-16.87a5.26,5.26,0,0,0-4.08,1.69,7.9,7.9,0,0,0-1.79,4.85l10.91,0a7.73,7.73,0,0,0-1.35-4.79A4.39,4.39,0,0,0,258.15,31.56Z"/><path class="cls-1" d="M275.71,30.07a13.81,13.81,0,0,1,2.4.22l-.3,1.54a9.14,9.14,0,0,0-2.29-.26,4.41,4.41,0,0,0-3.69,1.92,7.79,7.79,0,0,0-1.43,4.84l0,9.74h-1.6l-.06-17.63L270.29,32v1.62h.12a7.49,7.49,0,0,1,2.31-2.74A5.45,5.45,0,0,1,275.71,30.07Z"/><path class="cls-1" d="M292,43.4a4.18,4.18,0,0,1-1.79,3.65,8.78,8.78,0,0,1-5.1,1.29,12.17,12.17,0,0,1-5.62-1.07V45.54a12.37,12.37,0,0,0,5.62,1.31,7.51,7.51,0,0,0,4-.88,2.63,2.63,0,0,0,1.34-2.32,2.79,2.79,0,0,0-1.08-2.23,11.78,11.78,0,0,0-3.55-1.78A20.17,20.17,0,0,1,282.06,38a5.37,5.37,0,0,1-1.62-1.55,4,4,0,0,1-.55-2.12,3.64,3.64,0,0,1,1.66-3.14A8,8,0,0,1,286.19,30a13.81,13.81,0,0,1,5.42,1.05L291,32.55a12.55,12.55,0,0,0-4.82-1,6.9,6.9,0,0,0-3.42.72,2.17,2.17,0,0,0-1.26,2,2.71,2.71,0,0,0,1,2.2,13.61,13.61,0,0,0,3.84,1.84,19.15,19.15,0,0,1,3.48,1.53,5.1,5.1,0,0,1,1.63,1.56A3.78,3.78,0,0,1,292,43.4Z"/><path class="cls-2" d="M126.38,51.35a13.45,13.45,0,0,0-5.21-.55,9.33,9.33,0,0,1-5-1.22c-.64-.39-1.17-.91-1.77-1.33a23.73,23.73,0,0,0-4.18-2.18c-1.89-.83-4-.7-6-.73-1.46,0-2.92-.06-4.37-.07-4.08-.06-8.17-.07-12.25-.07H80.54a.72.72,0,0,1-.58.36c-1.74.25-3.49.39-5.24.49a105.44,105.44,0,0,1-10.49,1.15.84.84,0,0,1-.68-.27c-2.08.28-4.16.5-6.26.62a.81.81,0,0,1-.53-.12,15.08,15.08,0,0,0-1.44.85,2.35,2.35,0,0,0-1,1.44c-1.05.1-2.1.21-3.15.34a13.14,13.14,0,0,0-2.59.47,2,2,0,0,0-2.14-.06,2.25,2.25,0,0,0-1,1.95,2,2,0,0,0,.86,2.44q2.07,1.26,4.15,2.49a15.21,15.21,0,0,0,2.78,1.43l.2.12A58.22,58.22,0,0,0,63.52,62.8a81.63,81.63,0,0,0,10.83,2c3.76.52,7.52,1.06,11.28,1.55a64,64,0,0,0,10.16.72c.63,0,1.25-.06,1.88-.11a28.92,28.92,0,0,0,13.75-2.18,20.62,20.62,0,0,0,3.41-1c4.81-2,8.74-5.39,12.48-8.91A2.13,2.13,0,0,0,126.38,51.35Z"/><path class="cls-3" d="M134.07,55.94a39.12,39.12,0,0,0-1-5.18c-.55-1.83-1.85-11.26-5.25-8.94-.84.58-.63,1.35-.57,2.19.18,2.66-.27,5.36,0,8,.13,1.64.35,3.28.62,4.9a24.45,24.45,0,0,0,1.07,4.59,4.59,4.59,0,0,0,2,2.76C134.64,65.94,134.68,60.5,134.07,55.94Z"/><path class="cls-1" d="M130.19,60.65l-.14-.06a.38.38,0,0,1-.17-.07l-.12-.1-.13-.1a4.38,4.38,0,0,0-.45-.41,4.21,4.21,0,0,1-.78-1,7,7,0,0,1-.79-2.38c-.14-.82-.2-1.64-.28-2.44s-.2-1.62-.24-2.45C127,50,127,48.35,127,46.75a19.82,19.82,0,0,1,.47-5,5.89,5.89,0,0,1,.52-1.22,2.78,2.78,0,0,1,.44-.58,1.11,1.11,0,0,1,.39-.26,1,1,0,0,1,.53-.06,1.61,1.61,0,0,1,.73.36,4.29,4.29,0,0,1,.49.46,5,5,0,0,1,.73,1.11,13.83,13.83,0,0,1,.88,4.9l.22,2.43.11,1.21c0,.41.14.81.2,1.21a8.51,8.51,0,0,1,.11,1.22q0,.62,0,1.23a22.2,22.2,0,0,1-.11,2.45h-.2c-.07-.81-.13-1.62-.21-2.43l-.11-1.2c0-.41-.09-.81-.09-1.22s0-.81,0-1.21L132,49l-.29-2.42c-.09-.81-.17-1.62-.32-2.4a8,8,0,0,0-.71-2.21A4,4,0,0,0,130,41a1.78,1.78,0,0,0-.76-.53c-.06,0-.08,0-.18.1a2.44,2.44,0,0,0-.26.41,4.88,4.88,0,0,0-.39,1,19.26,19.26,0,0,0-.32,4.72c0,.83,0,1.65-.1,2.45s-.07,1.62-.07,2.42S128,53.21,128,54s0,1.63.12,2.42a7.1,7.1,0,0,0,.59,2.28,4.16,4.16,0,0,0,.65,1c.13.13.31.31.42.44l.11.1.1.11.11,0,.13.06Z"/><path class="cls-1" d="M133.94,52a25.82,25.82,0,0,1,.68,4.27l.11,1.07c0,.36.08.71.08,1.08a13.78,13.78,0,0,1-.16,2.21,9.63,9.63,0,0,1-.63,2.15,3.72,3.72,0,0,1-1.46,1.78,2.48,2.48,0,0,1-1.12.34,7.74,7.74,0,0,1-1.17-.12,1.3,1.3,0,0,1-.54-.23,4,4,0,0,1-.45-.37,3,3,0,0,1-.64-.93l.16-.11a7.8,7.8,0,0,0,.82.63A4.64,4.64,0,0,0,130,64a2.93,2.93,0,0,1,.43.23,1.19,1.19,0,0,0,.93.21,2,2,0,0,0,.88-.34,3.06,3.06,0,0,0,1-1.61,9.74,9.74,0,0,0,.36-2,17.78,17.78,0,0,0,0-2.07c0-.7,0-1.42.06-2.13a30.27,30.27,0,0,0,0-4.26Z"/><path class="cls-1" d="M129.85,44.91a2.87,2.87,0,0,0-.49,1.54,5.27,5.27,0,0,0,.22,1.66,6.93,6.93,0,0,1,.37,1.72,7.06,7.06,0,0,1,0,.92l0,.24a2.3,2.3,0,0,1,0,.28c0,.11-.06.08-.07.11a.38.38,0,0,0,0,.13.36.36,0,0,1-.05.21l-.34-.13s0,0-.1-.09a1.3,1.3,0,0,1,0-.33.81.81,0,0,1-.05-.15l0-.21L129,50a6.27,6.27,0,0,1-.24-1.75,9.58,9.58,0,0,1,.07-1.85,3.54,3.54,0,0,1,.78-1.7Z"/><path class="cls-1" d="M64.36,47.54c7.48-1,14.87-2.73,22.43-3.31,3.78-.26,7.57-.21,11.35-.14l2.83,0c1,0,1.87,0,2.82,0a34.21,34.21,0,0,1,5.72.06,10,10,0,0,1,2.84.78,12.89,12.89,0,0,1,2.45,1.59c1.48,1.18,2.91,2.41,4.65,2.71s3.66.05,5.63.33a7.51,7.51,0,0,1,1.47.36,6.44,6.44,0,0,1,.72.3,2.33,2.33,0,0,1,.72.56,2.38,2.38,0,0,1,.46.79,1.93,1.93,0,0,1,.09.49c0,.15,0,.26,0,.39a8.39,8.39,0,0,1-.16,1.5A9.62,9.62,0,0,1,125.32,59a20.58,20.58,0,0,1-4.83,3.2,45.09,45.09,0,0,1-5.31,2.16,50.47,50.47,0,0,1-5.51,1.51,68.62,68.62,0,0,1-11.32,1.37c-1.89.08-3.79.1-5.68.09s-3.79,0-5.68-.12a91.39,91.39,0,0,1-11.31-1.13c-1.87-.3-3.73-.71-5.56-1.16L64.6,63.63a72.4,72.4,0,0,1-10.83-3.42,40.19,40.19,0,0,1-5.08-2.55c-.42-.23-.82-.49-1.22-.74l-.61-.37a6.14,6.14,0,0,1-.59-.45,4.36,4.36,0,0,0-.52-.42l-.16-.11-.1-.09-.07-.08a2.1,2.1,0,0,1-.22-.33L45,54.79l-.2-.31a5.13,5.13,0,0,1-.34-.66,3.06,3.06,0,0,1-.31-1.51,2.31,2.31,0,0,1,.65-1.45A3.8,3.8,0,0,1,46.07,50a10.32,10.32,0,0,1,1.37-.51,36.79,36.79,0,0,1,5.64-.85c1.88-.23,3.77-.38,5.65-.52S62.49,47.77,64.36,47.54Zm0,.19c-1.87.26-3.76.44-5.64.63s-3.75.4-5.61.69a43.16,43.16,0,0,0-5.53,1,5.57,5.57,0,0,0-2.33,1.24,1.78,1.78,0,0,0-.5,1.08A2.74,2.74,0,0,0,45,53.6c.09.21.18.41.29.61l.17.29c.07.11.14.23.19.33a1.75,1.75,0,0,0,.16.27l0,0,0,0,.12.09a5.91,5.91,0,0,1,.56.5,4.17,4.17,0,0,0,.53.41l.6.38c.39.25.78.52,1.19.74A40.22,40.22,0,0,0,54,59.79,72.18,72.18,0,0,0,64.73,63.1l5.52,1.27c1.84.43,3.67.82,5.53,1.11a88.23,88.23,0,0,0,11.24,1c7.52.17,15.12.12,22.44-1.54a52.66,52.66,0,0,0,5.4-1.51A43.2,43.2,0,0,0,120,61.31a19.29,19.29,0,0,0,4.57-3.05,8.55,8.55,0,0,0,2.72-4.49,7.29,7.29,0,0,0,.14-1.31c0-.1,0-.24,0-.32a.51.51,0,0,0,0-.2,1.15,1.15,0,0,0-.24-.43,1.66,1.66,0,0,0-.39-.31,6.07,6.07,0,0,0-.59-.24,6.15,6.15,0,0,0-1.28-.32c-1.76-.3-3.69,0-5.66-.44A7.57,7.57,0,0,1,116.52,49c-.82-.55-1.54-1.18-2.27-1.77A11.53,11.53,0,0,0,112,45.71,9.68,9.68,0,0,0,109.4,45a33.5,33.5,0,0,0-5.59-.14c-1,0-1.91,0-2.85,0l-2.84-.1c-3.77-.14-7.54-.24-11.3,0A109.2,109.2,0,0,0,75.59,46C71.86,46.61,68.14,47.26,64.39,47.73Z"/><path class="cls-3" d="M96.24,46.13a3.08,3.08,0,0,0-1.61-.68,49.34,49.34,0,0,0-5.16,0,52.4,52.4,0,0,0-7.19.57c-1.69.23-3.35.62-5,.84-4.47.59-9.24-.14-13.42,2-.72.37-1.46.78-1.64,1.66a1.81,1.81,0,0,0,1,1.93,7,7,0,0,0,2,.49,18.61,18.61,0,0,0,2.67.45c2.66.11,5.33,0,8,0,2.35.06,4.7.3,7.06.2a39.81,39.81,0,0,0,7.83-1,11,11,0,0,0,2.36-.51c.49-.25,1-.54,1.46-.78A5.21,5.21,0,0,0,97,49.48,2.69,2.69,0,0,0,96.24,46.13Z"/><path class="cls-4" d="M96.46,32.28c.34.56,1,.95,1.46,1.46.6.7,1.16,1.44,1.78,2.12A16.34,16.34,0,0,1,101.45,38,12.09,12.09,0,0,0,103,40.28c1.4,1.31,4.56.11,5.1,2.42.15.65.1,1.5-.63,1.75-.88.31-1.87-.27-2.74-.34a4.39,4.39,0,0,1-2.45-.82,7,7,0,0,1-2-2,16.07,16.07,0,0,0-2.55-3.08c-.76-.83-1.43-1.73-2.13-2.61"/><path class="cls-1" d="M96.56,32.22c.38.55,1,.86,1.56,1.42l1.44,1.56c.46.54,1,1,1.47,1.56a13,13,0,0,1,1.31,1.76c.19.29.39.57.59.82a3.73,3.73,0,0,0,.32.36l.17.15a1.43,1.43,0,0,0,.15.11,2.45,2.45,0,0,0,.79.29c.3.06.63.1,1,.15a6.32,6.32,0,0,1,2.28.61,2.46,2.46,0,0,1,.93,1.06,5.11,5.11,0,0,1,.18.64,2.85,2.85,0,0,1,0,.66,2.67,2.67,0,0,1-.15.7,1.63,1.63,0,0,1-.49.65,2,2,0,0,1-1.39.32c-.84-.1-1.47-.44-2.08-.5a5.18,5.18,0,0,1-2.18-.68,3.59,3.59,0,0,1-.47-.35l-.4-.34a9.44,9.44,0,0,1-.82-.74,4.45,4.45,0,0,1-.69-.91,7.2,7.2,0,0,0-.53-.89,10,10,0,0,0-.65-.81,5.88,5.88,0,0,0-.78-.71,4.61,4.61,0,0,1-.76-.77c-.23-.27-.45-.56-.66-.85-.43-.58-.81-1.18-1.18-1.79l.19-.15c.51.5,1,1,1.47,1.55l.71.77a7.47,7.47,0,0,1,.7.78,9.28,9.28,0,0,0,.67.85,9.28,9.28,0,0,1,.71.82,9.16,9.16,0,0,1,.61.92,3.64,3.64,0,0,0,.62.75,8.3,8.3,0,0,0,.8.64l.43.32a3.21,3.21,0,0,0,.41.27,4.45,4.45,0,0,0,1.88.45c.81,0,1.5.35,2.08.36a1,1,0,0,0,.64-.15.75.75,0,0,0,.17-.55,1.83,1.83,0,0,0,0-.4,3.4,3.4,0,0,0-.12-.38,1.33,1.33,0,0,0-.47-.5,5.52,5.52,0,0,0-1.83-.4,5.83,5.83,0,0,1-1.11-.21,3.24,3.24,0,0,1-1.16-.55l-.26-.22c-.07-.08-.14-.15-.2-.23a5.19,5.19,0,0,1-.36-.46,11,11,0,0,1-.57-1,11.45,11.45,0,0,0-1.09-1.75c-.42-.55-.9-1.08-1.33-1.65l-1.3-1.7c-.39-.53-1.05-.91-1.43-1.58Z"/><path class="cls-4" d="M92.16,12.65a6.27,6.27,0,0,1-2.81-.22c-1-.41-2.12-.64-3.16-1-.75-.3-1.43-.8-2.19-1.11a7.76,7.76,0,0,0-1.34-.56c-1.15-.22-2.36-.18-2.92,1a3,3,0,0,0-.18,2.06c1.19,4.08,8.23,2.36,11.07,2.95"/><path class="cls-1" d="M92.18,12.83a8.82,8.82,0,0,1-1.78.08,4.93,4.93,0,0,1-.91-.15c-.31-.09-.54-.19-.83-.27-.54-.17-1.1-.31-1.67-.47q-.42-.12-.84-.27a5.78,5.78,0,0,1-.84-.37c-.53-.27-1-.55-1.52-.75-.3-.12-.56-.26-.8-.36a2.69,2.69,0,0,0-.73-.17,2.6,2.6,0,0,0-1.44.15,1.57,1.57,0,0,0-.76,1.06,2.3,2.3,0,0,0,0,1.42,2.78,2.78,0,0,0,.78,1.21A5.48,5.48,0,0,0,83.75,15a29.34,29.34,0,0,0,3.4.16c.58,0,1.16,0,1.75.08a7.23,7.23,0,0,1,1.76.35l-.07.34c-1.12,0-2.26.13-3.42.18a22.12,22.12,0,0,1-3.54-.07,8.35,8.35,0,0,1-1.81-.38,5,5,0,0,1-1.69-1,3.82,3.82,0,0,1-1-1.69,3.44,3.44,0,0,1,0-2,3,3,0,0,1,.45-.91,2.2,2.2,0,0,1,.84-.7,3.39,3.39,0,0,1,2-.18c.16,0,.28,0,.47.09a2.87,2.87,0,0,1,.47.18c.29.13.54.27.78.38a15.3,15.3,0,0,1,1.56.84,20.58,20.58,0,0,0,3.18,1.21l.8.32a4.43,4.43,0,0,0,.8.19,7.93,7.93,0,0,0,1.69,0Z"/><path class="cls-4" d="M90.26,12.54c1.17-.73,2.78-.48,4-.3a13.65,13.65,0,0,1,2.85.37c.92.34,1.54,1.32,2.33,1.92a7,7,0,0,0,3.45,1.22c.37.06.62.21,1,.28s.81.1,1.2.17a12.36,12.36,0,0,1,1.36,0c.84.22.85.77.62,1.5a8.43,8.43,0,0,1-.69,1.53l-.31.59a2.19,2.19,0,0,1-.82,1.11,4.33,4.33,0,0,1-1.28.7,6.34,6.34,0,0,1-1,.24c-.75.11-1.48.28-2.23.38a5.09,5.09,0,0,0-2.32.62,5.26,5.26,0,0,0-1.88,1.72,5.46,5.46,0,0,0-.23,2.28c0,2.15.44,4.39.53,6.53a9.78,9.78,0,0,1-1.52,5c-1.09,2.1-2.15,4.3-4.11,5.67-1.21.85-2.51,1.36-3.72,2.08-.54.32-1.44,1.06-1.52,1.71a23.49,23.49,0,0,1,3.14,0,4.64,4.64,0,0,1,3.2,3.38c.9,2.84-2.24,5-4.26,6-2.92,1.43-6.07,1.15-9.21,1.12-1.84,0-4.19-.1-5.37-1.76a11.14,11.14,0,0,1-2.07-8.7,45.59,45.59,0,0,1,4.28-11.82c2-3.65,5.34-6.21,7.42-9.78.86-1.47,1.27-3.22,2.14-4.73a9.65,9.65,0,0,0,.46-1.41,9.62,9.62,0,0,1,.84-1.27l.82-1.36a9.21,9.21,0,0,0,.45-.81c.58-1.3,1-3.05,2.2-4A1.44,1.44,0,0,1,90.26,12.54Z"/><path class="cls-1" d="M90.18,12.42a3.72,3.72,0,0,1,1.88-.51,11,11,0,0,1,1.91.14,16.83,16.83,0,0,0,1.88.17,3.93,3.93,0,0,1,1.87.52A11,11,0,0,1,99.13,14a4.91,4.91,0,0,0,1.53,1,7.91,7.91,0,0,0,1.79.49l.47.08a2.57,2.57,0,0,1,.48.11,3.43,3.43,0,0,0,.89.23l.93.12c.29,0,.6,0,.94,0a1.39,1.39,0,0,1,1,.37.8.8,0,0,1,.23.5,1.43,1.43,0,0,1,0,.51,7.33,7.33,0,0,1-.73,1.78c-.15.28-.3.55-.43.83a2.27,2.27,0,0,1-.56.82,4.75,4.75,0,0,1-1.68.95A7.54,7.54,0,0,1,103,22c-.31,0-.62.1-.93.16-.62.12-1.25.23-1.88.3a3.59,3.59,0,0,0-1.71.57A7.14,7.14,0,0,0,97,24.2a1.85,1.85,0,0,0-.42.76,3.82,3.82,0,0,0-.11.9c0,.62,0,1.26,0,1.88s.09,1.25.16,1.88c.14,1.25.3,2.5.37,3.78a8,8,0,0,1-.88,3.74c-.26.58-.56,1.15-.84,1.71s-.58,1.12-.89,1.68a13.2,13.2,0,0,1-2.27,3.11A16,16,0,0,1,89,45.82l-.8.48-.38.26-.32.26a3.47,3.47,0,0,0-.56.6c-.14.2-.23.45-.19.49h0L86,47.07c.72.07,1.57,0,2.52,0a4.23,4.23,0,0,1,2.69,1.16,6.14,6.14,0,0,1,1.52,2.35A4.48,4.48,0,0,1,93.08,52a3.92,3.92,0,0,1-.22,1.48,5.82,5.82,0,0,1-1.6,2.29,12.31,12.31,0,0,1-4.61,2.61,13.82,13.82,0,0,1-2.6.48c-1.74.15-3.45.06-5.13,0a16.77,16.77,0,0,1-2.61-.18,5.44,5.44,0,0,1-2.58-1.07,4.25,4.25,0,0,1-.93-1.08c-.25-.36-.47-.74-.69-1.13a12.42,12.42,0,0,1-1-2.44,11,11,0,0,1-.23-5.28A46.63,46.63,0,0,1,74.13,38c.36-.78.74-1.54,1.15-2.29a16.64,16.64,0,0,1,1.42-2.18c1-1.39,2.18-2.63,3.3-3.89a24,24,0,0,0,3-4,24.8,24.8,0,0,0,1-2.27c.17-.39.34-.78.53-1.17a6.36,6.36,0,0,1,.3-.58l.16-.28c0-.08.09-.16.13-.24.14-.34.18-.78.38-1.22a8.69,8.69,0,0,1,.76-1.07c.43-.68.92-1.42,1.31-2.13s.64-1.55,1-2.31A4.74,4.74,0,0,1,90.18,12.42Zm.16.24a4.39,4.39,0,0,0-1.46,1.92c-.35.76-.61,1.55-1,2.34-.2.4-.43.75-.63,1.12s-.41.72-.64,1.11a6.57,6.57,0,0,0-.67,1c-.15.33-.17.75-.33,1.2a1.66,1.66,0,0,1-.15.33l-.15.27-.26.56c-.16.38-.31.77-.46,1.16-.29.78-.58,1.59-1,2.38a22.94,22.94,0,0,1-3,4.21c-1.08,1.31-2.23,2.54-3.2,3.88a16.79,16.79,0,0,0-1.33,2.06c-.39.74-.76,1.49-1.11,2.24A46.27,46.27,0,0,0,71.93,48a9.64,9.64,0,0,0,.25,4.74,10.54,10.54,0,0,0,.93,2.22,9.91,9.91,0,0,0,.63,1,3.08,3.08,0,0,0,.71.83,4.42,4.42,0,0,0,2,.82,15,15,0,0,0,2.44.15,46.12,46.12,0,0,0,5-.06,10.7,10.7,0,0,0,4.56-1.4,10.42,10.42,0,0,0,1.93-1.39,4.71,4.71,0,0,0,1.28-1.81,2.73,2.73,0,0,0,.13-1,3,3,0,0,0-.26-1,4.81,4.81,0,0,0-1.23-1.84,3.41,3.41,0,0,0-.88-.55,2.92,2.92,0,0,0-1-.19c-.75,0-1.58.14-2.55.1l-.84,0,.15-.81h0a1.82,1.82,0,0,1,.3-.7,3.07,3.07,0,0,1,.4-.46,5.74,5.74,0,0,1,.84-.67c.15-.09.3-.18.46-.26l.45-.22.87-.4c.58-.26,1.15-.51,1.69-.8a8,8,0,0,0,1.53-1A11,11,0,0,0,94,40.3c.31-.54.6-1.1.9-1.66s.59-1.11.85-1.67a7.6,7.6,0,0,0,.86-3.56c0-1.25-.2-2.5-.33-3.76-.06-.63-.12-1.26-.15-1.89,0-.32,0-.64,0-1s0-.63,0-.95a4,4,0,0,1,.13-1,2.18,2.18,0,0,1,.49-.88,7.38,7.38,0,0,1,1.51-1.2,3.86,3.86,0,0,1,1.85-.6c.63-.07,1.24-.17,1.86-.28l.94-.16a5.69,5.69,0,0,0,.91-.2,4.51,4.51,0,0,0,1.59-.9,2,2,0,0,0,.49-.73c.13-.29.29-.57.44-.85a7,7,0,0,0,.7-1.71.86.86,0,0,0-.12-.78,1.25,1.25,0,0,0-.78-.29c-.29,0-.61.07-1,0l-1-.12-.48-.09c-.16,0-.31-.1-.46-.15a2.07,2.07,0,0,0-.43-.1l-.47-.07a8.7,8.7,0,0,1-1.86-.51,5.21,5.21,0,0,1-1.61-1.07A11.49,11.49,0,0,0,97.57,13a3.54,3.54,0,0,0-1.74-.47,17.63,17.63,0,0,1-1.9-.17,10.59,10.59,0,0,0-1.86-.14A3.56,3.56,0,0,0,90.34,12.66Z"/><path class="cls-1" d="M105.29,18.19l-.08-.08a1.18,1.18,0,0,1,.19-1.51,2.09,2.09,0,0,1,1.88-.42,1.22,1.22,0,0,1,.88,1.53c-.23.6-.94.65-1.47.71A1.75,1.75,0,0,1,105.29,18.19Z"/><path class="cls-4" d="M89.89,17.28a1.56,1.56,0,0,1-.71.68,9,9,0,0,1-1,.38,5.47,5.47,0,0,1-1.15.12,25.46,25.46,0,0,1-2.62-.06c-1.26-.06-2.67-.67-3.79-.75s-1.58.05-2.07,1a3.13,3.13,0,0,0,.12,3A5,5,0,0,0,83,23.39c1.83-.07,4.83-.42,6.29-1.71.41-.36.78-.82,1.17-1.21a5,5,0,0,0,1-2.09"/><path class="cls-1" d="M90,17.37a1.77,1.77,0,0,1-.73.73c-.3.12-.57.28-.9.4a7.58,7.58,0,0,1-2,.23c-.65,0-1.29,0-1.94,0a10.42,10.42,0,0,1-2-.32A11.47,11.47,0,0,0,80.68,18a3.45,3.45,0,0,0-.86,0,1,1,0,0,0-.6.34,2.51,2.51,0,0,0-.54,1.53,2.12,2.12,0,0,0,.4,1.5,4.24,4.24,0,0,0,3,1.43,5.39,5.39,0,0,0,.9,0q.47,0,.93-.06c.63-.06,1.25-.14,1.86-.25a7,7,0,0,0,3.26-1.35c.22-.2.44-.42.68-.65l.36-.33a2.83,2.83,0,0,0,.3-.3,8.61,8.61,0,0,0,.91-1.6l.27.09A5.33,5.33,0,0,1,91,20.36a3.61,3.61,0,0,1-.33.44l-.3.35c-.21.25-.41.5-.66.75a4.89,4.89,0,0,1-.84.66A7.33,7.33,0,0,1,88,23a11.16,11.16,0,0,1-1.93.56,14.8,14.8,0,0,1-2,.27c-.32,0-.65.05-1,.06a8.9,8.9,0,0,1-1,0,5.85,5.85,0,0,1-2-.55A4.71,4.71,0,0,1,78.37,22,2.52,2.52,0,0,1,77.88,21a3.65,3.65,0,0,1-.06-1.09,3.43,3.43,0,0,1,.8-2,1.78,1.78,0,0,1,1.06-.56,4.19,4.19,0,0,1,1.06,0,12.39,12.39,0,0,1,1.93.44,9.34,9.34,0,0,0,1.82.37c.65,0,1.28.1,1.92.12a8,8,0,0,0,1.85-.11c.28-.08.58-.22.88-.33a1.41,1.41,0,0,0,.64-.58Z"/><path class="cls-1" d="M79.88,37.87c-.42.79-.63,1.68-1,2.49-.06.13.38.49.35.54.4-.81.61-1.69,1-2.49.06-.12-.37-.5-.35-.54Z"/><path class="cls-1" d="M79.22,35a18,18,0,0,0-1.13,2.76c0,.15.37.46.35.54a17.39,17.39,0,0,1,1.13-2.76c.06-.12-.38-.49-.35-.54Z"/><path class="cls-1" d="M77,39.77a10.32,10.32,0,0,0-1.31,2.84c0,.18.36.42.35.54a10.3,10.3,0,0,1,1.31-2.84c.06-.13-.38-.48-.35-.54Z"/><path class="cls-1" d="M101,19.07a2,2,0,0,0,.85.88l.3.09.33.1c.22.05.44.1.66.13a4.29,4.29,0,0,0,1.33-.05l.72-.06a2,2,0,0,0,.63-.14l.17.26a2.15,2.15,0,0,1-.72.31l-.7.15a4.13,4.13,0,0,1-1.51.16,6,6,0,0,1-.74-.14l-.36-.11a3.2,3.2,0,0,1-.37-.15,1.88,1.88,0,0,1-.89-1.31Z"/><path class="cls-4" d="M99.41,12.76a3.67,3.67,0,0,0-3.35.16,1.39,1.39,0,0,0-.46,1.84,1.3,1.3,0,0,0,1.78.48c.21-.14,0-.06.24-.12-.1,0,.22,0,.26,0a3.48,3.48,0,0,1,.84.25,1.32,1.32,0,0,0,1.6-.94A1.38,1.38,0,0,0,99.41,12.76Z"/><path class="cls-2" d="M99.43,57.74a14.16,14.16,0,0,1-2.34,1c-.4.12-.79.19-1.18.32a19.42,19.42,0,0,1-2.63.59c-1.2.21-2.41.42-3.62.6-.75.12-1.51.2-2.27.28-1.13.12-2.37.29-3.52.33-2.38.08-4.8,0-7.18,0a27.77,27.77,0,0,1-3.77-.16c-1-.12-2-.3-2.93-.47a13.72,13.72,0,0,1-1.5-.41,5.17,5.17,0,0,1-1.35-.68,13.71,13.71,0,0,1-1.86-1.51,3.09,3.09,0,0,1-1-2,1.88,1.88,0,0,1,2.09-1.95c1.44,0,2.76.74,4.19.74a22,22,0,0,0,3.16-.23A21.5,21.5,0,0,1,76,53.8c.84,0,1.7.08,2.55.08,1.63,0,3.27.06,4.91,0a11.42,11.42,0,0,0,1.93-.31c.17,0,.35,0,.51,0a2,2,0,0,0,.2-.11c.16-.06.36-.09.52-.14a5.27,5.27,0,0,1,.57-.14c.13,0,.27,0,.4,0s.24-.07.36-.08c.3,0,.62,0,.93,0a10,10,0,0,0,1.63-.15,2.93,2.93,0,0,0,.77-.16,1,1,0,0,1,.38-.11.76.76,0,0,0,.15,0c.08,0,.09-.08.15-.11a2.35,2.35,0,0,1,.6-.09c.11,0,.18-.14.3-.15a2,2,0,0,1,.35,0h.48a1.13,1.13,0,0,1,.26,0,1.34,1.34,0,0,0,.27.07c.77.05,1.53-.09,2.3,0a6.18,6.18,0,0,1,1.84.56c1.07.42,2.26,1,2.49,1.79a4.72,4.72,0,0,0,.27.61,1.44,1.44,0,0,1,0,.62c0,.28.17.69-.28.88a4.88,4.88,0,0,0-1,.37C99.65,57.32,99.72,57.47,99.43,57.74Z"/><path class="cls-2" d="M104.46,61.2a2.2,2.2,0,0,0-.62.38,1.92,1.92,0,0,1-.35.23c-3.67,2.12-7.29,4.34-11.07,6.25a59.61,59.61,0,0,1-12,4.44c-2.36.61-4.69,1.35-7,2-1.11.33-6.25,2-6.49-.28C66.8,73,68.87,71.68,69.69,71c1.81-1.49,3.72-2.87,5.63-4.21,1.59-1.12,3.31-2,4.84-3.22,1.35-1.06,2.6-2.53,4.36-2.81"/><path class="cls-1" d="M104.51,61.28a3.31,3.31,0,0,0-.42.24l-.18.15a1.18,1.18,0,0,1-.22.17l-.85.51-1.7,1-3.4,2.07c-2.28,1.36-4.58,2.7-7,3.86-1.21.58-2.44,1.12-3.68,1.61s-2.5.95-3.79,1.33-2.59.69-3.85,1.07l-3.82,1.08-1.91.53c-.63.18-1.29.37-1.94.52a14.94,14.94,0,0,1-2,.34,4.86,4.86,0,0,1-2.15-.19,1.57,1.57,0,0,1-.9-.87,1.63,1.63,0,0,1,0-1.23,4.69,4.69,0,0,1,1.36-1.64c.52-.44,1.08-.81,1.58-1.22s1-.82,1.59-1.22c1.06-.8,2.15-1.56,3.24-2.32s2.25-1.44,3.31-2.24c.53-.39,1.09-.74,1.62-1.11A17.94,17.94,0,0,0,81,62.55a15.22,15.22,0,0,1,1.63-1.2,4.71,4.71,0,0,1,1.92-.68l0,.2A7.3,7.3,0,0,0,81.31,63a16.65,16.65,0,0,1-3.22,2.4c-.58.33-1.18.63-1.72,1s-1.09.74-1.62,1.13c-1.08.78-2.14,1.57-3.18,2.39-.52.41-1,.82-1.54,1.24s-1.06.82-1.54,1.25a4,4,0,0,0-1.14,1.4,1,1,0,0,0,0,.71.86.86,0,0,0,.52.44,4.23,4.23,0,0,0,1.79.09,14.06,14.06,0,0,0,1.89-.38c.63-.16,1.25-.36,1.89-.56l1.9-.59,3.83-1.14c1.27-.39,2.55-.7,3.8-1.1a63.17,63.17,0,0,0,7.43-2.66c2.42-1,4.76-2.28,7.09-3.55L101,63.08l1.74-1,.87-.48.19-.13.2-.16a3.29,3.29,0,0,1,.46-.23Z"/><path class="cls-2" d="M48.59,55.54c-1.43,1.07-3,1.94-4.34,3.12-.8.7-1.65,1.34-2.38,2.12-.27.3-1.64,1.77-.55,1.87a4.05,4.05,0,0,0,1.83-.42,52.91,52.91,0,0,1,6.67-1.91c2.3-.57,4.52-1.39,6.81-2a8,8,0,0,0,2.25-.72"/><path class="cls-1" d="M48.65,55.62c-.95.78-2,1.48-2.92,2.22A17,17,0,0,0,44.36,59c-.45.42-.91.82-1.34,1.24a10.18,10.18,0,0,0-1.17,1.3,2.47,2.47,0,0,0-.39.66c0,.05,0,.07,0,.09s0,0,0,0a.12.12,0,0,0,0-.08.13.13,0,0,0-.07-.08s0,0,0,0h.06a3.49,3.49,0,0,0,1.53-.35c.59-.22,1.18-.41,1.77-.59,1.19-.34,2.39-.61,3.59-.87s2.38-.5,3.55-.82L53.58,59l.88-.25a5.75,5.75,0,0,0,.86-.35,5.19,5.19,0,0,1,.87-.28c.29-.07.61-.14.91-.19a6.94,6.94,0,0,0,1.73-.41l.11.17a4.73,4.73,0,0,1-1.72.76c-.3.07-.57.17-.86.26a5.43,5.43,0,0,1-.88.23,6.88,6.88,0,0,0-.9.2l-.86.29L52,60c-1.16.4-2.36.72-3.53,1s-2.34.67-3.47,1.07c-.57.19-1.13.4-1.69.63a4.51,4.51,0,0,1-2,.45l-.18,0a.48.48,0,0,1-.21-.06,1.34,1.34,0,0,1-.23-.13.89.89,0,0,1-.21-.26,1,1,0,0,1-.09-.3,1.93,1.93,0,0,1,0-.24,1.46,1.46,0,0,1,.1-.35,4.1,4.1,0,0,1,.6-.88,13.1,13.1,0,0,1,1.39-1.31c.48-.39,1-.75,1.45-1.13a15.92,15.92,0,0,1,1.5-1.09c1-.68,2.1-1.27,3.11-1.95Z"/><path class="cls-1" d="M64.48,48.35a3.14,3.14,0,0,0-2.17,1.22A1.53,1.53,0,0,0,62,50.68a1.75,1.75,0,0,0,.62,1,8.73,8.73,0,0,0,4.67,2,20.73,20.73,0,0,0,2.62.22c.88,0,1.76,0,2.64,0,1.77,0,3.57-.15,5.37-.16a66.47,66.47,0,0,0,10.67-.45,22.5,22.5,0,0,0,2.58-.61,8.87,8.87,0,0,0,2.43-1c.37-.24.77-.44,1.15-.66s.75-.45,1.11-.7A18.07,18.07,0,0,0,98,48.66l.15.14a12,12,0,0,1-1.92,1.92,10.78,10.78,0,0,1-1.12.79,6.7,6.7,0,0,1-1.21.65c-.42.16-.85.31-1.27.48s-.84.34-1.27.48a24.06,24.06,0,0,1-2.62.69,66,66,0,0,1-10.75.91c-1.78,0-3.55.21-5.36.27a24.9,24.9,0,0,1-2.73-.09,19.23,19.23,0,0,1-2.71-.39,11.76,11.76,0,0,1-2.63-.87A7.24,7.24,0,0,1,62.25,52a2.16,2.16,0,0,1-.7-1.3A1.84,1.84,0,0,1,62,49.35a3.17,3.17,0,0,1,1.11-.86,3.32,3.32,0,0,1,1.34-.34Z"/><path class="cls-4" d="M72.72,53.34a3.05,3.05,0,0,1-.74-.08,5.25,5.25,0,0,1-2-.6c-.61-.39-1.22-.79-1.81-1.22a11.83,11.83,0,0,1-4.77-10.9,10.61,10.61,0,0,1,.72-2.72,19.2,19.2,0,0,1,2-3.66,9.82,9.82,0,0,1,1.7-2c.26-.21.91-.7,1.27-.59.72.21-.29,1.33-.49,1.63-1.06,1.55-1.83,2.06-2.54,4.23a13.07,13.07,0,0,0,.43,8.7A9.9,9.9,0,0,0,69,49.05a4.91,4.91,0,0,0,1.32.88,3.37,3.37,0,0,0,2.3.07"/><path class="cls-1" d="M72.72,53.59a3.62,3.62,0,0,1-.87-.08l-.8-.14a3.52,3.52,0,0,1-.84-.26,2.93,2.93,0,0,1-.39-.21l-.34-.22-1.38-.9c-.23-.16-.45-.34-.67-.5s-.42-.37-.63-.55A11.91,11.91,0,0,1,63.37,45,12.11,12.11,0,0,1,63,41.71a5.77,5.77,0,0,1,0-.84,8.17,8.17,0,0,1,.09-.85,12,12,0,0,1,.42-1.64,14.13,14.13,0,0,1,.67-1.53c.24-.5.52-1,.8-1.45A15.82,15.82,0,0,1,65.92,34a15.43,15.43,0,0,1,1-1.3,5.67,5.67,0,0,1,1.3-1.08,3,3,0,0,1,.4-.2.91.91,0,0,1,.51-.07.46.46,0,0,1,.14.05.35.35,0,0,1,.13.08.46.46,0,0,1,.17.29.9.9,0,0,1-.1.51A4,4,0,0,1,69,33l-.24.32-.24.33-1,1.3a8.69,8.69,0,0,0-1.37,2.86,13.63,13.63,0,0,0-.09,6.35A7.19,7.19,0,0,0,67.42,47a11.54,11.54,0,0,0,2.28,2.19,3,3,0,0,0,2.8.41l.22.71a3.83,3.83,0,0,1-1.78.1,3.72,3.72,0,0,1-1.6-.73A12.75,12.75,0,0,1,67,47.35a7.59,7.59,0,0,1-1.32-3.06A14,14,0,0,1,65.4,41a12.94,12.94,0,0,1,.44-3.27,8.93,8.93,0,0,1,1.45-3c.32-.44.67-.86,1-1.3l.23-.33q.12-.18.24-.33a4,4,0,0,0,.41-.66.54.54,0,0,0,.06-.28s0,0,0,0,0,0,0,0l-.09,0a1.23,1.23,0,0,0-.6.24,5,5,0,0,0-1.13,1.06,13.91,13.91,0,0,0-.94,1.3c-.3.44-.57.9-.83,1.36s-.48.95-.7,1.44-.43,1-.59,1.46a10.39,10.39,0,0,0-.5,3.08,11.23,11.23,0,0,0,.37,3.11A11.78,11.78,0,0,0,67.3,50.2c.19.17.38.36.58.53s.41.33.63.49l1.32.92.33.24a1.92,1.92,0,0,0,.31.18,3.13,3.13,0,0,0,.71.25L72,53a2.72,2.72,0,0,0,.75.11Z"/><path class="cls-4" d="M89.92,37.28c.24,1.45.32,2.86,1.22,4,1,1.3,1.94,2.65,2.84,4,1.3,2,2.63,4.48,4.31,5.87,1.42,1.19,3.45-.35,4.85-.54.34-1.56-1.6-2.3-2.26-2.17-1.4.28-4.87-5.95-6-7.82a7.39,7.39,0,0,1-.77-3.4,22.61,22.61,0,0,0-.12-4"/><path class="cls-1" d="M90,37.26a17.62,17.62,0,0,0,.61,2.6A4.49,4.49,0,0,0,91.25,41l.85,1c1.12,1.43,2.17,2.91,3.17,4.41a22.7,22.7,0,0,0,3.22,4.11c.08.06.16.15.22.19a2.14,2.14,0,0,0,.19.13,1.21,1.21,0,0,0,.43.14,2.65,2.65,0,0,0,1.09-.11c.39-.1.8-.25,1.23-.4a6.7,6.7,0,0,1,1.41-.4l-.47.44a1,1,0,0,0-.14-.82,1.93,1.93,0,0,0-.82-.61,2,2,0,0,0-.5-.15h-.23a1,1,0,0,1-.3,0,1.49,1.49,0,0,1-.25-.07,2.52,2.52,0,0,1-.67-.45,4.91,4.91,0,0,1-.51-.51,18.46,18.46,0,0,1-1.6-2.18q-.72-1.12-1.38-2.28l-1.33-2.29a5.39,5.39,0,0,1-.33-.59,4.34,4.34,0,0,1-.25-.65c-.14-.43-.31-.86-.42-1.3a4.32,4.32,0,0,1-.13-1.39l.08-1.31c0-.44,0-.88.06-1.31a11.24,11.24,0,0,0,0-1.3l.22-.06a10.68,10.68,0,0,1,.34,2.67c0,.45,0,.89,0,1.34s0,.82.07,1.25a5.46,5.46,0,0,0,.22,1.26,5,5,0,0,0,.24.58c.09.17.22.36.34.54l1.4,2.25c.47.74,1,1.47,1.47,2.18a17.75,17.75,0,0,0,1.63,2,4.2,4.2,0,0,0,.44.41,1.4,1.4,0,0,0,.44.26.11.11,0,0,0,.07,0s0,0,0,0,0,0,0,0h.42a2.7,2.7,0,0,1,.78.18,2.77,2.77,0,0,1,1.31.91,2.12,2.12,0,0,1,.4,1.69l-.08.36-.4.08a6.41,6.41,0,0,0-1.16.37,11.32,11.32,0,0,1-1.32.48,3.86,3.86,0,0,1-1.58.16,2.61,2.61,0,0,1-.85-.26,3,3,0,0,1-.37-.25,3.7,3.7,0,0,1-.29-.24,10.29,10.29,0,0,1-1.8-2.18c-.51-.77-1-1.56-1.41-2.34-.89-1.55-1.83-3.08-2.85-4.55l-.78-1.11A4.65,4.65,0,0,1,90.23,40a18.25,18.25,0,0,1-.43-2.7Z"/><path class="cls-5" d="M99.51,11l-.55.28a4.42,4.42,0,0,0-.6.34c-.17.12-.47.12-.57.35-.22.5.85.92,1.08,1.17a3.68,3.68,0,0,0,.39.4,17.49,17.49,0,0,0,2,1.57,3.11,3.11,0,0,0,1.14.4,7,7,0,0,0,.78.11,1.35,1.35,0,0,0,.45,0c.34-.11.12-.65,0-.86s-.22-.48-.34-.71-.27-.36-.38-.56a11.85,11.85,0,0,0-.89-1.33,3.26,3.26,0,0,0-1-.93c-.22-.1-.48-.19-.71-.27A1.12,1.12,0,0,0,99.51,11Z"/><path class="cls-1" d="M99.54,11l-.89.47-.21.13a.92.92,0,0,1-.24.13c-.16.05-.31.11-.34.23a.37.37,0,0,0,.14.36,2.72,2.72,0,0,0,.38.29l.44.28c.16.12.25.24.38.35.49.45,1,.88,1.55,1.28a5.7,5.7,0,0,0,.83.52,3.7,3.7,0,0,0,.94.23l.49.06a4,4,0,0,0,.47,0c.07,0,.08,0,.08,0a.28.28,0,0,0,0-.08,1.44,1.44,0,0,0-.12-.41c-.14-.28-.28-.61-.43-.87s-.2-.26-.3-.43l-.25-.43c-.18-.29-.35-.57-.54-.83a6.68,6.68,0,0,0-.64-.74,1.27,1.27,0,0,0-.39-.26c-.15-.07-.3-.13-.45-.21A1,1,0,0,0,99.54,11Zm-.06-.14a1.35,1.35,0,0,1,1.06,0L101,11a1.47,1.47,0,0,1,.47.27,7.38,7.38,0,0,1,.73.76,7.23,7.23,0,0,1,.6.85l.27.43a3.93,3.93,0,0,0,.29.4,10.43,10.43,0,0,1,.48.94,1.91,1.91,0,0,1,.14.57.53.53,0,0,1-.12.39.56.56,0,0,1-.38.17,4.15,4.15,0,0,1-.54-.05l-.51-.08a3.86,3.86,0,0,1-1-.31,6.15,6.15,0,0,1-.86-.58A19.83,19.83,0,0,1,99,13.45a3.84,3.84,0,0,0-.35-.35c-.13-.1-.27-.18-.42-.28a3.12,3.12,0,0,1-.41-.33.72.72,0,0,1-.16-.24.41.41,0,0,1,0-.31.43.43,0,0,1,.2-.24,1.3,1.3,0,0,1,.25-.1.81.81,0,0,0,.21-.1,1.64,1.64,0,0,1,.22-.14C98.87,11.19,99.18,11.06,99.48,10.9Z"/><path class="cls-4" d="M103.08,14.7a1.06,1.06,0,0,1-.43-.2,4.1,4.1,0,0,1-.75-.7c-.26-.29-.52-.58-.76-.89a10.18,10.18,0,0,1-.6-.95.31.31,0,0,1-.06-.13c0-.1,0-.11,0-.17a1.76,1.76,0,0,1,.37-.17,1.23,1.23,0,0,1,.42-.1c.34,0,.55.28.78.54l.46.56a13.46,13.46,0,0,1,.9,1.37,2.37,2.37,0,0,1,.29.72c0,.14-.13.14-.23.13h-.3Z"/><path class="cls-1" d="M103.07,14.77a2.17,2.17,0,0,1-1-.72c-.28-.3-.54-.62-.82-.94a3.45,3.45,0,0,1-.35-.5l-.34-.52a1.2,1.2,0,0,1-.15-.3.13.13,0,0,1,0-.14l.08-.06.15-.08a2.64,2.64,0,0,1,.6-.2.76.76,0,0,1,.63.23c.16.16.28.31.42.47.27.32.53.64.77,1a7.56,7.56,0,0,1,.66,1.06,1.88,1.88,0,0,1,.12.3.9.9,0,0,1,0,.19.26.26,0,0,1-.12.24.26.26,0,0,1-.22,0h-.15A1.19,1.19,0,0,1,103.07,14.77Zm0-.13a1,1,0,0,0,.29,0c.1,0,.25,0,.24,0s0,0,0,0a.41.41,0,0,0,0-.12l-.11-.26c-.17-.35-.39-.71-.6-1.06a8.5,8.5,0,0,0-.72-1c-.26-.3-.51-.71-.88-.66a2.6,2.6,0,0,0-.56.18l-.13.06,0,0h0a1.05,1.05,0,0,0,.13.26l.32.52a2.87,2.87,0,0,0,.36.5c.27.31.52.62.8.92A2,2,0,0,0,103.1,14.64Z"/><path class="cls-5" d="M88.4,22.64c.69.51,1.93,0,2.64-.25a6.81,6.81,0,0,0,2.42-1.58c.65-.65,1.09-1.55,1.92-2a4.88,4.88,0,0,1,.5.26,2.43,2.43,0,0,0,.68.21,4.15,4.15,0,0,0,1.36-.06,6.42,6.42,0,0,0,1.68-.45,3.66,3.66,0,0,0,2.07-2.1c.33-1.21-.36-2-1.14-2.84a11.94,11.94,0,0,0-1.24-1.13,4.08,4.08,0,0,0-3.16-.85,3.11,3.11,0,0,0-1.55.65,2.12,2.12,0,0,0-1,1.2,5.64,5.64,0,0,0-.21,1.65,2.26,2.26,0,0,0,.67,1.71l-.68,1a5.32,5.32,0,0,1-1.73,2c-.21.12-.43.22-.63.34"/><path class="cls-1" d="M88.47,22.56a1.22,1.22,0,0,0,.85.18,3.69,3.69,0,0,0,.92-.2A8.47,8.47,0,0,0,92,21.79a7,7,0,0,0,1.47-1.19c.42-.46.76-1,1.25-1.5a3,3,0,0,1,.39-.32l.11-.07.06,0,0,0h0a.22.22,0,0,1,.08,0h.07a1.25,1.25,0,0,1,.26.13l.21.11a1.29,1.29,0,0,0,.2.09,1.66,1.66,0,0,0,.42.12,4.82,4.82,0,0,0,.93,0,3.54,3.54,0,0,0,.45-.08l.49-.1a4.83,4.83,0,0,0,.89-.23,8.32,8.32,0,0,0,.81-.46,3.1,3.1,0,0,0,1.24-1.3,2,2,0,0,0,0-1.69,6,6,0,0,0-1.16-1.44,9.06,9.06,0,0,0-1.45-1.2A3.52,3.52,0,0,0,97,12.05a4.72,4.72,0,0,0-.92,0,2.51,2.51,0,0,0-.84.27,4.89,4.89,0,0,0-.77.51,1.78,1.78,0,0,0-.56.64,4,4,0,0,0-.23.87,5.79,5.79,0,0,0-.06.94,2.59,2.59,0,0,0,.13.87,1.45,1.45,0,0,0,.43.68l.2.14-.14.18-.67.92-.67.93a3.84,3.84,0,0,1-.82.84,10.22,10.22,0,0,1-1,.55L91,20.24a9.62,9.62,0,0,0,1-.59,3.5,3.5,0,0,0,.71-.82l.61-1,.64-.94.06.32a1.74,1.74,0,0,1-.63-.91,3.26,3.26,0,0,1-.16-1,8.55,8.55,0,0,1,.07-1,4.26,4.26,0,0,1,.27-1,2.29,2.29,0,0,1,.69-.81,5.43,5.43,0,0,1,.85-.56,2.88,2.88,0,0,1,1-.32,5.8,5.8,0,0,1,1,0,4.07,4.07,0,0,1,1.94.62,6.12,6.12,0,0,1,.79.61,9.24,9.24,0,0,1,.73.66A6.24,6.24,0,0,1,101.74,15a2.32,2.32,0,0,1,.23,1,2.41,2.41,0,0,1-.23,1,3.38,3.38,0,0,1-1.4,1.47l-.43.25a3.94,3.94,0,0,1-.46.23,5,5,0,0,1-1,.25l-.46.08a2.89,2.89,0,0,1-.5.08,4.86,4.86,0,0,1-1,0A2.13,2.13,0,0,1,96,19.3l-.24-.11-.21-.12-.18-.1h0l0,0h0l0,0-.1.06a3.17,3.17,0,0,0-.36.28c-.45.42-.8,1-1.25,1.46A6.84,6.84,0,0,1,92.12,22a8.65,8.65,0,0,1-1.81.75,4,4,0,0,1-1,.2,1.56,1.56,0,0,1-1-.24Z"/><path class="cls-4" d="M99.91,17.09a3.69,3.69,0,0,0,.58-.4,3.4,3.4,0,0,0,1.08-1.21,1.6,1.6,0,0,0-.26-1.53,3.55,3.55,0,0,0-2.69-1.86,3.46,3.46,0,0,0-2.15.67,3.48,3.48,0,0,0-1.53,1.55,2.57,2.57,0,0,0,.65,2.57,2.52,2.52,0,0,0,.63.7C97.25,18.16,98.82,17.74,99.91,17.09Z"/><path class="cls-1" d="M99.87,17a8.27,8.27,0,0,0,.95-.73,2.32,2.32,0,0,0,.69-.93,1.4,1.4,0,0,0-.14-1.09,4.62,4.62,0,0,0-.7-1,3.06,3.06,0,0,0-2-1.05,3.25,3.25,0,0,0-2.15.72,4.7,4.7,0,0,0-.91.73,2.2,2.2,0,0,0-.52.94,2.59,2.59,0,0,0,.67,2c.12.17.24.35.35.48a.92.92,0,0,0,.4.3,2.42,2.42,0,0,0,1.1.19A5.29,5.29,0,0,0,99.87,17Zm.08.14a5.44,5.44,0,0,1-2.32.86,2.73,2.73,0,0,1-1.29-.15,3.07,3.07,0,0,1-.31-.16,1.55,1.55,0,0,1-.27-.24c-.15-.17-.26-.33-.38-.49a4.32,4.32,0,0,1-.65-1.1,2.18,2.18,0,0,1-.13-1.34,2.52,2.52,0,0,1,.67-1.15,5.57,5.57,0,0,1,1-.76,5.46,5.46,0,0,1,1.14-.55,3,3,0,0,1,1.27-.14,3.38,3.38,0,0,1,2.17,1.2,5.19,5.19,0,0,1,.7,1,1.58,1.58,0,0,1,.14,1.26,2.61,2.61,0,0,1-.76,1A7.23,7.23,0,0,1,100,17.16Z"/><path class="cls-1" d="M97.91,16a.73.73,0,0,1-.58-.29A.65.65,0,0,1,97.4,15a.52.52,0,0,1,.55-.08c.61.17.39.51.36.65S98.31,16.05,97.91,16Z"/><path class="cls-1" d="M63.68,69.51c0,1.55-7.11,1.76-8,1.78a100.56,100.56,0,0,1-13.1-.52c-.16,0-.36.7-.4.69a75.4,75.4,0,0,0,17.89,0c1.57-.2,4.06-.54,4.05-2.62,0,.11-.41.44-.41.66Z"/><path class="cls-1" d="M20.87,52.84Q25.92,53,31,52.68c.19,0,.31-.69.4-.69q-5.05.32-10.11.16c-.17,0-.33.7-.4.69Z"/><path class="cls-1" d="M37.28,43.81h3.16c.18,0,.33-.7.4-.7H37.68c-.17,0-.32.7-.4.7Z"/><path class="cls-1" d="M28.52,44a10,10,0,0,0,3.27-.15c.21,0,.28-.67.41-.7a9.78,9.78,0,0,1-3.28.16c-.15,0-.36.7-.4.69Z"/><path class="cls-1" d="M32.15,70.08l-2.81,0c-.13,0-.34.45-.39.54s-.29.61-.28.61l2.81,0c.13,0,.34-.45.39-.54s.29-.61.28-.61Z"/><path class="cls-1" d="M22.49,71.07,21.85,71c-.11,0-.35.47-.39.54a4.55,4.55,0,0,0-.28.61l.65.11c.1,0,.34-.46.39-.54a3.47,3.47,0,0,0,.27-.61Z"/><path class="cls-1" d="M7.59,59.69a146.88,146.88,0,0,0,17.68-.28c.2,0,.31-.69.41-.7A145,145,0,0,1,8,59c-.17,0-.33.7-.4.7Z"/><path class="cls-2" d="M60,50.15a41.43,41.43,0,0,0-3.3-2.6c-1-.82-1.84-1.93-2.8-2.84S51.6,42.8,50.44,41.9a22.38,22.38,0,0,0-3.11-2.11c-.67-.36-1.58-.91-2.15-.09a2.07,2.07,0,0,0,0,1.77c.47,1.53,1.58,2.73,2.17,4.2a33.81,33.81,0,0,1,1.46,4.61c.07.26.08.49.17.76s.07.61.26.75"/><path class="cls-1" d="M59.88,50.22a38.09,38.09,0,0,0-3.21-2.32,29.58,29.58,0,0,1-2.94-2.72c-.47-.43-1-.84-1.5-1.24s-1-.77-1.57-1.19a33.69,33.69,0,0,0-3.15-2.3,4.8,4.8,0,0,0-1.57-.75.48.48,0,0,0-.24.06.77.77,0,0,0-.22.22,1.12,1.12,0,0,0-.13.71,3.67,3.67,0,0,0,.2.89,6,6,0,0,0,.35.88c.28.58.62,1.14.94,1.73A9.59,9.59,0,0,1,47.69,46c.12.31.23.62.33.94s.25.62.38.93a4.59,4.59,0,0,1,.31,1c.08.33.15.65.22,1,0,.16.06.32.09.5s0,.34.06.49,0,.73.18.89l-.12.16a.82.82,0,0,1-.29-.5,1.55,1.55,0,0,0-.07-.23s-.06-.15-.09-.23-.08-.34-.13-.49L48.42,50l-.3-.94a6.66,6.66,0,0,1-.25-1,5.86,5.86,0,0,0-.24-1c-.11-.31-.23-.62-.36-.92a10.14,10.14,0,0,0-.88-1.74,10.13,10.13,0,0,1-1.78-3.67,1.88,1.88,0,0,1,.18-1.21,1.55,1.55,0,0,1,.45-.51,1.37,1.37,0,0,1,.7-.22,2.82,2.82,0,0,1,1.15.3l.46.22.45.24a29.57,29.57,0,0,1,3.32,2.3c.53.4,1,.84,1.54,1.28s1,.91,1.46,1.41A27.59,27.59,0,0,0,57,47.48a35.15,35.15,0,0,1,3,2.6Z"/><path class="cls-1" d="M151.75,59.42A1.91,1.91,0,0,1,151,61a3,3,0,0,1-1.94.58,6,6,0,0,1-2.23-.31v-.55a5.52,5.52,0,0,0,2.19.35,2.44,2.44,0,0,0,1.55-.45,1.39,1.39,0,0,0,.56-1.18,1.29,1.29,0,0,0-.19-.74,1.6,1.6,0,0,0-.62-.54,7.2,7.2,0,0,0-1.26-.52,4.39,4.39,0,0,1-1.68-.9,1.78,1.78,0,0,1-.47-1.29,1.8,1.8,0,0,1,.69-1.46,2.86,2.86,0,0,1,1.79-.57,5.33,5.33,0,0,1,2.11.42l-.2.48a5,5,0,0,0-1.89-.41,2.2,2.2,0,0,0-1.4.41,1.35,1.35,0,0,0-.52,1.11,1.37,1.37,0,0,0,.16.72,1.45,1.45,0,0,0,.53.51,7.13,7.13,0,0,0,1.25.54,6.91,6.91,0,0,1,1.4.61,2.1,2.1,0,0,1,.68.68A2.06,2.06,0,0,1,151.75,59.42Z"/><path class="cls-1" d="M156.77,61.56a2.16,2.16,0,0,1-2-1h0l0,.46c0,.27,0,.56,0,.88v2.25h-.53l0-8.57h.45l.11.84h0a2.12,2.12,0,0,1,1.94-1,2.18,2.18,0,0,1,1.83.77,3.56,3.56,0,0,1,.63,2.28,3.46,3.46,0,0,1-.65,2.26A2.2,2.2,0,0,1,156.77,61.56Zm0-.48a1.64,1.64,0,0,0,1.4-.68,3.13,3.13,0,0,0,.49-1.88c0-1.74-.63-2.6-1.89-2.6a1.91,1.91,0,0,0-1.51.58,2.83,2.83,0,0,0-.48,1.85v.17a3.29,3.29,0,0,0,.47,2A1.82,1.82,0,0,0,156.76,61.08Z"/><path class="cls-1" d="M165.51,61.42l-.14-.93h0a2.9,2.9,0,0,1-.91.81,2.75,2.75,0,0,1-1.11.24A2,2,0,0,1,162,61.1a1.61,1.61,0,0,1-.48-1.24,1.5,1.5,0,0,1,.71-1.34,3.9,3.9,0,0,1,2.08-.51l1.12,0v-.39a2,2,0,0,0-.34-1.27,1.36,1.36,0,0,0-1.11-.42,3.59,3.59,0,0,0-1.69.46l-.21-.47a4.57,4.57,0,0,1,1.92-.46,2,2,0,0,1,1.46.5,2.22,2.22,0,0,1,.48,1.57l0,3.93Zm-2.17-.37a1.88,1.88,0,0,0,2-2v-.58l-1,0a3.86,3.86,0,0,0-1.77.39,1.1,1.1,0,0,0-.52,1,1.08,1.08,0,0,0,.34.86A1.37,1.37,0,0,0,163.34,61.05Z"/><path class="cls-1" d="M171.19,61.51a2.54,2.54,0,0,1-2-.79,3.2,3.2,0,0,1-.72-2.23,3.26,3.26,0,0,1,.73-2.28,2.62,2.62,0,0,1,2-.82,3.78,3.78,0,0,1,1.46.26l-.14.48a4.36,4.36,0,0,0-1.33-.26,2,2,0,0,0-1.64.68,2.9,2.9,0,0,0-.56,1.93,2.86,2.86,0,0,0,.57,1.87,1.9,1.9,0,0,0,1.56.67,3.89,3.89,0,0,0,1.5-.29v.5A3.45,3.45,0,0,1,171.19,61.51Z"/><path class="cls-1" d="M177.37,61.49a2.57,2.57,0,0,1-2-.79,3.15,3.15,0,0,1-.73-2.21,3.49,3.49,0,0,1,.69-2.27,2.27,2.27,0,0,1,1.87-.85,2,2,0,0,1,1.65.72,3,3,0,0,1,.6,2v.44H175.2a2.78,2.78,0,0,0,.57,1.85,2,2,0,0,0,1.59.64,5.64,5.64,0,0,0,.89-.07,5.24,5.24,0,0,0,1-.31v.49a5.15,5.15,0,0,1-.92.3A5.28,5.28,0,0,1,177.37,61.49Zm-.18-5.65a1.8,1.8,0,0,0-1.37.57,2.65,2.65,0,0,0-.59,1.62h3.64a2.54,2.54,0,0,0-.45-1.6A1.45,1.45,0,0,0,177.19,55.84Z"/><path class="cls-1" d="M185.77,59.82a1.42,1.42,0,0,1-.6,1.22,3,3,0,0,1-1.71.43,4.14,4.14,0,0,1-1.88-.36v-.58a4.22,4.22,0,0,0,1.88.44,2.43,2.43,0,0,0,1.33-.3.88.88,0,0,0,.45-.77.92.92,0,0,0-.37-.75,3.87,3.87,0,0,0-1.18-.59,7,7,0,0,1-1.25-.55,1.59,1.59,0,0,1-.54-.52,1.41,1.41,0,0,1-.19-.71,1.23,1.23,0,0,1,.56-1.05,2.83,2.83,0,0,1,1.55-.39,4.69,4.69,0,0,1,1.82.36l-.2.49a4.26,4.26,0,0,0-1.62-.36,2.19,2.19,0,0,0-1.14.25.73.73,0,0,0-.42.66.92.92,0,0,0,.33.74,4.91,4.91,0,0,0,1.28.61,6.68,6.68,0,0,1,1.17.51,1.71,1.71,0,0,1,.54.53A1.19,1.19,0,0,1,185.77,59.82Z"/><path class="cls-1" d="M194,61a5.44,5.44,0,0,0,.89-.09v.43a2.75,2.75,0,0,1-.9.13A1.46,1.46,0,0,1,192.8,61a1.93,1.93,0,0,1-.38-1.31V55.9h-.88v-.32l.88-.24.26-1.34H193v1.43h1.73v.47H193v3.74a1.67,1.67,0,0,0,.24,1A.87.87,0,0,0,194,61Z"/><path class="cls-1" d="M201.31,61.3V57.47a1.91,1.91,0,0,0-.38-1.29,1.52,1.52,0,0,0-1.17-.4,2,2,0,0,0-1.54.54,2.5,2.5,0,0,0-.49,1.73v3.26h-.54l0-8.44h.53v2.68l0,.76h0a1.94,1.94,0,0,1,.83-.78,2.9,2.9,0,0,1,1.25-.24c1.34,0,2,.71,2,2.15V61.3Z"/><path class="cls-1" d="M208.3,61.28l-.13-.94h0a2.8,2.8,0,0,1-.91.81,2.39,2.39,0,0,1-1.11.24,1.89,1.89,0,0,1-1.35-.44,1.55,1.55,0,0,1-.49-1.23,1.53,1.53,0,0,1,.72-1.34,3.86,3.86,0,0,1,2.07-.51l1.13,0v-.39a2,2,0,0,0-.35-1.27,1.32,1.32,0,0,0-1.1-.43,3.77,3.77,0,0,0-1.7.47l-.2-.47a4.36,4.36,0,0,1,1.92-.46,1.86,1.86,0,0,1,1.45.5,2.25,2.25,0,0,1,.49,1.57v3.92Zm-2.17-.38a1.87,1.87,0,0,0,2-2v-.59l-1,0a3.83,3.83,0,0,0-1.77.4,1.25,1.25,0,0,0-.19,1.88A1.42,1.42,0,0,0,206.13,60.9Z"/><path class="cls-1" d="M213.2,60.89a3.94,3.94,0,0,0,.89-.09v.43a2.74,2.74,0,0,1-.9.14A1.47,1.47,0,0,1,212,61a2,2,0,0,1-.38-1.31V55.83h-.87v-.31l.87-.25.27-1.33h.27v1.43h1.73v.46h-1.73v3.73a1.71,1.71,0,0,0,.24,1A.91.91,0,0,0,213.2,60.89Z"/><path class="cls-1" d="M225.19,61.22l-1.3-3.94c-.09-.27-.2-.66-.33-1.18h0l-.11.4-.25.79-1.3,3.94h-.53l-1.71-5.89h.58l1,3.41c.22.85.37,1.47.44,1.87h0c.21-.85.36-1.41.46-1.69l1.2-3.61h.49L225,58.91q.39,1.28.48,1.68h0c0-.23.17-.86.42-1.89l.89-3.39h.55l-1.58,5.91Z"/><path class="cls-1" d="M234.4,58.23a3.36,3.36,0,0,1-.7,2.26,2.43,2.43,0,0,1-1.93.82,2.63,2.63,0,0,1-1.37-.37,2.5,2.5,0,0,1-.91-1.08,4,4,0,0,1-.32-1.61,3.32,3.32,0,0,1,.7-2.26,2.42,2.42,0,0,1,1.92-.81,2.39,2.39,0,0,1,1.91.81A3.43,3.43,0,0,1,234.4,58.23Zm-4.66,0a3,3,0,0,0,.54,1.89,1.82,1.82,0,0,0,1.51.68,1.81,1.81,0,0,0,1.51-.69,3,3,0,0,0,.53-1.9,2.9,2.9,0,0,0-.55-1.89,1.82,1.82,0,0,0-1.51-.67,1.8,1.8,0,0,0-1.51.68A3,3,0,0,0,229.74,58.25Z"/><path class="cls-1" d="M239.34,55.16a4.75,4.75,0,0,1,.81.07l-.1.52a3.31,3.31,0,0,0-.77-.09,1.5,1.5,0,0,0-1.24.64,2.57,2.57,0,0,0-.47,1.62v3.26H237l0-5.9h.46l.05,1.06h0a2.53,2.53,0,0,1,.78-.92A1.82,1.82,0,0,1,239.34,55.16Z"/><path class="cls-1" d="M243,58.57l3-3.32h.65l-2.31,2.52,2.53,3.38h-.64l-2.26-3-1,.88v2.1h-.54l0-8.45H243V57l0,1.62Z"/><path class="cls-1" d="M255.14,55.68h-1.39l0,5.43h-.54l0-5.43h-1.1v-.31l1.1-.21v-.45a2.52,2.52,0,0,1,.39-1.6,1.57,1.57,0,0,1,1.3-.51,3.28,3.28,0,0,1,1,.15l-.12.46a2.91,2.91,0,0,0-.87-.13,1,1,0,0,0-.89.37,2.22,2.22,0,0,0-.26,1.21v.55h1.39Z"/><path class="cls-1" d="M262.11,58.14a3.31,3.31,0,0,1-.7,2.25,2.38,2.38,0,0,1-1.93.82,2.54,2.54,0,0,1-1.37-.37,2.4,2.4,0,0,1-.91-1.07,4.07,4.07,0,0,1-.32-1.62,3.31,3.31,0,0,1,.7-2.25,2.67,2.67,0,0,1,3.83,0A3.41,3.41,0,0,1,262.11,58.14Zm-4.66,0a3,3,0,0,0,.54,1.9,1.79,1.79,0,0,0,1.51.67A1.81,1.81,0,0,0,261,60a3,3,0,0,0,.53-1.9,2.86,2.86,0,0,0-.55-1.89,1.82,1.82,0,0,0-1.52-.67,1.78,1.78,0,0,0-1.5.67A3,3,0,0,0,257.45,58.15Z"/><path class="cls-1" d="M267.05,55.06a4.82,4.82,0,0,1,.81.08l-.1.51a3.31,3.31,0,0,0-.77-.09,1.49,1.49,0,0,0-1.24.65,2.57,2.57,0,0,0-.47,1.62v3.25h-.54l0-5.91h.46l.05,1.07h0a2.45,2.45,0,0,1,.78-.92A1.74,1.74,0,0,1,267.05,55.06Z"/><path class="cls-1" d="M273.18,55.16h.55L275,58.46c.39,1,.63,1.7.73,2.06h0c.16-.47.4-1.17.74-2.1l1.24-3.28h.55L275.66,62a5.72,5.72,0,0,1-.53,1.14,1.52,1.52,0,0,1-.51.44,1.64,1.64,0,0,1-.7.15,2.28,2.28,0,0,1-.69-.12v-.46a2.88,2.88,0,0,0,.68.08.92.92,0,0,0,.49-.13,1.27,1.27,0,0,0,.38-.41,5.51,5.51,0,0,0,.39-.87c.15-.39.24-.65.29-.77Z"/><path class="cls-1" d="M285.17,58.06a3.3,3.3,0,0,1-.69,2.26,2.71,2.71,0,0,1-3.3.44,2.35,2.35,0,0,1-.91-1.07,3.85,3.85,0,0,1-.32-1.61,3.37,3.37,0,0,1,.69-2.26,2.41,2.41,0,0,1,1.92-.81,2.38,2.38,0,0,1,1.91.81A3.3,3.3,0,0,1,285.17,58.06Zm-4.65,0a3,3,0,0,0,.54,1.9,1.82,1.82,0,0,0,1.51.68,1.85,1.85,0,0,0,1.51-.69,3,3,0,0,0,.53-1.9,3,3,0,0,0-.55-1.89,1.82,1.82,0,0,0-1.52-.67,1.79,1.79,0,0,0-1.5.68A2.93,2.93,0,0,0,280.52,58.07Z"/><path class="cls-1" d="M288.28,55.11v3.82a1.86,1.86,0,0,0,.38,1.29,1.51,1.51,0,0,0,1.16.4,2,2,0,0,0,1.55-.54,2.48,2.48,0,0,0,.49-1.73V55.09h.53l0,5.9H292l-.1-.81h0a2.2,2.2,0,0,1-2,.93c-1.34,0-2-.71-2-2.15V55.11Z"/></svg>