<svg xmlns="http://www.w3.org/2000/svg" width="257.754" height="60.276" viewBox="0 0 257.754 60.276">
  <g id="Group_33" data-name="Group 33" transform="translate(-160.283 -187.671)">
    <g id="Group_32" data-name="Group 32" transform="translate(160.283 187.671)">
      <g id="Group_1" data-name="Group 1" transform="translate(124.908 12.551)">
        <path id="Path_1" data-name="Path 1" d="M511.326,235.371l7.892-.026.036,10.767a22.874,22.874,0,0,1-3.716.907,26.33,26.33,0,0,1-3.85.277q-4.871.016-7.52-2.857t-2.668-8.125q-.018-5.178,2.95-8.114t8.19-2.954a15.977,15.977,0,0,1,6.371,1.269l-1.222,2.923a12.393,12.393,0,0,0-5.226-1.185,7.034,7.034,0,0,0-5.42,2.175,8.345,8.345,0,0,0-1.975,5.9,8.8,8.8,0,0,0,1.817,5.972,6.514,6.514,0,0,0,5.178,2.029,17,17,0,0,0,3.636-.438l-.019-5.53-2.431-.04-2.013-2.888Z" transform="translate(-501.501 -224.042)" fill="#fff" stroke="#fff" stroke-width="0.7"/>
        <path id="Path_2" data-name="Path 2" d="M569.142,247.756a8.854,8.854,0,0,1-2.018,6.212,7.305,7.305,0,0,1-5.669,2.249,7.776,7.776,0,0,1-4.023-1.013,6.777,6.777,0,0,1-2.694-2.939,10.04,10.04,0,0,1-.954-4.456,8.8,8.8,0,0,1,2-6.168,7.342,7.342,0,0,1,5.7-2.234,7.148,7.148,0,0,1,5.582,2.247A8.754,8.754,0,0,1,569.142,247.756Zm-11.808.04q.019,5.618,4.17,5.6,4.107-.014,4.088-5.632-.019-5.559-4.156-5.546a3.526,3.526,0,0,0-3.141,1.448A7.31,7.31,0,0,0,557.334,247.8Z" transform="translate(-534.645 -233.019)" fill="#fff" stroke="#fff" stroke-width="0.7"/>
        <path id="Path_3" data-name="Path 3" d="M605.213,247.229l-1.5.005-.073-21.446,11.75-.04-1.405,1.379-8.843.035.031,9.095,9.681-.033-1.405,1.393-8.271.033Z" transform="translate(-566.253 -224.361)" fill="#fff" stroke="#fff" stroke-width="0.7"/>
        <path id="Path_4" data-name="Path 4" d="M644.581,244.778l-1.452.005-.077-22.825,1.452,1.405Z" transform="translate(-591.235 -221.958)" fill="#fff" stroke="#fff" stroke-width="0.7"/>
        <path id="Path_5" data-name="Path 5" d="M668.4,248.043a9.032,9.032,0,0,1-1.872,6.1,6.532,6.532,0,0,1-5.215,2.211,6.761,6.761,0,0,1-3.7-1,6.472,6.472,0,0,1-2.46-2.9,10.561,10.561,0,0,1-.865-4.368A8.973,8.973,0,0,1,656.165,242a6.519,6.519,0,0,1,5.186-2.2,6.4,6.4,0,0,1,5.163,2.19A9.067,9.067,0,0,1,668.4,248.043Zm-12.586.042a8.116,8.116,0,0,0,1.462,5.122,5.453,5.453,0,0,0,8.17-.028,8.113,8.113,0,0,0,1.428-5.132,7.987,7.987,0,0,0-1.477-5.115,4.959,4.959,0,0,0-4.106-1.805,4.886,4.886,0,0,0-4.065,1.825A8.1,8.1,0,0,0,655.818,248.085Z" transform="translate(-598.361 -233.274)" fill="#fff" stroke="#fff" stroke-width="0.7"/>
        <path id="Path_6" data-name="Path 6" d="M707.576,255.958l-.375-2.522h-.117a7.581,7.581,0,0,1-2.464,2.187,6.6,6.6,0,0,1-3,.648,5.188,5.188,0,0,1-3.657-1.19,4.3,4.3,0,0,1-1.317-3.325,4.109,4.109,0,0,1,1.931-3.63,10.571,10.571,0,0,1,5.621-1.383l3.036-.1,0-1.056a5.423,5.423,0,0,0-.936-3.429,3.584,3.584,0,0,0-2.982-1.149,9.96,9.96,0,0,0-4.587,1.248l-.547-1.26a12.155,12.155,0,0,1,5.189-1.25A5.177,5.177,0,0,1,707.3,241.1a5.994,5.994,0,0,1,1.313,4.25l.036,10.606Zm-5.871-1.007a5.077,5.077,0,0,0,5.482-5.534l-.005-1.57-2.787.127a10.534,10.534,0,0,0-4.786,1.065,3.022,3.022,0,0,0-1.421,2.77,2.973,2.973,0,0,0,.925,2.322A3.726,3.726,0,0,0,701.7,254.951Z" transform="translate(-625.211 -233.236)" fill="#fff" stroke="#fff" stroke-width="0.7"/>
        <path id="Path_7" data-name="Path 7" d="M740.376,248.673a10.9,10.9,0,0,0,2.405-.243l0,1.174a7.711,7.711,0,0,1-2.434.36,3.963,3.963,0,0,1-3.121-1.119,5.241,5.241,0,0,1-1.017-3.546l-.035-10.3-2.362.008,0-.851,2.359-.668.005-3.611,1.464,1.408.013,2.448,4.679-.016,0,1.261L737.66,235l.034,10.092a4.6,4.6,0,0,0,.655,2.711A2.343,2.343,0,0,0,740.376,248.673Z" transform="translate(-648.772 -226.979)" fill="#fff" stroke="#fff" stroke-width="0.7"/>
        <path id="Path_8" data-name="Path 8" d="M767.607,256a6.947,6.947,0,0,1-5.427-2.124,8.607,8.607,0,0,1-1.964-5.993,9.356,9.356,0,0,1,1.857-6.116,6.2,6.2,0,0,1,5.053-2.312,5.465,5.465,0,0,1,4.451,1.95,8.119,8.119,0,0,1,1.646,5.334l0,1.174-11.485.039a7.542,7.542,0,0,0,1.55,5.012,5.4,5.4,0,0,0,4.311,1.716,13.327,13.327,0,0,0,2.4-.2,14.539,14.539,0,0,0,2.616-.83l0,1.32a11.645,11.645,0,0,1-2.491.808A13.875,13.875,0,0,1,767.607,256Zm-.477-15.254a4.777,4.777,0,0,0-3.691,1.531,7.161,7.161,0,0,0-1.614,4.384l9.857-.033a6.955,6.955,0,0,0-1.217-4.331A3.968,3.968,0,0,0,767.13,240.743Z" transform="translate(-665.509 -233.048)" fill="#fff" stroke="#fff" stroke-width="0.7"/>
        <path id="Path_9" data-name="Path 9" d="M811.6,239.306a12.484,12.484,0,0,1,2.172.2l-.274,1.394a8.492,8.492,0,0,0-2.069-.242,4.017,4.017,0,0,0-3.339,1.742,7.056,7.056,0,0,0-1.291,4.376l.03,8.8-1.452.005-.054-15.945,1.379,1.406.01,1.464h.1a6.764,6.764,0,0,1,2.089-2.479A4.914,4.914,0,0,1,811.6,239.306Z" transform="translate(-694.101 -232.955)" fill="#fff" stroke="#fff" stroke-width="0.7"/>
        <path id="Path_10" data-name="Path 10" d="M843.131,251.3a3.791,3.791,0,0,1-1.617,3.3,7.926,7.926,0,0,1-4.617,1.167,11.019,11.019,0,0,1-5.079-.966l-.005-1.569a11.2,11.2,0,0,0,5.08,1.186,6.692,6.692,0,0,0,3.584-.8,2.385,2.385,0,0,0,1.218-2.094,2.548,2.548,0,0,0-.982-2.021,10.726,10.726,0,0,0-3.21-1.6,18.357,18.357,0,0,1-3.365-1.478,4.638,4.638,0,0,1-1.464-1.4,3.535,3.535,0,0,1-.5-1.912,3.27,3.27,0,0,1,1.494-2.836,7.3,7.3,0,0,1,4.2-1.055,12.582,12.582,0,0,1,4.9.951l-.539,1.322a11.489,11.489,0,0,0-4.359-.953,6.31,6.31,0,0,0-3.093.656,1.982,1.982,0,0,0-1.139,1.794,2.477,2.477,0,0,0,.894,1.992,12.376,12.376,0,0,0,3.475,1.661,17.037,17.037,0,0,1,3.144,1.39,4.564,4.564,0,0,1,1.479,1.41A3.466,3.466,0,0,1,843.131,251.3Z" transform="translate(-710.897 -232.9)" fill="#fff" stroke="#fff" stroke-width="0.7"/>
      </g>
      <g id="Group_30" data-name="Group 30">
        <path id="Path_11" data-name="Path 11" d="M326.708,282.221a12.147,12.147,0,0,0-4.707-.5,8.342,8.342,0,0,1-4.506-1.1c-.576-.353-1.056-.816-1.6-1.2a21.377,21.377,0,0,0-3.776-1.964c-1.709-.75-3.621-.634-5.443-.661-1.318-.019-2.635-.052-3.953-.069-3.689-.049-7.38-.058-11.069-.058l-6.383-.006a.68.68,0,0,1-.525.325c-1.575.223-3.157.349-4.74.443a94.778,94.778,0,0,1-9.483,1.036.744.744,0,0,1-.619-.243c-1.877.254-3.761.456-5.656.565a.776.776,0,0,1-.481-.116,12.881,12.881,0,0,0-1.3.775,2.126,2.126,0,0,0-.892,1.3q-1.426.135-2.848.309a11.829,11.829,0,0,0-2.336.422,1.822,1.822,0,0,0-1.935-.052,2.038,2.038,0,0,0-.948,1.766,1.791,1.791,0,0,0,.784,2.2q1.866,1.142,3.75,2.254a13.757,13.757,0,0,0,2.515,1.294,1.5,1.5,0,0,0,.175.1,52.236,52.236,0,0,0,9.148,3.542,73.9,73.9,0,0,0,9.791,1.834c3.4.47,6.793.955,10.193,1.4a58.141,58.141,0,0,0,9.188.643q.852-.024,1.695-.094a26.215,26.215,0,0,0,12.435-1.97,18.875,18.875,0,0,0,3.082-.938c4.354-1.765,7.9-4.876,11.282-8.063A1.92,1.92,0,0,0,326.708,282.221Z" transform="translate(-219.31 -244.08)" fill="#52c0d2"/>
        <g id="Group_2" data-name="Group 2" transform="translate(107.968 27.546)">
          <path id="Path_12" data-name="Path 12" d="M461.765,280.521a35.4,35.4,0,0,0-.929-4.686c-.5-1.652-1.678-10.185-4.745-8.082-.764.524-.571,1.214-.519,1.975.163,2.409-.239,4.845-.039,7.274.122,1.483.316,2.959.563,4.425a21.713,21.713,0,0,0,.97,4.148,4.165,4.165,0,0,0,1.83,2.5C462.278,289.557,462.316,284.636,461.765,280.521Z" transform="translate(-455.383 -265.774)" fill="#ffca5a"/>
          <path id="Path_13" data-name="Path 13" d="M458.1,281.922c-.063-.018-.1-.046-.134-.053a.463.463,0,0,1-.154-.063c-.053-.041-.077-.072-.108-.094s-.071-.051-.112-.086a5.439,5.439,0,0,0-.407-.378,3.764,3.764,0,0,1-.711-.9,6.418,6.418,0,0,1-.708-2.152c-.127-.741-.183-1.483-.253-2.211s-.181-1.465-.216-2.209c-.086-1.485-.083-2.98-.064-4.425a17.7,17.7,0,0,1,.422-4.5,4.971,4.971,0,0,1,.473-1.107,2.561,2.561,0,0,1,.4-.527,1.136,1.136,0,0,1,.354-.235.9.9,0,0,1,.475-.055,1.458,1.458,0,0,1,.663.327,3.906,3.906,0,0,1,.444.422,4.257,4.257,0,0,1,.653,1,12.543,12.543,0,0,1,.8,4.427l.193,2.195.1,1.1c.038.366.122.728.182,1.093a8.5,8.5,0,0,1,.1,1.1c.019.369.025.739.03,1.109a20.382,20.382,0,0,1-.107,2.217l-.18,0c-.065-.734-.116-1.464-.188-2.193l-.1-1.093c-.034-.364-.081-.727-.079-1.1s.008-.737-.028-1.1l-.128-1.095-.26-2.194c-.082-.734-.157-1.46-.29-2.167a7.056,7.056,0,0,0-.646-2,3.543,3.543,0,0,0-.584-.813,1.634,1.634,0,0,0-.686-.474c-.052,0-.07.006-.161.092a1.884,1.884,0,0,0-.243.367,4.16,4.16,0,0,0-.346.935,17.42,17.42,0,0,0-.292,4.269c.007.747-.049,1.484-.086,2.213s-.067,1.459-.067,2.185.052,1.439.079,2.192.035,1.468.113,2.184a6.273,6.273,0,0,0,.528,2.059,3.463,3.463,0,0,0,.594.871,5.441,5.441,0,0,1,.373.4l.1.09c.04.036.074.079.093.094a.312.312,0,0,0,.1.044c.057.025.093.051.118.059Z" transform="translate(-455.224 -262.921)" fill="#040505"/>
          <path id="Path_14" data-name="Path 14" d="M464.037,293.39a23.513,23.513,0,0,1,.616,3.861l.1.965a8.732,8.732,0,0,1,.072.976,12.426,12.426,0,0,1-.139,2,8.669,8.669,0,0,1-.569,1.946,3.354,3.354,0,0,1-1.32,1.611,2.246,2.246,0,0,1-1.018.308,7.908,7.908,0,0,1-1.056-.109,1.167,1.167,0,0,1-.485-.214,2.833,2.833,0,0,1-.407-.329,2.639,2.639,0,0,1-.58-.839l.147-.1a6.959,6.959,0,0,0,.738.573c.126.083.255.159.384.228a2.465,2.465,0,0,1,.384.21,1.078,1.078,0,0,0,.841.181,1.789,1.789,0,0,0,.8-.3,2.725,2.725,0,0,0,.935-1.455,8.719,8.719,0,0,0,.333-1.814,15.87,15.87,0,0,0,.038-1.87c-.01-.632.039-1.286.056-1.932a28.281,28.281,0,0,0-.044-3.852Z" transform="translate(-457.776 -282.236)" fill="#040505"/>
          <path id="Path_15" data-name="Path 15" d="M460.451,275.613a2.5,2.5,0,0,0-.443,1.391,4.62,4.62,0,0,0,.2,1.5,6.027,6.027,0,0,1,.332,2.389l-.02.213a1.638,1.638,0,0,1-.039.254c-.033.1-.048.077-.063.1a.5.5,0,0,0,0,.117.329.329,0,0,1-.054.186l-.3-.111c-.025-.032-.038.031-.089-.085a1.006,1.006,0,0,1-.047-.294.545.545,0,0,1-.042-.143l-.039-.184-.2-.743a5.77,5.77,0,0,1-.222-1.584,8.884,8.884,0,0,1,.068-1.674,3.147,3.147,0,0,1,.708-1.532Z" transform="translate(-457.881 -270.839)" fill="#040505"/>
        </g>
        <path id="Path_16" data-name="Path 16" d="M268.888,276.949c6.762-.912,13.436-2.463,20.277-2.987,3.419-.238,6.846-.2,10.26-.13l2.56.05c.858.024,1.69.015,2.544-.02a30.432,30.432,0,0,1,5.174.057,9.024,9.024,0,0,1,2.568.7,11.472,11.472,0,0,1,2.213,1.443c1.342,1.064,2.629,2.176,4.207,2.442,1.587.305,3.3.052,5.091.3a7.04,7.04,0,0,1,1.331.326,6.622,6.622,0,0,1,.648.269,2.192,2.192,0,0,1,.646.5,2.063,2.063,0,0,1,.418.719,1.632,1.632,0,0,1,.084.438c.006.142,0,.236,0,.356a7.309,7.309,0,0,1-.149,1.36,8.7,8.7,0,0,1-2.76,4.562,18.528,18.528,0,0,1-4.37,2.891,39.462,39.462,0,0,1-4.8,1.95,46.358,46.358,0,0,1-4.984,1.373,61.117,61.117,0,0,1-10.228,1.233c-1.714.075-3.429.09-5.139.084s-3.423-.037-5.134-.109a82.227,82.227,0,0,1-10.226-1.018c-1.69-.279-3.373-.648-5.031-1.052l-4.983-1.194a65.237,65.237,0,0,1-9.792-3.09,36.844,36.844,0,0,1-4.6-2.308c-.377-.206-.737-.44-1.1-.664l-.547-.339a4.925,4.925,0,0,1-.535-.4,4.309,4.309,0,0,0-.467-.387c-.045-.028-.095-.057-.15-.1a.641.641,0,0,1-.086-.077c-.023-.023-.044-.048-.065-.073a2.159,2.159,0,0,1-.2-.3c-.056-.1-.1-.172-.159-.26l-.177-.281a5.237,5.237,0,0,1-.313-.594,2.858,2.858,0,0,1-.279-1.365,2.133,2.133,0,0,1,.586-1.311,3.588,3.588,0,0,1,1.123-.795,7.919,7.919,0,0,1,1.244-.459,32.574,32.574,0,0,1,5.1-.772c1.7-.208,3.407-.341,5.109-.469S267.2,277.163,268.888,276.949Zm.023.179c-1.693.232-3.4.392-5.095.563s-3.395.362-5.075.631a38.611,38.611,0,0,0-5,.89,4.95,4.95,0,0,0-2.1,1.123,1.57,1.57,0,0,0-.452.974,2.482,2.482,0,0,0,.2,1.126,4.813,4.813,0,0,0,.263.548l.154.267c.057.093.118.2.164.293a1.812,1.812,0,0,0,.146.242l.04.048a.221.221,0,0,0,.032.031c.029.024.07.052.114.081a4.424,4.424,0,0,1,.5.445,3.418,3.418,0,0,0,.48.378l.537.342c.359.225.712.465,1.084.669a36.376,36.376,0,0,0,4.569,2.248,64.721,64.721,0,0,0,9.75,2.989l4.989,1.153c1.663.391,3.32.741,5,1a80.264,80.264,0,0,0,10.158.913c6.8.154,13.67.1,20.287-1.393a45.469,45.469,0,0,0,4.881-1.369,38.56,38.56,0,0,0,4.676-1.925,17.621,17.621,0,0,0,4.135-2.758,7.758,7.758,0,0,0,2.455-4.061,6.8,6.8,0,0,0,.127-1.182c0-.093.007-.213,0-.284a.654.654,0,0,0-.036-.189,1.1,1.1,0,0,0-.221-.38,1.226,1.226,0,0,0-.355-.282,5.78,5.78,0,0,0-.533-.224,6.223,6.223,0,0,0-1.151-.288c-1.6-.263-3.337-.032-5.118-.39a6.8,6.8,0,0,1-2.481-1.083c-.738-.5-1.394-1.065-2.049-1.6a10.733,10.733,0,0,0-2.043-1.384,8.324,8.324,0,0,0-2.345-.673,29.845,29.845,0,0,0-5.055-.131c-.853.021-1.729.016-2.577-.021l-2.56-.09c-3.411-.122-6.82-.212-10.221-.027a100.672,100.672,0,0,0-10.15,1.221C275.67,276.115,272.3,276.7,268.912,277.128Z" transform="translate(-217.559 -242.258)" fill="#040505"/>
        <path id="Path_17" data-name="Path 17" d="M325.875,277.77a2.8,2.8,0,0,0-1.463-.608,43.1,43.1,0,0,0-4.665,0,47.66,47.66,0,0,0-6.5.511c-1.523.209-3.024.562-4.548.762-4.04.529-8.351-.125-12.128,1.775-.652.328-1.325.7-1.482,1.5a1.623,1.623,0,0,0,.886,1.742,6.3,6.3,0,0,0,1.781.447,16.434,16.434,0,0,0,2.409.4c2.406.1,4.821-.011,7.228.045,2.126.05,4.249.272,6.376.185a36.729,36.729,0,0,0,7.08-.862,9.77,9.77,0,0,0,2.135-.465c.446-.221.869-.487,1.317-.7a4.7,4.7,0,0,0,2.247-1.7A2.45,2.45,0,0,0,325.875,277.77Z" transform="translate(-245.723 -244.355)" fill="#ffca5a"/>
        <g id="Group_3" data-name="Group 3" transform="translate(79.529 20.842)">
          <path id="Path_18" data-name="Path 18" d="M378.5,244.753c.3.513.929.863,1.321,1.321.543.635,1.05,1.3,1.611,1.918a15.287,15.287,0,0,1,1.582,1.931,10.473,10.473,0,0,0,1.441,2.061c1.257,1.187,4.118.1,4.605,2.192.137.585.094,1.358-.564,1.585-.8.275-1.691-.245-2.486-.314a3.918,3.918,0,0,1-2.211-.738,6.357,6.357,0,0,1-1.8-1.781,14.376,14.376,0,0,0-2.3-2.785c-.687-.749-1.3-1.568-1.929-2.365" transform="translate(-377.679 -244.699)" fill="#fff"/>
          <path id="Path_19" data-name="Path 19" d="M378.443,244.606c.342.5.946.777,1.412,1.285l1.3,1.414c.419.481.895.914,1.332,1.408a11.271,11.271,0,0,1,1.185,1.589,9.15,9.15,0,0,0,.534.746,3.866,3.866,0,0,0,.288.32c.049.05.1.1.152.142s.1.064.142.1a1.969,1.969,0,0,0,.708.258c.271.059.571.094.885.14a5.645,5.645,0,0,1,2.062.547,2.2,2.2,0,0,1,.841.961,4.149,4.149,0,0,1,.168.581,2.718,2.718,0,0,1,.039.592,1.955,1.955,0,0,1-.136.634,1.394,1.394,0,0,1-.443.586,1.781,1.781,0,0,1-1.248.29c-.763-.087-1.334-.4-1.885-.453a4.674,4.674,0,0,1-1.974-.615,3.386,3.386,0,0,1-.42-.315l-.368-.307a8.789,8.789,0,0,1-.736-.669,3.8,3.8,0,0,1-.622-.823,7.167,7.167,0,0,0-.485-.8c-.179-.254-.376-.5-.582-.738a5.071,5.071,0,0,0-.713-.64,4.718,4.718,0,0,1-.681-.694c-.213-.249-.41-.508-.6-.769-.382-.525-.728-1.067-1.059-1.622l.165-.131c.466.451.9.928,1.328,1.4l.646.7a6.515,6.515,0,0,1,.634.71,7.767,7.767,0,0,0,.6.764c.223.238.439.485.64.748a7.652,7.652,0,0,1,.549.824,3.212,3.212,0,0,0,.565.684,8.3,8.3,0,0,0,.726.581l.389.287a2.689,2.689,0,0,0,.364.241,3.96,3.96,0,0,0,1.7.4c.734.048,1.353.322,1.876.332a.879.879,0,0,0,.583-.143.647.647,0,0,0,.152-.492,1.731,1.731,0,0,0-.04-.366c-.024-.129-.081-.224-.112-.339a1.189,1.189,0,0,0-.425-.45,4.794,4.794,0,0,0-1.651-.363,6.144,6.144,0,0,1-1.01-.187,3,3,0,0,1-1.044-.5c-.079-.066-.164-.134-.235-.2s-.126-.133-.184-.2a4.8,4.8,0,0,1-.323-.423,10.064,10.064,0,0,1-.518-.864,10.434,10.434,0,0,0-.987-1.582c-.374-.5-.813-.972-1.2-1.493l-1.178-1.533c-.352-.483-.951-.827-1.294-1.434Z" transform="translate(-377.536 -244.606)" fill="#040505"/>
        </g>
        <g id="Group_11" data-name="Group 11" transform="translate(57.011)">
          <g id="Group_4" data-name="Group 4" transform="translate(7.511)">
            <path id="Path_20" data-name="Path 20" d="M349.259,191.531a5.648,5.648,0,0,1-2.536-.205c-.937-.371-1.923-.575-2.855-.942-.686-.27-1.293-.72-1.983-1a7.048,7.048,0,0,0-1.217-.507c-1.038-.2-2.133-.16-2.635.953a2.706,2.706,0,0,0-.161,1.86c1.074,3.692,7.442,2.138,10,2.665" transform="translate(-337.323 -188.376)" fill="#fff"/>
            <path id="Path_21" data-name="Path 21" d="M348.5,190.983a7.363,7.363,0,0,1-1.609.073,4.218,4.218,0,0,1-.818-.134c-.287-.084-.5-.173-.751-.246-.492-.15-1-.275-1.509-.422-.255-.073-.512-.152-.767-.243a5.929,5.929,0,0,1-.756-.334,12.985,12.985,0,0,0-1.379-.68c-.268-.11-.5-.234-.718-.324a2.127,2.127,0,0,0-.658-.157,2.34,2.34,0,0,0-1.3.136,1.429,1.429,0,0,0-.692.957,2.155,2.155,0,0,0,.008,1.283,2.494,2.494,0,0,0,.705,1.093,4.933,4.933,0,0,0,2.628.978,26.62,26.62,0,0,0,3.072.147c.522.011,1.049.029,1.58.075a6.555,6.555,0,0,1,1.592.309l-.064.31c-1.015-.015-2.046.121-3.1.164a20.915,20.915,0,0,1-3.2-.06,7.372,7.372,0,0,1-1.629-.349,4.4,4.4,0,0,1-1.527-.862,3.4,3.4,0,0,1-.943-1.535,3.059,3.059,0,0,1,.03-1.81,2.844,2.844,0,0,1,.409-.83,2,2,0,0,1,.758-.627,3.065,3.065,0,0,1,1.779-.168c.147.023.26.043.426.084a2.831,2.831,0,0,1,.428.158c.261.119.488.252.7.347a13.584,13.584,0,0,1,1.412.758,18.777,18.777,0,0,0,2.877,1.1c.244.085.517.206.727.284a3.723,3.723,0,0,0,.72.172,7.023,7.023,0,0,0,1.526.039Z" transform="translate(-336.542 -187.671)" fill="#040505"/>
          </g>
          <g id="Group_5" data-name="Group 5" transform="translate(0 2.478)">
            <path id="Path_22" data-name="Path 22" d="M334.609,195.232c1.053-.661,2.517-.432,3.66-.266a12.333,12.333,0,0,1,2.573.331c.832.307,1.4,1.194,2.109,1.733a6.3,6.3,0,0,0,3.125,1.111c.328.047.556.186.873.248.35.068.733.094,1.084.151a11.647,11.647,0,0,1,1.233.015c.756.2.767.7.56,1.354a7.712,7.712,0,0,1-.625,1.385c-.1.177-.195.352-.28.536a1.968,1.968,0,0,1-.743,1,4.051,4.051,0,0,1-1.155.635,6.082,6.082,0,0,1-.921.219c-.677.1-1.343.245-2.022.34a4.73,4.73,0,0,0-3.793,2.114,5.058,5.058,0,0,0-.21,2.063c.014,1.942.4,3.968.48,5.9a8.9,8.9,0,0,1-1.375,4.48c-.989,1.9-1.94,3.886-3.715,5.125-1.092.762-2.269,1.222-3.362,1.875-.493.294-1.306.962-1.375,1.548a22.292,22.292,0,0,1,2.837.019,4.2,4.2,0,0,1,2.894,3.05c.813,2.572-2.023,4.522-3.848,5.418-2.642,1.3-5.488,1.043-8.332,1.016-1.657-.016-3.783-.1-4.848-1.593a10.062,10.062,0,0,1-1.878-7.862,41.373,41.373,0,0,1,3.873-10.691c1.771-3.3,4.831-5.614,6.709-8.838.776-1.332,1.142-2.916,1.936-4.276a8.646,8.646,0,0,0,.411-1.279,9.367,9.367,0,0,1,.762-1.148l.741-1.23a7.057,7.057,0,0,0,.4-.734c.531-1.174.956-2.75,1.988-3.587A2.452,2.452,0,0,1,334.609,195.232Z" transform="translate(-316.878 -194.661)" fill="#fff"/>
            <path id="Path_23" data-name="Path 23" d="M333.686,194.9a3.419,3.419,0,0,1,1.7-.457,9.778,9.778,0,0,1,1.727.128,15.683,15.683,0,0,0,1.7.151,3.476,3.476,0,0,1,1.689.475,9.87,9.87,0,0,1,1.278,1.168,4.5,4.5,0,0,0,1.382.917,7.118,7.118,0,0,0,1.619.445l.42.066a2.152,2.152,0,0,1,.436.106,3.118,3.118,0,0,0,.806.2l.843.109c.26.025.541-.042.847-.034a1.3,1.3,0,0,1,.863.335.749.749,0,0,1,.2.45,1.46,1.46,0,0,1-.034.462,6.514,6.514,0,0,1-.663,1.609c-.134.254-.268.494-.39.754a2.011,2.011,0,0,1-.5.74,4.313,4.313,0,0,1-1.523.86,5.791,5.791,0,0,1-.85.195c-.28.042-.559.093-.839.145-.558.107-1.132.206-1.7.272a3.223,3.223,0,0,0-1.548.517,6.41,6.41,0,0,0-1.307,1.039,1.762,1.762,0,0,0-.378.69,3.494,3.494,0,0,0-.1.812c0,.559.008,1.138.037,1.7s.086,1.131.147,1.7c.122,1.132.274,2.267.33,3.418a7.3,7.3,0,0,1-.788,3.385c-.239.526-.508,1.034-.767,1.54s-.523,1.017-.8,1.521a12.019,12.019,0,0,1-2.052,2.818,14.517,14.517,0,0,1-2.891,1.968c-.245.143-.488.287-.723.435-.118.073-.231.154-.343.232s-.2.152-.3.237a3.037,3.037,0,0,0-.5.546c-.132.18-.212.4-.172.437h0l-.626-.753c.651.059,1.425-.049,2.275,0a3.828,3.828,0,0,1,1.316.3,3.948,3.948,0,0,1,1.118.743,5.679,5.679,0,0,1,1.38,2.126,4.084,4.084,0,0,1,.295,1.282,3.484,3.484,0,0,1-.2,1.336,5.277,5.277,0,0,1-1.446,2.077,11.186,11.186,0,0,1-4.17,2.356,12,12,0,0,1-2.349.433,44.567,44.567,0,0,1-4.631.041,15,15,0,0,1-2.363-.163,4.981,4.981,0,0,1-2.334-.966,3.959,3.959,0,0,1-.843-.979c-.223-.329-.426-.671-.617-1.021a11.148,11.148,0,0,1-.913-2.21,9.754,9.754,0,0,1-.21-4.769,42.245,42.245,0,0,1,2.941-8.765c.326-.7.669-1.391,1.04-2.073a16.833,16.833,0,0,1,1.283-1.969c.932-1.251,1.979-2.377,2.985-3.511a21.757,21.757,0,0,0,2.683-3.592,22.257,22.257,0,0,0,.929-2.053c.149-.354.3-.709.475-1.06q.13-.263.273-.521l.149-.255a1.669,1.669,0,0,0,.111-.218c.13-.3.161-.7.35-1.1a6.915,6.915,0,0,1,.681-.966c.392-.618.836-1.285,1.188-1.925.324-.666.574-1.4.914-2.094A4.3,4.3,0,0,1,333.686,194.9Zm.138.22a4.04,4.04,0,0,0-1.32,1.737c-.319.683-.548,1.4-.877,2.119-.176.358-.383.676-.569,1.009s-.369.654-.582,1a6.984,6.984,0,0,0-.6.923c-.133.3-.149.681-.3,1.09a2.186,2.186,0,0,1-.137.3l-.13.245q-.125.248-.238.5c-.15.342-.286.692-.418,1.048a22.814,22.814,0,0,1-.87,2.154,20.957,20.957,0,0,1-2.677,3.809c-.982,1.179-2.016,2.295-2.9,3.5a15.979,15.979,0,0,0-1.2,1.871c-.354.661-.686,1.34-1,2.025a41.3,41.3,0,0,0-2.819,8.579,8.757,8.757,0,0,0,.218,4.283,10.3,10.3,0,0,0,.842,2.01c.176.319.364.633.57.935a2.928,2.928,0,0,0,.641.75,3.972,3.972,0,0,0,1.859.741,14.017,14.017,0,0,0,2.2.139,43.869,43.869,0,0,0,4.52-.054,9.7,9.7,0,0,0,4.125-1.265,9.4,9.4,0,0,0,1.749-1.262,4.218,4.218,0,0,0,1.151-1.639,2.364,2.364,0,0,0,.125-.914,2.961,2.961,0,0,0-.238-.933,4.362,4.362,0,0,0-1.115-1.663,2.745,2.745,0,0,0-.793-.5,2.551,2.551,0,0,0-.91-.176c-.676-.02-1.424.124-2.3.1l-.762-.025.136-.728v-.005a1.671,1.671,0,0,1,.274-.632,2.607,2.607,0,0,1,.355-.417,5.1,5.1,0,0,1,.767-.6,4.74,4.74,0,0,1,.415-.239l.4-.194c.264-.128.528-.248.791-.365.526-.232,1.043-.457,1.532-.722a7.065,7.065,0,0,0,1.375-.911,9.791,9.791,0,0,0,2.048-2.631c.283-.489.545-.994.81-1.5s.534-1.006.772-1.518a6.935,6.935,0,0,0,.782-3.211c-.046-1.13-.187-2.262-.3-3.4-.057-.569-.107-1.141-.134-1.715-.014-.286-.02-.576-.022-.861s-.011-.571,0-.862a3.778,3.778,0,0,1,.118-.881,2.058,2.058,0,0,1,.443-.8,6.623,6.623,0,0,1,1.37-1.078,3.488,3.488,0,0,1,1.666-.548c.57-.062,1.122-.153,1.686-.256.281-.05.564-.1.849-.139a5.626,5.626,0,0,0,.819-.181,4.026,4.026,0,0,0,1.436-.812,1.78,1.78,0,0,0,.447-.667c.12-.257.262-.516.395-.767a6.328,6.328,0,0,0,.637-1.547.749.749,0,0,0-.111-.7,1.079,1.079,0,0,0-.7-.262c-.265-.009-.55.06-.861.035l-.854-.109a4.225,4.225,0,0,1-.435-.076c-.148-.037-.285-.09-.417-.134a1.876,1.876,0,0,0-.394-.1l-.426-.066a7.335,7.335,0,0,1-1.674-.459,4.745,4.745,0,0,1-1.456-.963,9.794,9.794,0,0,0-1.244-1.138,3.241,3.241,0,0,0-1.572-.432,15.815,15.815,0,0,1-1.712-.15,9.533,9.533,0,0,0-1.682-.123A3.17,3.17,0,0,0,333.824,195.121Z" transform="translate(-316.024 -194.44)" fill="#040505"/>
          </g>
          <path id="Path_24" data-name="Path 24" d="M401.133,206.73a.915.915,0,0,1-.073-.076,1.066,1.066,0,0,1,.179-1.364,1.869,1.869,0,0,1,1.695-.376,1.1,1.1,0,0,1,.794,1.382c-.2.54-.849.584-1.327.637A1.61,1.61,0,0,1,401.133,206.73Z" transform="translate(-369.817 -198.569)" fill="#040505"/>
          <g id="Group_6" data-name="Group 6" transform="translate(6.47 7.269)">
            <path id="Path_25" data-name="Path 25" d="M345.306,207.726a1.427,1.427,0,0,1-.65.606,6.969,6.969,0,0,1-.883.344,5.129,5.129,0,0,1-1.038.115c-.79.031-1.58-.015-2.368-.055-1.14-.057-2.418-.612-3.429-.678-.906-.059-1.426.045-1.868.9a2.823,2.823,0,0,0,.1,2.737,4.514,4.514,0,0,0,3.881,1.548c1.659-.062,4.368-.381,5.686-1.545.371-.327.707-.742,1.063-1.092a4.655,4.655,0,0,0,.921-1.895" transform="translate(-334.376 -207.654)" fill="#fff"/>
            <path id="Path_26" data-name="Path 26" d="M344.732,207.673a1.6,1.6,0,0,1-.662.663c-.266.115-.514.258-.815.36a6.672,6.672,0,0,1-1.783.211c-.589.012-1.174-.006-1.754-.021a8.59,8.59,0,0,1-1.772-.291,10.661,10.661,0,0,0-1.652-.323,3.16,3.16,0,0,0-.778.026.88.88,0,0,0-.54.31,2.329,2.329,0,0,0-.488,1.382,1.94,1.94,0,0,0,.362,1.356,3.872,3.872,0,0,0,2.757,1.3,6.676,6.676,0,0,0,.813.009q.424-.02.847-.059c.563-.055,1.125-.122,1.675-.226a6.258,6.258,0,0,0,2.949-1.219c.2-.179.4-.377.611-.583.1-.1.216-.205.331-.306A2.035,2.035,0,0,0,345.1,210a8.034,8.034,0,0,0,.828-1.449l.24.08a4.9,4.9,0,0,1-.52,1.75,2.781,2.781,0,0,1-.3.4l-.271.323c-.187.219-.372.452-.594.674a4.459,4.459,0,0,1-.763.6,6.356,6.356,0,0,1-.847.409,10.334,10.334,0,0,1-1.751.5,14.228,14.228,0,0,1-1.774.247q-.445.036-.891.051a7.574,7.574,0,0,1-.927-.022,5.14,5.14,0,0,1-1.827-.49,4.3,4.3,0,0,1-1.5-1.2,2.226,2.226,0,0,1-.439-.953,3.347,3.347,0,0,1-.057-.981,3.059,3.059,0,0,1,.726-1.816,1.607,1.607,0,0,1,.955-.512,3.771,3.771,0,0,1,.958-.005,11.058,11.058,0,0,1,1.751.4,8.478,8.478,0,0,0,1.647.335c.58.043,1.155.089,1.727.1a7.033,7.033,0,0,0,1.675-.1c.256-.067.525-.2.8-.294a1.333,1.333,0,0,0,.577-.523Z" transform="translate(-333.698 -207.528)" fill="#040505"/>
          </g>
          <g id="Group_7" data-name="Group 7" transform="translate(7.412 25.948)">
            <path id="Path_27" data-name="Path 27" d="M337.207,258.555c-.381.72-.57,1.522-.928,2.252-.057.117.339.445.315.493.359-.73.547-1.532.928-2.252.059-.111-.337-.45-.315-.493Z" transform="translate(-336.273 -258.555)" fill="#040505"/>
          </g>
          <g id="Group_8" data-name="Group 8" transform="translate(6.722 23.384)">
            <path id="Path_28" data-name="Path 28" d="M335.413,251.551a16.372,16.372,0,0,0-1.022,2.493c-.047.14.34.418.315.493a16.39,16.39,0,0,1,1.022-2.493c.059-.111-.338-.451-.315-.493Z" transform="translate(-334.387 -251.551)" fill="#040505"/>
          </g>
          <g id="Group_9" data-name="Group 9" transform="translate(4.518 27.668)">
            <path id="Path_29" data-name="Path 29" d="M329.555,263.253a9.468,9.468,0,0,0-1.186,2.566c-.023.168.33.383.315.493a9.47,9.47,0,0,1,1.186-2.566c.056-.122-.34-.439-.315-.493Z" transform="translate(-328.367 -263.253)" fill="#040505"/>
          </g>
          <g id="Group_10" data-name="Group 10" transform="translate(27.207 8.959)">
            <path id="Path_30" data-name="Path 30" d="M390.613,212.144a1.844,1.844,0,0,0,.773.793c.065.029.168.053.271.084s.2.057.3.082a5.156,5.156,0,0,0,.6.123,3.958,3.958,0,0,0,1.205-.044c.237-.031.442-.035.65-.056a1.823,1.823,0,0,0,.567-.13l.155.237a1.763,1.763,0,0,1-.653.279c-.217.058-.443.09-.631.134a3.528,3.528,0,0,1-1.364.147,4.682,4.682,0,0,1-.673-.129c-.109-.03-.216-.063-.322-.1a2.414,2.414,0,0,1-.338-.136,1.675,1.675,0,0,1-.8-1.185Z" transform="translate(-390.348 -212.144)" fill="#040505"/>
          </g>
        </g>
        <path id="Path_31" data-name="Path 31" d="M380.814,196.043a3.3,3.3,0,0,0-3.023.146,1.257,1.257,0,0,0-.422,1.658,1.171,1.171,0,0,0,1.61.435c.188-.122,0-.053.218-.108-.088.023.2-.014.236-.011a2.825,2.825,0,0,1,.756.218,1.183,1.183,0,0,0,1.448-.846A1.243,1.243,0,0,0,380.814,196.043Z" transform="translate(-297.802 -192.792)" fill="#fff"/>
        <path id="Path_32" data-name="Path 32" d="M332.138,299.111a13.357,13.357,0,0,1-2.112.887c-.362.1-.716.172-1.071.283a18.571,18.571,0,0,1-2.371.538c-1.086.187-2.181.379-3.278.545-.678.1-1.36.178-2.051.25-1.021.106-2.14.262-3.181.3-2.151.074-4.339,0-6.5.009a25.915,25.915,0,0,1-3.4-.141c-.9-.116-1.772-.277-2.649-.431a10.766,10.766,0,0,1-1.359-.369,4.689,4.689,0,0,1-1.222-.616A12.447,12.447,0,0,1,301.264,299a2.762,2.762,0,0,1-.863-1.845,1.7,1.7,0,0,1,1.886-1.759c1.3.023,2.5.672,3.789.669a20.567,20.567,0,0,0,2.857-.205,19.465,19.465,0,0,1,2-.31c.761-.021,1.537.071,2.3.071,1.477,0,2.963.052,4.439,0a9.936,9.936,0,0,0,1.752-.284c.149-.032.309,0,.453-.041.068-.02.121-.072.186-.1.145-.057.32-.09.465-.13a4.014,4.014,0,0,1,.519-.126c.12-.016.24.008.359,0s.215-.058.328-.067c.273-.024.562,0,.836,0a8.852,8.852,0,0,0,1.474-.132,2.764,2.764,0,0,0,.7-.147.865.865,0,0,1,.344-.094.653.653,0,0,0,.138.008c.067-.019.08-.076.132-.1a2.094,2.094,0,0,1,.54-.083c.106-.023.17-.12.279-.135a2.4,2.4,0,0,1,.312,0h.433a1.4,1.4,0,0,1,.241,0,1.623,1.623,0,0,0,.24.067c.7.037,1.38-.085,2.076-.04a5.433,5.433,0,0,1,1.666.511c.967.371,2.044.927,2.258,1.611a4.288,4.288,0,0,0,.24.555,1.31,1.31,0,0,1,.026.56c0,.254.153.621-.25.8a4.275,4.275,0,0,0-.881.337C332.343,298.734,332.4,298.869,332.138,299.111Z" transform="translate(-249.108 -255.193)" fill="#52c0d2"/>
        <g id="Group_12" data-name="Group 12" transform="translate(53.331 46.567)">
          <path id="Path_33" data-name="Path 33" d="M340.763,315.508a1.929,1.929,0,0,0-.562.35,1.586,1.586,0,0,1-.32.21c-3.317,1.915-6.586,3.923-10,5.648a53.657,53.657,0,0,1-10.827,4.011c-2.134.552-4.237,1.218-6.351,1.845-1.008.3-5.65,1.822-5.87-.254-.122-1.152,1.755-2.334,2.494-2.941,1.642-1.346,3.361-2.588,5.095-3.8,1.434-1.006,2.99-1.825,4.372-2.911,1.221-.959,2.349-2.288,3.945-2.537" transform="translate(-306.511 -315.035)" fill="#52c0d2"/>
          <path id="Path_34" data-name="Path 34" d="M340.262,315.434a3.166,3.166,0,0,0-.38.214,1.384,1.384,0,0,0-.16.138,1.144,1.144,0,0,1-.2.147l-.771.465-1.535.938-3.075,1.873c-2.062,1.233-4.143,2.442-6.324,3.493q-1.633.788-3.322,1.455c-1.123.45-2.263.857-3.423,1.2s-2.342.626-3.483.964l-3.453.978-1.731.476c-.57.161-1.161.333-1.755.47a13.542,13.542,0,0,1-1.823.31,4.37,4.37,0,0,1-1.941-.173,1.427,1.427,0,0,1-.82-.781,1.5,1.5,0,0,1,.019-1.112,4.169,4.169,0,0,1,1.233-1.485c.472-.4.976-.734,1.431-1.1q.707-.563,1.431-1.1c.965-.72,1.946-1.414,2.934-2.1s2.031-1.308,2.988-2.024c.483-.354.984-.671,1.472-1.006a17.433,17.433,0,0,0,1.4-1.092,13.046,13.046,0,0,1,1.468-1.086,4.2,4.2,0,0,1,1.737-.614l.028.178a6.647,6.647,0,0,0-2.919,1.883,14.974,14.974,0,0,1-2.914,2.165c-.525.3-1.06.569-1.556.9s-.979.677-1.465,1.03c-.97.7-1.931,1.417-2.871,2.154q-.705.554-1.394,1.126c-.468.4-.959.739-1.393,1.126a3.581,3.581,0,0,0-1.026,1.27.854.854,0,0,0,0,.64.76.76,0,0,0,.466.4,3.768,3.768,0,0,0,1.617.079,12.824,12.824,0,0,0,1.712-.343c.571-.148,1.127-.328,1.707-.51l1.724-.528,3.457-1.03c1.154-.358,2.3-.637,3.439-1a59.47,59.47,0,0,0,6.718-2.4c2.182-.947,4.3-2.069,6.4-3.217l3.143-1.749,1.572-.878.787-.435a.932.932,0,0,0,.168-.113,1.661,1.661,0,0,1,.187-.148,3.34,3.34,0,0,1,.411-.212Z" transform="translate(-305.969 -314.881)" fill="#040505"/>
        </g>
        <g id="Group_13" data-name="Group 13" transform="translate(29.639 41.856)">
          <path id="Path_35" data-name="Path 35" d="M249.51,302.208c-1.294.966-2.7,1.751-3.919,2.821-.722.633-1.49,1.215-2.149,1.92-.251.269-1.487,1.6-.5,1.69a3.624,3.624,0,0,0,1.654-.381,48.846,48.846,0,0,1,6.029-1.732c2.08-.512,4.094-1.258,6.158-1.827a7.144,7.144,0,0,0,2.041-.646" transform="translate(-242.082 -302.136)" fill="#52c0d2"/>
          <path id="Path_36" data-name="Path 36" d="M248.73,302.155c-.859.7-1.773,1.336-2.636,2.006a15.707,15.707,0,0,0-1.236,1.064c-.408.383-.823.747-1.212,1.122a9.612,9.612,0,0,0-1.062,1.178,2.42,2.42,0,0,0-.347.593.457.457,0,0,0-.023.084.011.011,0,0,0,0-.016.1.1,0,0,0-.022-.074.134.134,0,0,0-.058-.072c-.014-.013-.015-.02-.028-.022s.009,0,.015,0,.015.007.038.01a3.1,3.1,0,0,0,1.386-.318c.527-.2,1.063-.37,1.6-.53,1.078-.306,2.162-.551,3.244-.784s2.152-.45,3.213-.743l1.588-.457.8-.232a6.067,6.067,0,0,0,.773-.31,4.166,4.166,0,0,1,.792-.255c.264-.069.55-.133.824-.176a5.841,5.841,0,0,0,1.562-.371l.1.152a4.148,4.148,0,0,1-1.555.687c-.266.071-.512.153-.778.237a4.752,4.752,0,0,1-.8.212,5.38,5.38,0,0,0-.809.178l-.784.265-1.573.525c-1.048.359-2.13.652-3.187.946s-2.113.606-3.14.968c-.516.173-1.022.365-1.524.566a3.981,3.981,0,0,1-1.81.413c-.045,0-.111-.016-.165-.026a.659.659,0,0,1-.183-.054,1.094,1.094,0,0,1-.209-.12.731.731,0,0,1-.271-.5,1.674,1.674,0,0,1,.005-.223,1.37,1.37,0,0,1,.094-.312,3.286,3.286,0,0,1,.543-.8,10.444,10.444,0,0,1,1.253-1.183c.437-.356.881-.686,1.307-1.025a16.309,16.309,0,0,1,1.359-.989c.931-.615,1.9-1.142,2.809-1.759Z" transform="translate(-241.249 -302.01)" fill="#040505"/>
        </g>
        <path id="Path_37" data-name="Path 37" d="M296.19,284.131a2.86,2.86,0,0,0-1.964,1.106,1.349,1.349,0,0,0-.283,1,1.543,1.543,0,0,0,.563.887,7.78,7.78,0,0,0,4.222,1.843,18.093,18.093,0,0,0,2.364.205c.795.017,1.592,0,2.392-.015,1.6-.019,3.222-.136,4.851-.145a59.093,59.093,0,0,0,9.645-.4,20.643,20.643,0,0,0,2.336-.552,8.094,8.094,0,0,0,2.2-.936c.335-.218.689-.4,1.032-.6s.682-.408,1.008-.634a17.675,17.675,0,0,0,1.891-1.476l.132.123a10.718,10.718,0,0,1-1.738,1.739,11.454,11.454,0,0,1-1.007.718,6.062,6.062,0,0,1-1.092.579c-.384.153-.775.282-1.152.441s-.761.305-1.151.427a21.387,21.387,0,0,1-2.37.631,59.967,59.967,0,0,1-9.713.82c-1.607.04-3.21.193-4.851.24a22.5,22.5,0,0,1-2.461-.075,18.923,18.923,0,0,1-2.456-.353,11.025,11.025,0,0,1-2.374-.785,6.707,6.707,0,0,1-2.048-1.46,1.978,1.978,0,0,1-.631-1.17,1.712,1.712,0,0,1,.426-1.256,3.129,3.129,0,0,1,2.22-1.081Z" transform="translate(-244.752 -248.706)" fill="#040505"/>
        <g id="Group_14" data-name="Group 14" transform="translate(50.055 20.072)">
          <path id="Path_38" data-name="Path 38" d="M306.491,262.694a2.737,2.737,0,0,1-.668-.072,4.848,4.848,0,0,1-1.77-.543c-.555-.355-1.107-.715-1.637-1.106a10.672,10.672,0,0,1-4.309-9.856,9.138,9.138,0,0,1,.651-2.452,17.36,17.36,0,0,1,1.834-3.312,8.911,8.911,0,0,1,1.536-1.794c.238-.187.821-.629,1.144-.532.652.2-.258,1.2-.442,1.473-.959,1.408-1.649,1.869-2.3,3.828a11.87,11.87,0,0,0,.39,7.861,9.059,9.059,0,0,0,2.2,2.622,4.514,4.514,0,0,0,1.195.795,3.025,3.025,0,0,0,2.08.066" transform="translate(-297.663 -242.826)" fill="#fff"/>
          <path id="Path_39" data-name="Path 39" d="M305.849,262.6a3.153,3.153,0,0,1-.781-.072l-.725-.128a3.378,3.378,0,0,1-.76-.233,2.823,2.823,0,0,1-.355-.191l-.312-.2-1.246-.811c-.206-.14-.4-.3-.6-.455s-.381-.331-.572-.5a10.8,10.8,0,0,1-3.1-5.141,11,11,0,0,1-.373-3.014,7.233,7.233,0,0,1,.037-.76,7.41,7.41,0,0,1,.086-.761,9.683,9.683,0,0,1,.381-1.482,12.076,12.076,0,0,1,.6-1.388c.219-.448.465-.884.725-1.312s.542-.841.842-1.241.594-.791.935-1.167a4.988,4.988,0,0,1,1.176-.981,2.521,2.521,0,0,1,.358-.18.832.832,0,0,1,.466-.064.473.473,0,0,1,.128.045.345.345,0,0,1,.118.074.414.414,0,0,1,.149.261.808.808,0,0,1-.086.46,3.743,3.743,0,0,1-.418.651c-.075.1-.154.2-.218.287l-.216.3-.888,1.175a7.814,7.814,0,0,0-1.239,2.586,11.536,11.536,0,0,0-.377,2.866,11.688,11.688,0,0,0,.3,2.876,6.491,6.491,0,0,0,1.174,2.574,10.35,10.35,0,0,0,2.064,1.978,2.673,2.673,0,0,0,2.526.374l.2.644a3.489,3.489,0,0,1-1.605.089,3.362,3.362,0,0,1-1.448-.659,11.7,11.7,0,0,1-2.111-2.148,6.943,6.943,0,0,1-1.2-2.763,13.258,13.258,0,0,1-.264-2.971,11.881,11.881,0,0,1,.4-2.953,8.168,8.168,0,0,1,1.305-2.686c.3-.4.608-.776.887-1.173l.208-.3c.075-.11.152-.205.223-.3a3.117,3.117,0,0,0,.368-.589.488.488,0,0,0,.051-.251.034.034,0,0,0-.011-.028c0-.009-.011-.013-.02-.019s-.062-.03-.082-.035a1.032,1.032,0,0,0-.541.217,4.538,4.538,0,0,0-1.028.952c-.3.368-.571.771-.846,1.176s-.518.812-.747,1.235-.438.858-.639,1.3a13.155,13.155,0,0,0-.532,1.325,9.359,9.359,0,0,0-.452,2.781,10.247,10.247,0,0,0,.336,2.81,10.594,10.594,0,0,0,2.837,4.854c.177.159.347.325.529.48s.365.3.562.444l1.193.837.3.21a2.265,2.265,0,0,0,.286.169,2.847,2.847,0,0,0,.636.22c.229.054.473.1.719.16a2.649,2.649,0,0,0,.676.1Z" transform="translate(-297.022 -242.503)" fill="#040505"/>
        </g>
        <g id="Group_15" data-name="Group 15" transform="translate(74.327 21.778)">
          <path id="Path_40" data-name="Path 40" d="M363.611,250.854a7.464,7.464,0,0,0,1.107,3.615c.923,1.176,1.755,2.394,2.571,3.647,1.174,1.8,2.374,4.053,3.889,5.315,1.285,1.07,3.125-.317,4.392-.5.3-1.405-1.453-2.079-2.049-1.959-1.266.254-4.4-5.381-5.442-7.072a6.711,6.711,0,0,1-.7-3.075,20.45,20.45,0,0,0-.106-3.591" transform="translate(-363.507 -247.211)" fill="#fff"/>
          <path id="Path_41" data-name="Path 41" d="M363.535,250.789a16.019,16.019,0,0,0,.552,2.347,3.855,3.855,0,0,0,.551,1.01l.766.946c1.014,1.288,1.962,2.625,2.866,3.988a20.6,20.6,0,0,0,2.914,3.711c.067.057.143.135.2.176a1.958,1.958,0,0,0,.17.116,1.157,1.157,0,0,0,.389.128,2.484,2.484,0,0,0,.981-.1c.355-.095.724-.229,1.111-.369a6.43,6.43,0,0,1,1.282-.359l-.428.4a.882.882,0,0,0-.132-.737,1.721,1.721,0,0,0-.736-.558,1.867,1.867,0,0,0-.454-.13l-.094-.007-.031,0h-.016l-.063.005a.841.841,0,0,1-.273-.011.875.875,0,0,1-.223-.066,2.166,2.166,0,0,1-.614-.4,5.423,5.423,0,0,1-.455-.458,17,17,0,0,1-1.447-1.974c-.438-.676-.849-1.365-1.252-2.057l-1.2-2.073c-.1-.174-.2-.332-.3-.538a5.318,5.318,0,0,1-.226-.585c-.124-.392-.276-.775-.38-1.179a3.812,3.812,0,0,1-.113-1.252l.067-1.187c.024-.4.048-.792.057-1.186a8.486,8.486,0,0,0-.012-1.168l.2-.055a10.075,10.075,0,0,1,.311,2.414c.012.4.02.8.014,1.2,0,.372.046.745.066,1.13a4.467,4.467,0,0,0,.2,1.14,4.278,4.278,0,0,0,.219.525c.077.152.2.324.3.494l1.265,2.028c.432.667.872,1.328,1.333,1.969a16.19,16.19,0,0,0,1.469,1.814,4.671,4.671,0,0,0,.406.37,1.367,1.367,0,0,0,.389.238.135.135,0,0,0,.064.015c.021.008.021,0,.023,0s-.007,0,.011,0l.058-.008.118-.014c.071,0,.136,0,.2,0a2.709,2.709,0,0,1,.7.159,2.639,2.639,0,0,1,1.179.823,1.892,1.892,0,0,1,.36,1.527l-.071.331-.357.067a6.146,6.146,0,0,0-1.051.343c-.374.147-.764.31-1.193.432a3.538,3.538,0,0,1-1.428.146,2.286,2.286,0,0,1-.765-.241,2.864,2.864,0,0,1-.339-.22c-.107-.077-.174-.146-.262-.22a9.583,9.583,0,0,1-1.627-1.973c-.459-.7-.871-1.409-1.278-2.114-.8-1.406-1.654-2.785-2.569-4.118l-.707-1a4.166,4.166,0,0,1-.53-1.167,16.171,16.171,0,0,1-.384-2.437Z" transform="translate(-363.327 -247.163)" fill="#040505"/>
        </g>
        <g id="Group_17" data-name="Group 17" transform="translate(81.436 1.461)">
          <path id="Path_42" data-name="Path 42" d="M384.56,191.973c-.17.077-.325.174-.5.252a3.4,3.4,0,0,0-.547.309c-.157.111-.428.109-.519.316-.2.451.774.831.983,1.06a3.944,3.944,0,0,0,.347.357,16.579,16.579,0,0,0,1.794,1.42,2.813,2.813,0,0,0,1.027.364c.235.043.474.077.713.1a1.191,1.191,0,0,0,.4-.006c.308-.1.108-.587.018-.785-.1-.214-.195-.43-.31-.636-.1-.182-.239-.328-.344-.5a9.181,9.181,0,0,0-.8-1.2,2.963,2.963,0,0,0-.9-.842,4.527,4.527,0,0,0-.637-.243A.988.988,0,0,0,384.56,191.973Z" transform="translate(-382.889 -191.799)" fill="#cf7852"/>
          <g id="Group_16" data-name="Group 16">
            <path id="Path_43" data-name="Path 43" d="M384.445,191.9c-.269.145-.548.275-.807.42-.064.038-.127.078-.188.12a.794.794,0,0,1-.221.113c-.147.051-.275.1-.3.212a.32.32,0,0,0,.123.323,2.059,2.059,0,0,0,.346.268l.39.249a3.306,3.306,0,0,1,.344.321c.444.407.927.795,1.408,1.155a4.43,4.43,0,0,0,.751.467,3.087,3.087,0,0,0,.846.211l.445.05a2.2,2.2,0,0,0,.422.023c.061-.005.071-.021.071-.023a.18.18,0,0,0,.01-.079,1.15,1.15,0,0,0-.107-.366c-.131-.254-.254-.555-.391-.786-.076-.116-.177-.237-.266-.387l-.231-.395a8.531,8.531,0,0,0-.49-.747,5.376,5.376,0,0,0-.577-.674,1.4,1.4,0,0,0-.347-.236c-.136-.057-.272-.117-.407-.182A.886.886,0,0,0,384.445,191.9Zm-.057-.127a1.207,1.207,0,0,1,.953-.023c.15.045.3.094.45.145a1.452,1.452,0,0,1,.425.251,5.6,5.6,0,0,1,.653.685,6.322,6.322,0,0,1,.548.764l.241.392c.069.113.166.227.262.364a8.142,8.142,0,0,1,.434.851,1.511,1.511,0,0,1,.133.514.5.5,0,0,1-.112.351.478.478,0,0,1-.34.149,2.413,2.413,0,0,1-.491-.044l-.464-.074a3.382,3.382,0,0,1-.916-.276,5.143,5.143,0,0,1-.786-.529,18.393,18.393,0,0,1-1.388-1.217,3.474,3.474,0,0,0-.314-.316c-.117-.086-.25-.166-.378-.253a2.2,2.2,0,0,1-.372-.3.749.749,0,0,1-.147-.214.4.4,0,0,1-.008-.284.381.381,0,0,1,.18-.215,1.252,1.252,0,0,1,.226-.094.619.619,0,0,0,.187-.092c.065-.044.132-.085.2-.124C383.838,192.035,384.116,191.912,384.388,191.771Z" transform="translate(-382.745 -191.661)" fill="#040505"/>
          </g>
        </g>
        <g id="Group_18" data-name="Group 18" transform="translate(83.883 1.931)">
          <path id="Path_44" data-name="Path 44" d="M392,196.162a1.151,1.151,0,0,1-.394-.181,3.834,3.834,0,0,1-.67-.638c-.235-.262-.476-.519-.69-.805a8.739,8.739,0,0,1-.546-.853.963.963,0,0,1-.056-.121c-.037-.089-.034-.1.049-.156a2.134,2.134,0,0,1,.339-.149.993.993,0,0,1,.377-.094c.3,0,.493.252.7.492.142.165.283.331.417.507a11.862,11.862,0,0,1,.819,1.24,2.033,2.033,0,0,1,.255.648c-.012.127-.116.121-.205.116s-.176.01-.271.009A.7.7,0,0,1,392,196.162Z" transform="translate(-389.555 -193.084)" fill="#fff"/>
          <path id="Path_45" data-name="Path 45" d="M391.868,196.086a1.994,1.994,0,0,1-.931-.655c-.253-.274-.489-.565-.735-.846a2.957,2.957,0,0,1-.324-.457l-.306-.471a1.154,1.154,0,0,1-.134-.265.136.136,0,0,1,.031-.132.371.371,0,0,1,.068-.053.921.921,0,0,1,.134-.071,2.43,2.43,0,0,1,.549-.185.694.694,0,0,1,.566.215,5.257,5.257,0,0,1,.379.422,11.2,11.2,0,0,1,.7.882,6.863,6.863,0,0,1,.6.964,1.881,1.881,0,0,1,.11.273.678.678,0,0,1,.031.166.249.249,0,0,1-.108.223.3.3,0,0,1-.2.026c-.048-.007-.092-.007-.138-.011A1.929,1.929,0,0,1,391.868,196.086Zm.026-.125a.91.91,0,0,0,.268-.006c.085-.015.22-.018.212-.036-.011.007-.007-.009-.013-.026a.923.923,0,0,0-.034-.1c-.03-.078-.065-.161-.1-.242-.153-.316-.355-.64-.545-.951a7.724,7.724,0,0,0-.65-.893c-.235-.272-.456-.637-.793-.595a2.337,2.337,0,0,0-.507.164.8.8,0,0,0-.113.057.3.3,0,0,0-.043.031c0,.007,0-.023,0,0a1.055,1.055,0,0,0,.114.232l.294.469a2.911,2.911,0,0,0,.32.451c.243.279.476.566.727.838A1.892,1.892,0,0,0,391.894,195.961Z" transform="translate(-389.432 -192.945)" fill="#040505"/>
        </g>
        <g id="Group_21" data-name="Group 21" transform="translate(73.006 2.169)">
          <g id="Group_19" data-name="Group 19">
            <path id="Path_46" data-name="Path 46" d="M359.872,203.985c.625.461,1.747.005,2.384-.229a6.13,6.13,0,0,0,2.187-1.424c.592-.591.988-1.408,1.741-1.818a3.681,3.681,0,0,1,.45.234,2.075,2.075,0,0,0,.608.186,3.748,3.748,0,0,0,1.235-.056,5.65,5.65,0,0,0,1.516-.4,3.3,3.3,0,0,0,1.874-1.894c.3-1.095-.329-1.841-1.029-2.572a11.2,11.2,0,0,0-1.126-1.017,3.667,3.667,0,0,0-2.855-.776,2.883,2.883,0,0,0-1.4.589,1.927,1.927,0,0,0-.889,1.084,5.1,5.1,0,0,0-.191,1.494,2.038,2.038,0,0,0,.612,1.547c-.219.311-.4.56-.62.874a4.861,4.861,0,0,1-1.562,1.784c-.194.105-.386.2-.57.31" transform="translate(-359.816 -193.968)" fill="#cf7852"/>
            <path id="Path_47" data-name="Path 47" d="M359.831,203.536a1.172,1.172,0,0,0,.773.168,3.721,3.721,0,0,0,.83-.18,7.718,7.718,0,0,0,1.581-.684,6.222,6.222,0,0,0,1.33-1.076c.383-.418.688-.926,1.129-1.353a2.838,2.838,0,0,1,.358-.292c.031-.023.065-.043.1-.063l.05-.03.025-.015.006,0a.227.227,0,0,1,.066-.019.155.155,0,0,1,.051,0l.017,0a1.423,1.423,0,0,1,.23.112l.189.106a1.822,1.822,0,0,0,.183.078,1.618,1.618,0,0,0,.384.1,3.871,3.871,0,0,0,.836,0,3.275,3.275,0,0,0,.412-.072c.147-.033.293-.06.436-.087a3.988,3.988,0,0,0,.809-.214,6.508,6.508,0,0,0,.735-.414,2.8,2.8,0,0,0,1.114-1.17,1.781,1.781,0,0,0-.008-1.529,5.3,5.3,0,0,0-1.045-1.308,8.835,8.835,0,0,0-1.312-1.085,3.265,3.265,0,0,0-1.556-.487,4.52,4.52,0,0,0-.832.029,2.305,2.305,0,0,0-.76.246,4.837,4.837,0,0,0-.7.46,1.609,1.609,0,0,0-.5.581,3.418,3.418,0,0,0-.207.785,6.127,6.127,0,0,0-.058.844,2.456,2.456,0,0,0,.125.791,1.253,1.253,0,0,0,.386.615l.176.126-.122.165-.611.827-.6.839a3.477,3.477,0,0,1-.745.764,8.792,8.792,0,0,1-.916.5l-.1-.163a8.938,8.938,0,0,0,.861-.536,3.2,3.2,0,0,0,.643-.745l.547-.871.58-.853.054.291a1.545,1.545,0,0,1-.564-.823,2.87,2.87,0,0,1-.147-.933,6.552,6.552,0,0,1,.063-.9,3.752,3.752,0,0,1,.243-.9,2.04,2.04,0,0,1,.628-.736,5.185,5.185,0,0,1,.764-.5,2.73,2.73,0,0,1,.9-.291,4.954,4.954,0,0,1,.917-.032,3.683,3.683,0,0,1,1.752.558,6.115,6.115,0,0,1,.723.547c.226.192.447.393.658.6a5.641,5.641,0,0,1,1.119,1.428,2.1,2.1,0,0,1,.212.934,2.406,2.406,0,0,1-.208.929,3.1,3.1,0,0,1-1.272,1.327c-.128.079-.257.154-.387.226a3.623,3.623,0,0,1-.411.206,4.329,4.329,0,0,1-.885.223c-.144.025-.286.049-.425.078a3.616,3.616,0,0,1-.452.072,4.206,4.206,0,0,1-.913-.018,1.948,1.948,0,0,1-.458-.13,2.191,2.191,0,0,1-.218-.1l-.191-.112c-.055-.032-.14-.078-.16-.086h0a.153.153,0,0,0,.038,0,.137.137,0,0,0,.053-.017l-.005,0-.022.013-.044.026c-.029.017-.059.033-.087.053a2.551,2.551,0,0,0-.324.256c-.409.382-.722.882-1.134,1.321a6.473,6.473,0,0,1-1.4,1.1,7.894,7.894,0,0,1-1.64.681,3.916,3.916,0,0,1-.882.176,1.362,1.362,0,0,1-.9-.218Z" transform="translate(-359.718 -193.596)" fill="#040505"/>
          </g>
          <g id="Group_20" data-name="Group 20" transform="translate(5.613 0.325)">
            <path id="Path_48" data-name="Path 48" d="M380.283,199.414a4.215,4.215,0,0,0,.526-.364,3.163,3.163,0,0,0,.976-1.093,1.482,1.482,0,0,0-.235-1.385,3.217,3.217,0,0,0-2.436-1.678,3.114,3.114,0,0,0-1.945.6,3.208,3.208,0,0,0-1.385,1.4,2.359,2.359,0,0,0,.6,2.331,2.13,2.13,0,0,0,.568.627A3.656,3.656,0,0,0,380.283,199.414Z" transform="translate(-375.436 -194.74)" fill="#fff"/>
            <path id="Path_49" data-name="Path 49" d="M379.862,199.093a7.287,7.287,0,0,0,.862-.658,2.223,2.223,0,0,0,.624-.841,1.271,1.271,0,0,0-.13-.989,4.292,4.292,0,0,0-.627-.867,2.765,2.765,0,0,0-1.822-.95,2.978,2.978,0,0,0-1.947.651,4.4,4.4,0,0,0-.815.663,1.925,1.925,0,0,0-.473.852,2.355,2.355,0,0,0,.6,1.852c.114.149.218.31.318.433a.915.915,0,0,0,.366.273,2.252,2.252,0,0,0,1,.164A4.731,4.731,0,0,0,379.862,199.093Zm.076.13a5.046,5.046,0,0,1-2.1.777,2.6,2.6,0,0,1-1.164-.142,2.064,2.064,0,0,1-.281-.142,1.268,1.268,0,0,1-.243-.214c-.14-.155-.234-.305-.346-.445a4.062,4.062,0,0,1-.59-1,1.988,1.988,0,0,1-.111-1.207,2.217,2.217,0,0,1,.6-1.04,4.719,4.719,0,0,1,.916-.689,4.847,4.847,0,0,1,1.024-.5,2.739,2.739,0,0,1,1.151-.126,3.025,3.025,0,0,1,1.962,1.088,4.88,4.88,0,0,1,.637.93,1.459,1.459,0,0,1,.125,1.137,2.381,2.381,0,0,1-.684.9A7.449,7.449,0,0,1,379.938,199.223Z" transform="translate(-375.052 -194.484)" fill="#040505"/>
          </g>
        </g>
        <path id="Path_50" data-name="Path 50" d="M382.314,202.746c-.182-.026-.424-.071-.52-.256a.592.592,0,0,1,.057-.674.483.483,0,0,1,.5-.072c.55.156.347.466.322.593C382.65,202.48,382.675,202.8,382.314,202.746Z" transform="translate(-300.657 -196.569)" fill="#040505"/>
        <g id="Group_22" data-name="Group 22" transform="translate(31.243 53.963)">
          <path id="Path_51" data-name="Path 51" d="M265.1,335.68c.006,1.4-6.427,1.591-7.259,1.609A90.972,90.972,0,0,1,246,336.815c-.141-.015-.321.634-.364.629a68.662,68.662,0,0,0,16.173.008c1.421-.181,3.671-.492,3.663-2.37,0,.1-.368.4-.367.6Z" transform="translate(-245.632 -335.083)" fill="#040505"/>
        </g>
        <g id="Group_23" data-name="Group 23" transform="translate(12.008 38.715)">
          <path id="Path_52" data-name="Path 52" d="M193.085,294.2q4.573.143,9.137-.145c.171-.011.282-.624.363-.629q-4.567.287-9.137.145c-.156-.005-.3.631-.363.629Z" transform="translate(-193.085 -293.431)" fill="#040505"/>
        </g>
        <g id="Group_24" data-name="Group 24" transform="translate(26.845 30.693)">
          <path id="Path_53" data-name="Path 53" d="M233.618,272.147h2.855c.161,0,.3-.63.364-.63h-2.855c-.161,0-.3.63-.363.63Z" transform="translate(-233.618 -271.517)" fill="#040505"/>
        </g>
        <g id="Group_25" data-name="Group 25" transform="translate(18.923 30.683)">
          <path id="Path_54" data-name="Path 54" d="M211.976,272.259a8.976,8.976,0,0,0,2.96-.139c.19-.041.253-.606.363-.63a8.976,8.976,0,0,1-2.96.139c-.139-.016-.323.634-.364.629Z" transform="translate(-211.976 -271.49)" fill="#040505"/>
        </g>
        <g id="Group_26" data-name="Group 26" transform="translate(19.063 55.027)">
          <path id="Path_55" data-name="Path 55" d="M215.5,338.038l-2.539-.047c-.115,0-.3.405-.351.489-.024.041-.261.549-.248.549l2.539.047c.115,0,.3-.4.352-.489.023-.04.261-.549.248-.549Z" transform="translate(-212.359 -337.991)" fill="#040505"/>
        </g>
        <g id="Group_27" data-name="Group 27" transform="translate(12.289 55.869)">
          <path id="Path_56" data-name="Path 56" d="M195.038,340.392l-.581-.1c-.1-.017-.312.419-.351.489a3.428,3.428,0,0,0-.248.549l.581.1c.1.017.312-.419.352-.489a3.474,3.474,0,0,0,.248-.549Z" transform="translate(-193.855 -340.291)" fill="#040505"/>
        </g>
        <g id="Group_28" data-name="Group 28" transform="translate(0 44.795)">
          <path id="Path_57" data-name="Path 57" d="M160.283,310.924a132.176,132.176,0,0,0,15.99-.255c.176-.016.276-.621.363-.63a132.026,132.026,0,0,1-15.99.255c-.157,0-.3.631-.363.63Z" transform="translate(-160.283 -310.039)" fill="#040505"/>
        </g>
        <g id="Group_29" data-name="Group 29" transform="translate(33.445 26.832)">
          <path id="Path_58" data-name="Path 58" d="M266.134,271.866a36.365,36.365,0,0,0-2.976-2.353c-.943-.745-1.668-1.742-2.54-2.569a38.323,38.323,0,0,0-3.081-2.538,20.417,20.417,0,0,0-2.808-1.911c-.611-.324-1.431-.82-1.945-.078a1.884,1.884,0,0,0-.033,1.6c.422,1.385,1.421,2.472,1.96,3.8a29.928,29.928,0,0,1,1.32,4.166c.058.236.071.446.15.683.06.18.062.558.236.68" transform="translate(-252.243 -261.641)" fill="#52c0d2"/>
          <path id="Path_59" data-name="Path 59" d="M265.474,271.257a34.02,34.02,0,0,0-2.9-2.1,25.935,25.935,0,0,1-2.654-2.458c-.429-.389-.891-.763-1.358-1.122s-.955-.7-1.42-1.073a31.734,31.734,0,0,0-2.847-2.087,4.23,4.23,0,0,0-1.417-.67.4.4,0,0,0-.223.053.594.594,0,0,0-.194.193,1.02,1.02,0,0,0-.119.648,3.83,3.83,0,0,0,.176.8,6.448,6.448,0,0,0,.32.794c.25.523.56,1.032.854,1.561a9.608,9.608,0,0,1,.767,1.661c.1.284.2.569.3.855a8.826,8.826,0,0,0,.348.838,4.552,4.552,0,0,1,.278.862c.075.292.139.587.2.883.031.15.055.29.081.452s.032.306.055.441c.085.276.037.66.158.806l-.1.148a.74.74,0,0,1-.263-.449c-.022-.074-.04-.148-.063-.208a2.031,2.031,0,0,1-.079-.212c-.048-.156-.078-.306-.117-.439l-.134-.42-.264-.852a6.128,6.128,0,0,1-.232-.86,5.363,5.363,0,0,0-.214-.868c-.1-.279-.21-.556-.322-.831a9.039,9.039,0,0,0-.8-1.566,9.155,9.155,0,0,1-1.614-3.324,1.716,1.716,0,0,1,.163-1.093,1.341,1.341,0,0,1,.412-.457,1.17,1.17,0,0,1,.625-.2,2.4,2.4,0,0,1,1.041.27l.415.2c.139.069.277.141.414.216a26.832,26.832,0,0,1,3,2.076c.482.358.938.758,1.391,1.162s.894.821,1.32,1.27a25.845,25.845,0,0,0,2.419,2.612,29.834,29.834,0,0,1,2.73,2.353Z" transform="translate(-251.646 -260.968)" fill="#040505"/>
        </g>
      </g>
      <g id="Group_31" data-name="Group 31" transform="translate(125.903 39.28)">
        <path id="Path_60" data-name="Path 60" d="M508.646,302.4a1.723,1.723,0,0,1-.655,1.426,2.735,2.735,0,0,1-1.753.531,5.5,5.5,0,0,1-2.018-.283v-.5a5.1,5.1,0,0,0,1.979.323,2.214,2.214,0,0,0,1.4-.41,1.283,1.283,0,0,0,.514-1.064,1.221,1.221,0,0,0-.174-.674,1.567,1.567,0,0,0-.561-.487,6.947,6.947,0,0,0-1.14-.472,3.886,3.886,0,0,1-1.522-.812,1.75,1.75,0,0,1,.2-2.484,2.5,2.5,0,0,1,1.621-.514,4.745,4.745,0,0,1,1.9.377l-.18.432a4.437,4.437,0,0,0-1.709-.367,2,2,0,0,0-1.265.372,1.2,1.2,0,0,0-.468,1,1.31,1.31,0,0,0,.147.652,1.331,1.331,0,0,0,.475.458,6.552,6.552,0,0,0,1.13.484,6.109,6.109,0,0,1,1.263.558,1.8,1.8,0,0,1,.618.616A1.694,1.694,0,0,1,508.646,302.4Z" transform="translate(-504.218 -296.245)" fill="#fff" stroke="#fff" stroke-width="0.5"/>
        <path id="Path_61" data-name="Path 61" d="M524.739,307.482a1.949,1.949,0,0,1-1.8-.917h-.034l.016.412q.02.364.022.8l.007,2.032h-.486l-.026-7.749h.413l.1.761h.029a1.928,1.928,0,0,1,1.754-.869,1.985,1.985,0,0,1,1.649.7,3.249,3.249,0,0,1,.574,2.062,3.125,3.125,0,0,1-.589,2.041A2,2,0,0,1,524.739,307.482Zm-.011-.432a1.482,1.482,0,0,0,1.267-.613,2.817,2.817,0,0,0,.443-1.7q-.008-2.351-1.706-2.345a1.7,1.7,0,0,0-1.368.517,2.57,2.57,0,0,0-.431,1.673v.157a2.94,2.94,0,0,0,.426,1.785A1.631,1.631,0,0,0,524.728,307.05Z" transform="translate(-515.769 -299.394)" fill="#fff" stroke="#fff" stroke-width="0.5"/>
        <path id="Path_62" data-name="Path 62" d="M543.975,307.336l-.126-.844h-.039a2.532,2.532,0,0,1-.825.731,2.2,2.2,0,0,1-1,.217,1.737,1.737,0,0,1-1.223-.4,1.44,1.44,0,0,1-.44-1.113,1.374,1.374,0,0,1,.646-1.214,3.537,3.537,0,0,1,1.88-.463l1.016-.033v-.354a1.817,1.817,0,0,0-.313-1.148,1.2,1.2,0,0,0-1-.384,3.328,3.328,0,0,0-1.535.417l-.183-.421a4.059,4.059,0,0,1,1.736-.418,1.731,1.731,0,0,1,1.314.452,2,2,0,0,1,.439,1.422l.012,3.548ZM542.01,307a1.7,1.7,0,0,0,1.834-1.851l0-.525-.932.042a3.522,3.522,0,0,0-1.6.356,1.011,1.011,0,0,0-.476.927,1,1,0,0,0,.309.777A1.247,1.247,0,0,0,542.01,307Z" transform="translate(-527.104 -299.373)" fill="#fff" stroke="#fff" stroke-width="0.5"/>
        <path id="Path_63" data-name="Path 63" d="M560.085,307.362a2.285,2.285,0,0,1-1.794-.715,2.906,2.906,0,0,1-.654-2.01,2.95,2.95,0,0,1,.665-2.066,2.362,2.362,0,0,1,1.838-.745,3.694,3.694,0,0,1,1.326.235l-.131.432a3.9,3.9,0,0,0-1.2-.226,1.827,1.827,0,0,0-1.485.611,2.659,2.659,0,0,0-.5,1.747,2.577,2.577,0,0,0,.511,1.689,1.733,1.733,0,0,0,1.416.606,3.467,3.467,0,0,0,1.349-.265v.452A3.064,3.064,0,0,1,560.085,307.362Z" transform="translate(-538.082 -299.318)" fill="#fff" stroke="#fff" stroke-width="0.5"/>
        <path id="Path_64" data-name="Path 64" d="M575.3,307.311a2.325,2.325,0,0,1-1.816-.711,2.879,2.879,0,0,1-.657-2,3.128,3.128,0,0,1,.621-2.046,2.074,2.074,0,0,1,1.691-.773,1.828,1.828,0,0,1,1.489.652,2.714,2.714,0,0,1,.55,1.785v.393l-3.842.013a2.517,2.517,0,0,0,.518,1.677,1.8,1.8,0,0,0,1.442.575,4.454,4.454,0,0,0,.8-.067,4.858,4.858,0,0,0,.875-.278l0,.442a3.916,3.916,0,0,1-.834.271A4.664,4.664,0,0,1,575.3,307.311Zm-.159-5.1a1.6,1.6,0,0,0-1.235.512,2.393,2.393,0,0,0-.54,1.466l3.3-.011a2.324,2.324,0,0,0-.408-1.449A1.327,1.327,0,0,0,575.144,302.208Z" transform="translate(-547.714 -299.286)" fill="#fff" stroke="#fff" stroke-width="0.5"/>
        <path id="Path_65" data-name="Path 65" d="M593.783,305.764a1.268,1.268,0,0,1-.541,1.1,2.645,2.645,0,0,1-1.544.391,3.69,3.69,0,0,1-1.7-.323v-.525a3.743,3.743,0,0,0,1.7.4,2.24,2.24,0,0,0,1.2-.267.8.8,0,0,0,.407-.7.853.853,0,0,0-.329-.677,3.6,3.6,0,0,0-1.074-.536,6.143,6.143,0,0,1-1.126-.494,1.559,1.559,0,0,1-.49-.47,1.182,1.182,0,0,1-.166-.64,1.093,1.093,0,0,1,.5-.949,2.444,2.444,0,0,1,1.4-.353,4.2,4.2,0,0,1,1.64.318l-.18.442a3.853,3.853,0,0,0-1.459-.318,2.105,2.105,0,0,0-1.035.219.663.663,0,0,0-.381.6.827.827,0,0,0,.3.666,4.134,4.134,0,0,0,1.162.555,5.735,5.735,0,0,1,1.052.465,1.53,1.53,0,0,1,.495.472A1.159,1.159,0,0,1,593.783,305.764Z" transform="translate(-558.596 -299.251)" fill="#fff" stroke="#fff" stroke-width="0.5"/>
        <path id="Path_66" data-name="Path 66" d="M616.773,304.688a3.653,3.653,0,0,0,.8-.081V305a2.569,2.569,0,0,1-.814.121,1.328,1.328,0,0,1-1.044-.374,1.754,1.754,0,0,1-.34-1.187l-.012-3.445-.79,0v-.285l.79-.223.241-1.208h.25l0,1.291,1.566-.005v.422l-1.566.005.011,3.377a1.54,1.54,0,0,0,.22.907A.782.782,0,0,0,616.773,304.688Z" transform="translate(-574.179 -297.146)" fill="#fff" stroke="#fff" stroke-width="0.5"/>
        <path id="Path_67" data-name="Path 67" d="M632.233,303.224l-.012-3.46a1.688,1.688,0,0,0-.342-1.169,1.368,1.368,0,0,0-1.052-.362,1.817,1.817,0,0,0-1.4.488,2.278,2.278,0,0,0-.439,1.57l.01,2.945h-.486l-.026-7.636h.486l.008,2.429-.022.682h.034a1.786,1.786,0,0,1,.754-.7,2.64,2.64,0,0,1,1.132-.22q1.816-.006,1.823,1.942l.012,3.489Z" transform="translate(-582.996 -295.371)" fill="#fff" stroke="#fff" stroke-width="0.5"/>
        <path id="Path_68" data-name="Path 68" d="M649.664,306.979l-.126-.843H649.5a2.534,2.534,0,0,1-.824.731,2.21,2.21,0,0,1-1,.217,1.734,1.734,0,0,1-1.223-.4,1.438,1.438,0,0,1-.44-1.112,1.373,1.373,0,0,1,.646-1.214,3.537,3.537,0,0,1,1.88-.463l1.016-.033v-.353a1.817,1.817,0,0,0-.313-1.148,1.2,1.2,0,0,0-1-.384,3.333,3.333,0,0,0-1.535.418l-.183-.422a4.063,4.063,0,0,1,1.736-.418,1.731,1.731,0,0,1,1.315.452,2.006,2.006,0,0,1,.438,1.422l.012,3.548Zm-1.964-.337a1.7,1.7,0,0,0,1.834-1.852l0-.525-.932.043a3.519,3.519,0,0,0-1.6.356,1.01,1.01,0,0,0-.475.927,1,1,0,0,0,.309.777A1.246,1.246,0,0,0,647.7,306.642Z" transform="translate(-594.104 -299.147)" fill="#fff" stroke="#fff" stroke-width="0.5"/>
        <path id="Path_69" data-name="Path 69" d="M664.273,304.528a3.653,3.653,0,0,0,.8-.081v.392a2.564,2.564,0,0,1-.814.121,1.325,1.325,0,0,1-1.044-.374,1.754,1.754,0,0,1-.34-1.186l-.011-3.445-.79,0v-.285l.79-.224.241-1.208h.25l0,1.291,1.565-.005v.422l-1.566.005.011,3.377a1.545,1.545,0,0,0,.219.907A.784.784,0,0,0,664.273,304.528Z" transform="translate(-604.29 -297.045)" fill="#fff" stroke="#fff" stroke-width="0.5"/>
        <path id="Path_70" data-name="Path 70" d="M689,306.981l-1.18-3.564q-.114-.362-.293-1.064H687.5l-.1.363-.219.712L686,306.992h-.481l-1.544-5.33h.52l.865,3.089q.3,1.147.4,1.686h.029q.285-1.149.417-1.527l1.089-3.258h.442l1.056,3.24q.357,1.153.437,1.525h.03q.038-.319.387-1.71l.8-3.065h.491l-1.43,5.339Z" transform="translate(-618.173 -299.2)" fill="#fff" stroke="#fff" stroke-width="0.5"/>
        <path id="Path_71" data-name="Path 71" d="M712.259,304.076a3.023,3.023,0,0,1-.626,2.041,2.186,2.186,0,0,1-1.744.74,2.264,2.264,0,0,1-1.238-.335,2.168,2.168,0,0,1-.823-.969,3.527,3.527,0,0,1-.289-1.461,3,3,0,0,1,.626-2.037,2.182,2.182,0,0,1,1.735-.735,2.139,2.139,0,0,1,1.727.733A3.036,3.036,0,0,1,712.259,304.076Zm-4.211.014a2.714,2.714,0,0,0,.489,1.713,1.825,1.825,0,0,0,2.734-.009,2.715,2.715,0,0,0,.477-1.716,2.674,2.674,0,0,0-.494-1.711,1.661,1.661,0,0,0-1.374-.6,1.633,1.633,0,0,0-1.359.611A2.707,2.707,0,0,0,708.048,304.091Z" transform="translate(-633.11 -298.998)" fill="#fff" stroke="#fff" stroke-width="0.5"/>
        <path id="Path_72" data-name="Path 72" d="M729.017,301.259a4.2,4.2,0,0,1,.726.066l-.092.467a2.829,2.829,0,0,0-.692-.081,1.344,1.344,0,0,0-1.117.582,2.362,2.362,0,0,0-.432,1.464l.01,2.944-.486,0-.018-5.335h.412l.052.962h.034a2.263,2.263,0,0,1,.7-.829A1.639,1.639,0,0,1,729.017,301.259Z" transform="translate(-645.395 -298.959)" fill="#fff" stroke="#fff" stroke-width="0.5"/>
        <path id="Path_73" data-name="Path 73" d="M740.8,300.517l2.714-3,.589,0L742.01,299.8l2.293,3.05-.584,0-2.036-2.687-.87.8.006,1.9-.486,0-.026-7.636.486,0,.013,3.828-.029,1.467Z" transform="translate(-653.882 -295.132)" fill="#fff" stroke="#fff" stroke-width="0.5"/>
        <path id="Path_74" data-name="Path 74" d="M766.923,297.752l-1.257,0,.016,4.913H765.2l-.016-4.913-.991,0v-.285l.991-.185v-.413a2.326,2.326,0,0,1,.356-1.441,1.41,1.41,0,0,1,1.178-.463,3.065,3.065,0,0,1,.884.13l-.112.422a2.607,2.607,0,0,0-.78-.12.92.92,0,0,0-.806.339,1.931,1.931,0,0,0-.234,1.093v.5l1.257,0Z" transform="translate(-669.022 -294.975)" fill="#fff" stroke="#fff" stroke-width="0.5"/>
        <path id="Path_75" data-name="Path 75" d="M780.693,303.846a3.025,3.025,0,0,1-.627,2.041,2.185,2.185,0,0,1-1.744.739,2.265,2.265,0,0,1-1.238-.335,2.163,2.163,0,0,1-.823-.969,3.528,3.528,0,0,1-.29-1.461,3,3,0,0,1,.626-2.037,2.181,2.181,0,0,1,1.735-.734,2.139,2.139,0,0,1,1.728.733A3.036,3.036,0,0,1,780.693,303.846Zm-4.211.014a2.718,2.718,0,0,0,.489,1.714,1.824,1.824,0,0,0,2.734-.01,2.712,2.712,0,0,0,.478-1.717,2.674,2.674,0,0,0-.494-1.711,1.657,1.657,0,0,0-1.374-.6,1.632,1.632,0,0,0-1.36.611A2.705,2.705,0,0,0,776.482,303.86Z" transform="translate(-676.492 -298.852)" fill="#fff" stroke="#fff" stroke-width="0.5"/>
        <path id="Path_76" data-name="Path 76" d="M797.452,301.028a4.126,4.126,0,0,1,.726.066l-.091.467a2.85,2.85,0,0,0-.693-.081,1.342,1.342,0,0,0-1.117.583,2.363,2.363,0,0,0-.432,1.464l.01,2.944h-.486l-.018-5.335h.412l.052.962h.034a2.259,2.259,0,0,1,.7-.829A1.642,1.642,0,0,1,797.452,301.028Z" transform="translate(-688.778 -298.812)" fill="#fff" stroke="#fff" stroke-width="0.5"/>
        <path id="Path_77" data-name="Path 77" d="M816.22,301.231h.5l1.139,2.99q.519,1.377.659,1.858h.03q.2-.634.666-1.892l1.119-2.968.5,0-2.37,6.207a4.819,4.819,0,0,1-.482,1.022,1.3,1.3,0,0,1-.458.4,1.4,1.4,0,0,1-.635.135,2.186,2.186,0,0,1-.623-.1v-.422a2.3,2.3,0,0,0,.614.077.822.822,0,0,0,.441-.12,1.1,1.1,0,0,0,.345-.367,4.789,4.789,0,0,0,.356-.786q.2-.538.26-.7Z" transform="translate(-702.007 -298.931)" fill="#fff" stroke="#fff" stroke-width="0.5"/>
        <path id="Path_78" data-name="Path 78" d="M837.667,303.654a3.025,3.025,0,0,1-.627,2.041,2.185,2.185,0,0,1-1.744.739,2.265,2.265,0,0,1-1.238-.335,2.163,2.163,0,0,1-.823-.969,3.527,3.527,0,0,1-.29-1.461,3,3,0,0,1,.626-2.037,2.182,2.182,0,0,1,1.735-.734,2.138,2.138,0,0,1,1.727.733A3.036,3.036,0,0,1,837.667,303.654Zm-4.211.014a2.718,2.718,0,0,0,.489,1.714,1.824,1.824,0,0,0,2.734-.009,2.712,2.712,0,0,0,.478-1.717,2.674,2.674,0,0,0-.494-1.711,1.657,1.657,0,0,0-1.373-.6,1.633,1.633,0,0,0-1.36.611A2.705,2.705,0,0,0,833.456,303.668Z" transform="translate(-712.61 -298.73)" fill="#fff" stroke="#fff" stroke-width="0.5"/>
        <path id="Path_79" data-name="Path 79" d="M852.673,301.11l.012,3.455a1.687,1.687,0,0,0,.343,1.169,1.365,1.365,0,0,0,1.052.362,1.832,1.832,0,0,0,1.4-.485,2.253,2.253,0,0,0,.444-1.567l-.01-2.944.481,0,.018,5.335H856l-.091-.736h-.029a2.007,2.007,0,0,1-1.847.841q-1.821.006-1.828-1.942l-.011-3.485Z" transform="translate(-724.811 -298.857)" fill="#fff" stroke="#fff" stroke-width="0.5"/>
      </g>
    </g>
  </g>
</svg>
