<?xml version="1.0" encoding="utf-8"?>
<!-- Generator: Adobe Illustrator 24.2.3, SVG Export Plug-In . SVG Version: 6.00 Build 0)  -->
<svg version="1.1" id="Layer_1" xmlns="http://www.w3.org/2000/svg" xmlns:xlink="http://www.w3.org/1999/xlink" x="0px" y="0px"
	 viewBox="0 0 30 30" style="enable-background:new 0 0 30 30;" xml:space="preserve">
<style type="text/css">
	.st0{fill:#4F9FC8;}
</style>
<path class="st0" d="M15.7,17.7C15.5,17.9,15.3,18,15,18s-0.5-0.1-0.7-0.3l-5-5c-0.4-0.4-0.4-1,0-1.4s1-0.4,1.4,0l4.3,4.3l9.9-9.9
	C23.7,4.7,22.2,4,20.5,4C17,4,15,7,15,7s-2-3-5.5-3C5.9,4,3,6.9,3,10.5c0,6.3,7.4,12.4,10.8,15.1l0,0c0.3,0.3,0.7,0.4,1.2,0.4
	s0.9-0.2,1.2-0.4l0,0C19.6,23,27,16.9,27,10.5c0-1.2-0.3-2.3-0.9-3.3L15.7,17.7z"/>
</svg>
