<?xml version="1.0" encoding="utf-8"?>
<!-- Generator: Adobe Illustrator 25.0.0, SVG Export Plug-In . SVG Version: 6.00 Build 0)  -->
<svg version="1.1" id="Layer_1" xmlns="http://www.w3.org/2000/svg" xmlns:xlink="http://www.w3.org/1999/xlink" x="0px" y="0px"
	 viewBox="0 0 400 100" style="enable-background:new 0 0 400 100;" xml:space="preserve">
<style type="text/css">
	.st0{fill:#65C9DA;}
	.st1{fill:#F9D472;}
	.st2{fill:#FFFFFF;}
	.st3{fill:#D78C66;}
</style>
<g>
	<g>
		<path d="M208.3,37.3h10.9l0.1,14.9c-1.8,0.6-3.5,1-5.1,1.3c-1.6,0.2-3.4,0.4-5.3,0.4c-4.5,0-8-1.3-10.4-4
			c-2.4-2.6-3.7-6.4-3.7-11.2s1.3-8.5,4.1-11.2c2.7-2.7,6.5-4.1,11.3-4.1c3.1,0,6,0.6,8.8,1.8l-1.7,4c-2.4-1.1-4.8-1.6-7.2-1.6
			c-3.2,0-5.7,1-7.5,3s-2.7,4.7-2.7,8.2c0,3.6,0.8,6.4,2.5,8.3c1.7,1.9,4.1,2.8,7.2,2.8c1.6,0,3.2-0.2,5-0.6v-7.6l-3.4-0.1
			L208.3,37.3L208.3,37.3z"/>
		<path d="M242.4,42.1c0,3.7-0.9,6.5-2.8,8.6c-1.9,2.1-4.5,3.1-7.8,3.1c-2.1,0-4-0.5-5.6-1.4s-2.9-2.3-3.7-4.1
			c-0.9-1.8-1.3-3.8-1.3-6.2c0-3.6,0.9-6.5,2.8-8.5c1.9-2,4.5-3.1,7.9-3.1c3.2,0,5.8,1,7.7,3.1C241.4,35.7,242.4,38.5,242.4,42.1z
			 M226.1,42.1c0,5.2,1.9,7.8,5.8,7.8c3.8,0,5.7-2.6,5.7-7.8c0-5.1-1.9-7.7-5.7-7.7c-2,0-3.5,0.7-4.3,2
			C226.5,37.7,226.1,39.6,226.1,42.1z"/>
		<path d="M248.6,53.3h-2.1l-0.1-29.7l16.3-0.1l-1.9,1.9h-12.2V38H262l-2,2h-11.4V53.3z"/>
		<path d="M268.5,53.2h-2l-0.1-31.6l2,1.9L268.5,53.2z"/>
		<path d="M291.6,42.1c0,3.6-0.9,6.4-2.6,8.4s-4.1,3-7.2,3.1c-1.9,0-3.6-0.5-5.1-1.4s-2.6-2.3-3.4-4s-1.2-3.8-1.2-6
			c0-3.6,0.9-6.4,2.6-8.4s4.1-3,7.2-3c3,0,5.4,1,7.1,3C290.7,35.8,291.6,38.6,291.6,42.1z M274.2,42.2c0,3,0.7,5.4,2,7.1
			c1.3,1.7,3.2,2.5,5.7,2.5c2.4,0,4.3-0.9,5.6-2.6c1.3-1.7,2-4.1,2-7.1s-0.7-5.4-2-7.1c-1.4-1.7-3.2-2.5-5.7-2.5
			c-2.4,0-4.3,0.8-5.6,2.5C274.8,36.7,274.1,39.1,274.2,42.2z"/>
		<path d="M308.6,53.1l-0.5-3.5h-0.2c-1.1,1.4-2.2,2.4-3.4,3c-1.2,0.6-2.6,0.9-4.1,0.9c-2.2,0-3.9-0.5-5.1-1.6s-1.8-2.6-1.8-4.6
			c0-2.2,0.9-3.8,2.7-5c1.8-1.2,4.4-1.8,7.8-1.9l4.2-0.1v-1.5c0-2.1-0.4-3.7-1.3-4.7c-0.9-1.1-2.2-1.6-4.1-1.6c-2,0-4.2,0.6-6.3,1.7
			l-0.8-1.7c2.4-1.1,4.8-1.7,7.2-1.7c2.4,0,4.2,0.6,5.4,1.9c1.2,1.3,1.8,3.2,1.8,5.9v14.7L308.6,53.1z M300.5,51.7
			c2.4,0,4.2-0.7,5.6-2c1.4-1.4,2-3.2,2-5.6v-2.2l-3.9,0.2c-3.1,0.2-5.3,0.7-6.6,1.5c-1.3,0.8-2,2.1-2,3.8c0,1.4,0.4,2.5,1.3,3.2
			C297.7,51.3,298.9,51.7,300.5,51.7z"/>
		<path d="M321.4,51.7c1.3,0,2.4-0.1,3.3-0.3V53c-1,0.3-2.1,0.5-3.4,0.5c-1.9,0-3.4-0.5-4.3-1.5s-1.4-2.7-1.4-4.9V32.9h-3.3v-1.2
			l3.3-0.9v-5l2,1.9v3.4h6.5v1.7h-6.5v14c0,1.7,0.3,2.9,0.9,3.8C319.2,51.3,320.1,51.7,321.4,51.7z"/>
		<path d="M335.9,53.4c-3.2,0-5.7-1-7.5-2.9c-1.8-2-2.7-4.7-2.7-8.3c0-3.5,0.8-6.3,2.6-8.5c1.7-2.1,4.1-3.2,7-3.2
			c2.6,0,4.6,0.9,6.2,2.7c1.5,1.8,2.3,4.3,2.3,7.4v1.6l-15.9,0.1c0,3,0.8,5.3,2.1,6.9c1.4,1.6,3.4,2.4,6,2.4c1.3,0,2.4-0.1,3.3-0.3
			c1-0.2,2.2-0.6,3.6-1.1V52c-1.2,0.5-2.4,0.9-3.4,1.1C338.3,53.3,337.2,53.4,335.9,53.4z M335.2,32.3c-2.1,0-3.8,0.7-5.1,2.1
			c-1.3,1.4-2,3.4-2.2,6.1h13.6c0-2.6-0.6-4.6-1.7-6C338.7,33,337.2,32.3,335.2,32.3z"/>
		<path d="M357.2,30.5c0.9,0,1.9,0.1,3,0.3l-0.4,1.9c-0.9-0.2-1.9-0.3-2.9-0.3c-1.9,0-3.4,0.8-4.6,2.4c-1.2,1.6-1.8,3.6-1.8,6.1
			v12.2h-2L348.4,31l1.9,1.9v2h0.1c0.9-1.6,1.9-2.8,2.9-3.4C354.5,30.8,355.7,30.5,357.2,30.5z"/>
		<path d="M377.6,47.1c0,2-0.7,3.5-2.2,4.6s-3.6,1.6-6.4,1.6c-2.9,0-5.3-0.4-7-1.3v-2.2c2.2,1.1,4.6,1.6,7,1.6c2.2,0,3.8-0.4,5-1.1
			c1.1-0.7,1.7-1.7,1.7-2.9c0-1.1-0.5-2-1.4-2.8s-2.4-1.5-4.4-2.2c-2.2-0.8-3.8-1.5-4.7-2c-0.9-0.6-1.6-1.2-2-1.9
			c-0.5-0.7-0.7-1.6-0.7-2.6c0-1.7,0.7-3,2.1-3.9c1.4-1,3.3-1.5,5.8-1.5c2.4,0,4.6,0.4,6.8,1.3l-0.7,1.8c-2.2-0.9-4.2-1.3-6-1.3
			s-3.2,0.3-4.3,0.9c-1.1,0.6-1.6,1.4-1.6,2.5s0.4,2.1,1.2,2.8c0.8,0.7,2.4,1.5,4.8,2.3c2,0.7,3.4,1.4,4.3,1.9c0.9,0.6,1.6,1.2,2,2
			C377.3,45.3,377.6,46.1,377.6,47.1z"/>
	</g>
	<g>
		<path class="st0" d="M170.5,61.1c-2.1-0.8-4.3-0.7-6.5-0.7s-4.4-0.4-6.2-1.5c-0.8-0.5-1.5-1.1-2.2-1.7c-1.6-1.1-3.5-1.9-5.2-2.7
			c-2.4-1-5-0.9-7.5-0.9c-1.8,0-3.6-0.1-5.5-0.1c-5.1-0.1-10.2-0.1-15.3-0.1c-2.9,0-5.9,0-8.8,0c-0.1,0.2-0.4,0.4-0.7,0.4
			c-2.2,0.3-4.4,0.5-6.6,0.6c-4.4,0.6-8.7,1.2-13.1,1.4c-0.4,0-0.7-0.1-0.9-0.3c-2.6,0.4-5.2,0.6-7.8,0.8c-0.3,0-0.5,0-0.7-0.2
			c-0.6,0.3-1.2,0.7-1.8,1.1c-0.6,0.4-1.1,1.1-1.2,1.8c-1.3,0.1-2.6,0.3-3.9,0.4c-1.1,0.1-2.2,0.2-3.2,0.6c-0.8-0.5-1.8-0.6-2.7-0.1
			c-0.8,0.5-1.3,1.5-1.3,2.4c-0.4,1.1-0.1,2.3,1.1,3c1.7,1.1,3.4,2.1,5.2,3.1c1.1,0.7,2.3,1.4,3.5,1.8c0.1,0.1,0.2,0.1,0.2,0.1
			c4.1,2,8.3,3.7,12.7,4.9c4.4,1.2,9,1.9,13.5,2.5c4.7,0.6,9.4,1.3,14.1,1.9c4.2,0.6,8.5,1,12.7,0.9c0.8,0,1.6-0.1,2.3-0.1
			c5.8,0.5,11.8-0.5,17.2-2.7c1.4-0.3,2.9-0.7,4.3-1.3c6-2.4,10.9-6.7,15.6-11.2C173.2,64,172.2,61.8,170.5,61.1z"/>
		<g>
			<path class="st1" d="M180.1,66.8c-0.4-2.9-1-5.5-1.3-6.5c-0.7-2.3-2.3-14.1-6.6-11.2c-1.1,0.7-0.8,1.7-0.7,2.7
				c0.2,3.3-0.3,6.7-0.1,10.1c0.2,2.1,0.4,4.1,0.8,6.1c0.3,1.9,0.6,3.9,1.3,5.7c0.5,1.3,1.2,2.9,2.5,3.5
				C180.8,79.3,180.8,72.5,180.1,66.8z"/>
			<path d="M175.2,72.7c-0.1,0-0.1-0.1-0.2-0.1c0,0-0.1,0-0.2-0.1c-0.1-0.1-0.1-0.1-0.1-0.1s-0.1-0.1-0.2-0.1
				c-0.2-0.2-0.3-0.3-0.6-0.5c-0.4-0.4-0.7-0.8-1-1.2c-0.5-0.9-0.8-2-1-3s-0.3-2.1-0.3-3.1c-0.1-1-0.3-2-0.3-3.1
				c-0.1-2.1-0.1-4.1-0.1-6.1s0-4.1,0.6-6.2c0.2-0.5,0.4-1,0.7-1.5c0.1-0.2,0.3-0.5,0.5-0.7c0.1-0.1,0.3-0.2,0.5-0.3
				s0.4-0.1,0.7-0.1c0.4,0.1,0.7,0.3,0.9,0.5s0.4,0.4,0.6,0.6c0.4,0.4,0.7,0.9,0.9,1.4c0.9,2,1,4.1,1.1,6.1l0.3,3l0.1,1.5
				c0.1,0.5,0.2,1,0.3,1.5s0.1,1,0.1,1.5s0,1,0,1.5c0,1,0,2-0.1,3.1h-0.2c-0.1-1-0.2-2-0.3-3l-0.1-1.5c0-0.5-0.1-1-0.1-1.5
				s0-1,0-1.5l-0.2-1.5l-0.4-3c-0.1-1-0.2-2-0.4-3s-0.4-1.9-0.9-2.8c-0.2-0.4-0.5-0.8-0.8-1.1s-0.8-0.7-0.9-0.7
				c-0.1,0-0.1,0-0.2,0.1c-0.1,0.1-0.2,0.3-0.3,0.5c-0.2,0.4-0.4,0.8-0.5,1.3c-0.5,1.9-0.4,3.9-0.4,5.9c0,1-0.1,2.1-0.1,3.1
				c-0.1,1-0.1,2-0.1,3s0.1,2,0.1,3c0,1,0,2,0.2,3c0.1,1,0.3,2,0.7,2.8c0.2,0.4,0.5,0.8,0.8,1.2c0.2,0.2,0.4,0.4,0.5,0.6l0.1,0.1
				c0.1,0,0.1,0.1,0.1,0.1s0.1,0,0.1,0.1c0.1,0,0.1,0.1,0.2,0.1L175.2,72.7z"/>
			<path d="M179.9,61.8c0.5,1.7,0.7,3.6,0.9,5.3l0.1,1.3c0,0.4,0.1,0.9,0.1,1.4c0,0.9,0,1.8-0.2,2.8c-0.2,0.9-0.4,1.8-0.8,2.7
				c-0.4,0.9-0.9,1.7-1.8,2.2c-0.4,0.2-0.9,0.4-1.4,0.4s-1-0.1-1.5-0.2c-0.3,0-0.5-0.2-0.7-0.3c-0.2-0.1-0.4-0.3-0.6-0.5
				c-0.3-0.3-0.6-0.7-0.8-1.2l0.2-0.1c0.3,0.3,0.7,0.6,1,0.8c0.2,0.1,0.4,0.2,0.5,0.3c0.2,0.1,0.4,0.2,0.5,0.3
				c0.3,0.3,0.8,0.3,1.2,0.3s0.8-0.2,1.1-0.4c0.7-0.5,1-1.2,1.3-2c0.2-0.8,0.4-1.7,0.5-2.5s0.1-1.7,0.1-2.6s0.1-1.8,0.1-2.7
				c0.1-1.8,0.1-3.6-0.1-5.3L179.9,61.8z"/>
			<path d="M174.8,53c-0.4,0.6-0.6,1.2-0.6,1.9s0.1,1.4,0.3,2.1c0.2,0.7,0.4,1.4,0.5,2.1c0,0.4,0,0.8,0,1.2v0.3c0,0.1,0,0.2-0.1,0.4
				c0,0.1-0.1,0.1-0.1,0.1s0,0.1,0,0.2c0,0.1,0,0.2-0.1,0.3l-0.4-0.2c0,0-0.1,0-0.1-0.1c-0.1-0.1-0.1-0.4-0.1-0.4s0-0.1-0.1-0.2
				l-0.1-0.3l-0.3-1c-0.2-0.7-0.3-1.4-0.3-2.2s-0.1-1.5,0.1-2.3c0.1-0.8,0.5-1.5,1-2.1L174.8,53z"/>
		</g>
		<path d="M92.9,56.3c9.4-1.3,18.6-3.4,28-4.1c4.7-0.3,9.5-0.3,14.2-0.2l3.5,0.1c1.2,0,2.3,0,3.5,0c2.3-0.1,4.7-0.2,7.2,0.1
			c1.2,0.2,2.4,0.4,3.6,1c1.1,0.5,2.1,1.3,3.1,2c1.9,1.5,3.6,3,5.8,3.4s4.6,0.1,7,0.4c0.6,0.1,1.2,0.2,1.8,0.5
			c0.3,0.1,0.6,0.2,0.9,0.4c0.3,0.2,0.6,0.4,0.9,0.7c0.2,0.3,0.5,0.6,0.6,1c0.1,0.2,0.1,0.4,0.1,0.6c0,0.2,0,0.3,0,0.5
			c0,0.6-0.1,1.3-0.2,1.9c-0.5,2.5-2,4.7-3.8,6.3c-1.8,1.7-3.9,2.9-6,4c-2.2,1.1-4.4,1.9-6.6,2.7c-2.3,0.8-4.6,1.4-6.9,1.9
			c-4.7,1-9.4,1.5-14.1,1.7c-2.4,0.1-4.7,0.1-7.1,0.1c-2.4,0-4.7-0.1-7.1-0.2c-4.7-0.2-9.5-0.6-14.1-1.4c-2.3-0.4-4.7-0.9-7-1.5
			l-6.9-1.7c-4.6-1.1-9.2-2.4-13.5-4.3c-2.2-0.9-4.3-2-6.4-3.2c-0.5-0.3-1-0.6-1.5-0.9L71,67.6c-0.3-0.2-0.5-0.4-0.7-0.6
			s-0.5-0.4-0.6-0.5c-0.1,0-0.1-0.1-0.2-0.1l-0.1-0.1l-0.1-0.1C69.1,66,69,65.9,69,65.7c-0.1-0.1-0.1-0.2-0.2-0.4L68.5,65
			c-0.2-0.3-0.3-0.5-0.4-0.8c-0.3-0.6-0.4-1.2-0.4-1.9s0.4-1.3,0.8-1.8s1-0.8,1.6-1.1s1.1-0.5,1.7-0.6c2.3-0.7,4.7-0.8,7-1.1
			c2.4-0.3,4.7-0.5,7.1-0.6C88.2,56.8,90.6,56.6,92.9,56.3z M92.9,56.5c-2.3,0.3-4.7,0.5-7,0.8s-4.7,0.5-7,0.9s-4.7,0.6-6.9,1.2
			c-1.1,0.3-2.2,0.8-2.9,1.6c-0.4,0.4-0.6,0.8-0.6,1.3s0.1,1,0.3,1.6c0.1,0.3,0.2,0.5,0.4,0.8l0.2,0.4c0.1,0.1,0.2,0.3,0.2,0.4
			c0.1,0.1,0.1,0.2,0.2,0.3l0.1,0.1l0,0c0,0,0.1,0.1,0.2,0.1c0.3,0.2,0.5,0.4,0.7,0.6s0.4,0.4,0.7,0.5l0.7,0.5
			c0.5,0.3,1,0.6,1.5,0.9c2,1.2,4.1,2.2,6.3,3.1c4.3,1.8,8.9,3,13.5,4.1l6.9,1.6c2.3,0.5,4.6,1,6.9,1.4c4.6,0.7,9.3,1.1,14,1.3
			c9.4,0.2,18.9,0.1,28.1-1.9c2.3-0.5,4.5-1.1,6.8-1.9c2.2-0.8,4.4-1.6,6.5-2.7c2.1-1,4.1-2.3,5.7-3.8c1.7-1.5,3-3.5,3.4-5.6
			c0.1-0.5,0.2-1.1,0.2-1.6c0-0.1,0-0.3,0-0.4c0-0.1,0-0.2,0-0.3c-0.1-0.2-0.2-0.4-0.3-0.5c-0.1-0.2-0.3-0.3-0.5-0.4
			c-0.2-0.1-0.5-0.2-0.7-0.3c-0.5-0.2-1-0.3-1.6-0.4c-2.2-0.4-4.6,0-7.1-0.5c-1.2-0.3-2.4-0.8-3.4-1.5s-1.9-1.5-2.8-2.2
			c-0.9-0.7-1.8-1.4-2.8-1.9s-2.1-0.8-3.2-0.9c-2.3-0.3-4.6-0.2-7-0.2c-1.2,0-2.4,0-3.6,0l-3.5-0.1c-4.7-0.2-9.4-0.3-14.1,0
			s-9.4,0.9-14,1.7C102.3,55.1,97.6,56,92.9,56.5z"/>
		<path class="st1" d="M132.8,54.5c-0.5-0.4-1.2-0.8-2-0.8c-2.1-0.2-4.3,0-6.5,0c-3,0-6,0.3-9,0.7c-2.1,0.3-4.2,0.8-6.3,1.1
			c-5.6,0.7-11.6-0.2-16.8,2.5c-0.9,0.5-1.8,1-2,2.1c-0.2,1,0.4,2,1.2,2.4c0.8,0.4,1.6,0.5,2.5,0.6c1.1,0.2,2.2,0.5,3.3,0.6
			c3.3,0.1,6.7,0,10,0.1c2.9,0.1,5.9,0.4,8.8,0.3c3.3-0.1,6.5-0.4,9.8-1.2c1-0.2,2.1-0.2,3-0.6c0.6-0.3,1.2-0.7,1.8-1
			c1.1-0.6,2.5-1.2,3.1-2.3C134.5,57.3,134,55.5,132.8,54.5z"/>
		<g>
			<path class="st2" d="M133,37.2c0.4,0.7,1.3,1.2,1.8,1.8c0.8,0.9,1.5,1.8,2.2,2.7c0.8,0.9,1.6,1.7,2.2,2.7c0.6,1,1.1,2,2,2.8
				c1.7,1.6,5.7,0.1,6.4,3c0.2,0.8,0.1,1.9-0.8,2.2c-1.1,0.4-2.3-0.3-3.4-0.4c-1.1-0.1-2.2-0.3-3.1-1c-0.9-0.7-1.9-1.4-2.5-2.5
				c-0.8-1.5-2-2.6-3.2-3.9c-0.9-1-1.8-2.2-2.7-3.3"/>
			<path d="M133.2,37.1c0.5,0.7,1.3,1.1,2,1.8l1.8,2c0.6,0.7,1.2,1.3,1.8,1.9c0.6,0.7,1.2,1.5,1.6,2.2c0.2,0.4,0.5,0.7,0.7,1
				c0.1,0.2,0.3,0.3,0.4,0.4c0.1,0.1,0.1,0.1,0.2,0.2c0.1,0.1,0.1,0.1,0.2,0.1c0.3,0.2,0.6,0.3,1,0.4c0.4,0.1,0.8,0.1,1.2,0.2
				c0.9,0.1,1.8,0.2,2.9,0.8c0.5,0.3,0.9,0.8,1.2,1.3c0.1,0.3,0.2,0.5,0.2,0.8s0.1,0.5,0.1,0.8s-0.1,0.6-0.2,0.9
				c-0.1,0.3-0.3,0.6-0.6,0.8c-0.6,0.4-1.2,0.4-1.7,0.4c-1.1-0.1-1.8-0.5-2.6-0.6c-0.9-0.1-1.9-0.3-2.7-0.9
				c-0.2-0.1-0.4-0.3-0.6-0.4l-0.5-0.4c-0.3-0.3-0.7-0.6-1-0.9c-0.3-0.3-0.6-0.7-0.9-1.1c-0.2-0.4-0.4-0.7-0.7-1.1
				c-0.2-0.4-0.5-0.7-0.8-1s-0.6-0.6-1-0.9c-0.4-0.3-0.7-0.6-0.9-1c-0.3-0.3-0.6-0.7-0.8-1.1c-0.5-0.7-1-1.5-1.5-2.2l0.2-0.2
				c0.6,0.6,1.2,1.3,1.8,1.9l0.9,1c0.3,0.3,0.6,0.6,0.9,1c0.3,0.4,0.5,0.7,0.8,1.1c0.3,0.3,0.6,0.7,0.9,1c0.3,0.4,0.5,0.8,0.8,1.1
				c0.2,0.3,0.5,0.7,0.8,0.9c0.3,0.3,0.6,0.5,1,0.8l0.5,0.4c0.2,0.1,0.3,0.2,0.5,0.3c0.7,0.4,1.5,0.5,2.4,0.6c1,0.1,1.9,0.4,2.6,0.5
				c0.3,0,0.7-0.1,0.8-0.2c0.1-0.1,0.2-0.3,0.2-0.7c0-0.2,0-0.3-0.1-0.5c0-0.2-0.1-0.3-0.2-0.5c-0.1-0.3-0.3-0.5-0.6-0.6
				c-0.6-0.3-1.4-0.4-2.3-0.5c-0.4-0.1-0.9-0.1-1.4-0.3c-0.5-0.1-1-0.3-1.4-0.7c-0.1-0.1-0.2-0.2-0.3-0.3s-0.2-0.2-0.3-0.3
				c-0.2-0.2-0.3-0.4-0.4-0.6c-0.3-0.4-0.5-0.8-0.7-1.2c-0.4-0.8-0.8-1.5-1.4-2.2c-0.5-0.7-1.1-1.3-1.7-2.1l-1.6-2.1
				c-0.5-0.7-1.3-1.1-1.8-2L133.2,37.1z"/>
		</g>
		<g>
			<g>
				<path class="st2" d="M127.7,12.7c-1.1,0.1-2.5,0.1-3.5-0.3c-1.3-0.5-2.7-0.8-3.9-1.3c-0.9-0.4-1.8-1-2.7-1.4
					c-0.5-0.2-1.1-0.6-1.7-0.7c-1.4-0.3-3-0.2-3.6,1.3c-0.4,0.8-0.5,1.7-0.2,2.6c1.5,5.1,10.3,3,13.8,3.7"/>
				<path d="M127.7,12.9c-0.7,0.1-1.5,0.2-2.2,0.1c-0.4,0-0.8-0.1-1.1-0.2c-0.4-0.1-0.7-0.2-1-0.3c-0.7-0.2-1.4-0.4-2.1-0.6
					c-0.4-0.1-0.7-0.2-1.1-0.3s-0.7-0.3-1-0.5c-0.7-0.3-1.3-0.7-1.9-0.9c-0.4-0.2-0.7-0.3-1-0.4c-0.3-0.1-0.5-0.2-0.9-0.2
					c-0.7-0.1-1.3-0.1-1.8,0.2c-0.5,0.2-0.8,0.7-1,1.3s-0.2,1.2,0,1.8s0.5,1.1,1,1.5c0.9,0.8,2.3,1.2,3.6,1.4
					c1.4,0.2,2.8,0.2,4.2,0.2c0.7,0,1.5,0,2.2,0.1s1.5,0.2,2.2,0.4l-0.1,0.4c-1.4,0-2.8,0.2-4.3,0.2c-1.5,0.1-2.9,0.1-4.4-0.1
					c-0.8-0.1-1.5-0.2-2.3-0.5c-0.7-0.3-1.5-0.6-2.1-1.2c-0.6-0.6-1.1-1.3-1.3-2.1c-0.3-0.8-0.2-1.7,0-2.5c0.1-0.4,0.3-0.8,0.6-1.1
					c0.3-0.4,0.6-0.7,1-0.9c0.8-0.4,1.7-0.3,2.5-0.2c0.2,0,0.4,0.1,0.6,0.1c0.2,0.1,0.4,0.1,0.6,0.2c0.4,0.2,0.7,0.3,1,0.5
					c0.7,0.3,1.3,0.7,2,1c1.2,0.7,2.6,1,4,1.5c0.3,0.1,0.7,0.3,1,0.4c0.3,0.1,0.7,0.2,1,0.2c0.7,0.1,1.4,0.1,2.1,0.1L127.7,12.9z"/>
			</g>
			<g>
				<path class="st2" d="M125.3,12.5c1.5-0.9,3.5-0.6,5.1-0.4c1.2,0.2,2.4,0,3.6,0.5c1.2,0.4,1.9,1.7,2.9,2.4c1.3,1,2.7,1.3,4.3,1.5
					c0.5,0.1,0.8,0.3,1.2,0.3c0.5,0.1,1,0.1,1.5,0.2c0.6,0.1,1.1-0.1,1.7,0c1,0.3,1.1,1,0.8,1.9c-0.2,0.7-0.5,1.3-0.9,1.9
					c-0.1,0.2-0.3,0.5-0.4,0.7c-0.3,0.7-0.4,0.9-1,1.4c-0.5,0.4-1,0.7-1.6,0.9c-0.4,0.1-0.8,0.2-1.3,0.3c-0.9,0.1-1.9,0.3-2.8,0.5
					c-1,0.1-2,0.2-2.9,0.8c-0.8,0.6-1.9,1.2-2.4,2.1c-0.4,0.8-0.3,2-0.3,2.9c0,2.7,0.5,5.5,0.7,8.2c0.1,2.3-0.9,4.3-1.9,6.2
					c-1.4,2.6-2.7,5.4-5.1,7.1c-1.5,1.1-3.1,1.7-4.6,2.6c-0.7,0.4-1.8,1.3-1.9,2.1c1.2,0.1,2.7-0.2,3.9,0c2,0.4,3.4,2.3,4,4.2
					c1.1,3.6-2.8,6.3-5.3,7.5c-3.7,1.8-7.6,1.4-11.5,1.4c-2.3,0-5.2-0.1-6.7-2.2c-2.2-3.2-3.4-7-2.6-10.9c1-4.9,3-10.4,5.4-14.8
					c2.4-4.6,6.7-7.8,9.3-12.2c1.1-1.8,1.6-4,2.7-5.9c0.3-0.6,0.3-1.2,0.6-1.8c0.2-0.6,0.7-1.1,1.1-1.6c0.3-0.6,0.7-1.1,1-1.7
					c0.2-0.3,0.4-0.7,0.6-1C123.2,16,123.8,13.8,125.3,12.5C125.1,12.7,125.2,12.6,125.3,12.5z"/>
				<path d="M125.2,12.4c0.7-0.4,1.5-0.6,2.3-0.6s1.6,0.1,2.4,0.2c0.8,0.1,1.5,0.2,2.3,0.2c0.8,0.1,1.6,0.2,2.3,0.7s1.2,1.1,1.8,1.6
					s1.2,1,1.9,1.3c0.7,0.3,1.5,0.5,2.2,0.6l0.6,0.1c0.2,0,0.4,0.1,0.6,0.1c0.4,0.1,0.7,0.2,1.1,0.3L144,17c0.4,0,0.7-0.1,1.2,0
					c0.4,0,0.9,0.1,1.2,0.5c0.2,0.2,0.3,0.4,0.3,0.6s0,0.4,0,0.6c-0.2,0.8-0.5,1.5-0.9,2.2c-0.2,0.4-0.4,0.7-0.5,1
					c-0.2,0.4-0.4,0.8-0.7,1c-0.6,0.5-1.3,1-2.1,1.2c-0.4,0.1-0.8,0.2-1.2,0.3c-0.4,0.1-0.8,0.1-1.2,0.2c-0.8,0.1-1.6,0.3-2.3,0.4
					c-0.8,0.1-1.5,0.3-2.1,0.7c-0.7,0.4-1.3,0.9-1.8,1.4c-0.2,0.3-0.4,0.6-0.5,1s-0.1,0.7-0.1,1.1c0,0.8,0,1.6,0.1,2.3
					c0,0.8,0.1,1.6,0.2,2.3c0.2,1.6,0.4,3.1,0.5,4.7c0.1,1.6-0.4,3.2-1.1,4.7c-0.3,0.7-0.7,1.4-1.1,2.1c-0.4,0.7-0.7,1.4-1.1,2.1
					c-0.8,1.4-1.7,2.8-2.8,3.9c-1.2,1.2-2.6,1.9-4,2.7c-0.3,0.2-0.7,0.4-1,0.6c-0.2,0.1-0.3,0.2-0.5,0.3c-0.1,0.1-0.3,0.2-0.4,0.3
					c-0.3,0.2-0.5,0.5-0.7,0.8c-0.2,0.2-0.3,0.6-0.2,0.6l0,0l-0.9-1c0.9,0.1,2-0.1,3.1,0c0.6,0,1.2,0.2,1.8,0.4
					c0.6,0.3,1.1,0.6,1.5,1c0.9,0.8,1.5,1.9,1.9,2.9c0.2,0.5,0.4,1.1,0.4,1.8c0,0.6-0.1,1.3-0.3,1.8c-0.4,1.2-1.2,2.1-2,2.9
					s-1.8,1.4-2.7,1.9c-0.9,0.5-2,1-3.1,1.3s-2.2,0.5-3.2,0.6c-2.2,0.2-4.3,0.1-6.4,0.1c-1.1,0-2.2,0-3.3-0.2
					c-1.1-0.2-2.3-0.6-3.2-1.3c-0.5-0.4-0.9-0.9-1.2-1.4c-0.3-0.5-0.6-0.9-0.9-1.4c-0.5-1-1-2-1.3-3.1c-0.6-2.1-0.8-4.4-0.3-6.6
					c0.9-4.2,2.3-8.2,4.1-12.1c0.5-1,0.9-1.9,1.4-2.9s1.1-1.9,1.8-2.7c1.3-1.7,2.7-3.3,4.1-4.9c1.4-1.6,2.7-3.2,3.7-5
					c0.5-0.9,0.9-1.9,1.3-2.8c0.2-0.5,0.4-1,0.7-1.5c0.1-0.2,0.2-0.5,0.4-0.7l0.2-0.4c0.1-0.1,0.1-0.2,0.2-0.3
					c0.2-0.4,0.2-1,0.5-1.5s0.7-0.9,0.9-1.3c0.5-0.9,1.2-1.8,1.6-2.7c0.4-0.9,0.8-1.9,1.3-2.9C123.7,14,124.3,13,125.2,12.4z
					 M125.4,12.7c-0.8,0.6-1.4,1.5-1.8,2.4c-0.4,0.9-0.8,1.9-1.2,2.9c-0.2,0.5-0.5,0.9-0.8,1.4s-0.5,0.9-0.8,1.4s-0.7,0.9-0.8,1.3
					c-0.2,0.4-0.2,0.9-0.4,1.5c-0.1,0.1-0.1,0.3-0.2,0.4l-0.2,0.3c-0.1,0.2-0.2,0.5-0.3,0.7c-0.2,0.5-0.4,1-0.6,1.4
					c-0.4,1-0.7,2-1.2,3c-1,2-2.3,3.6-3.7,5.3c-1.4,1.6-2.8,3.2-4,4.8c-0.6,0.8-1.2,1.7-1.7,2.6c-0.5,0.9-0.9,1.9-1.4,2.8
					c-1.7,3.8-3.1,7.8-3.9,11.9c-0.4,2-0.3,4,0.3,5.9c0.3,1,0.7,1.9,1.2,2.8c0.2,0.4,0.5,0.9,0.8,1.3c0.3,0.5,0.5,0.8,0.9,1
					c0.7,0.6,1.6,0.9,2.6,1c1,0.2,2,0.2,3,0.2c2.1,0,4.2,0.1,6.3-0.1c2-0.2,4-0.7,5.7-1.7c0.9-0.5,1.7-1.1,2.4-1.7
					c0.7-0.7,1.3-1.4,1.6-2.3c0.1-0.4,0.2-0.8,0.2-1.3c0-0.4-0.1-0.8-0.3-1.3c-0.4-0.9-0.9-1.7-1.5-2.3c-0.3-0.3-0.7-0.5-1.1-0.7
					s-0.8-0.2-1.3-0.2c-0.9,0-2,0.2-3.2,0.1h-1.1l0.2-1l0,0c0.1-0.4,0.2-0.6,0.4-0.9c0.2-0.2,0.3-0.4,0.5-0.6
					c0.3-0.3,0.7-0.6,1.1-0.8c0.2-0.1,0.4-0.2,0.6-0.3l0.6-0.3c0.4-0.2,0.7-0.3,1.1-0.5c0.7-0.3,1.4-0.6,2.1-1s1.3-0.8,1.9-1.3
					c1.2-1,2.1-2.3,2.8-3.6c0.4-0.7,0.8-1.4,1.1-2.1c0.4-0.7,0.7-1.4,1.1-2.1c0.7-1.4,1.1-2.9,1.1-4.4c-0.1-1.6-0.3-3.1-0.4-4.7
					c-0.1-0.8-0.1-1.6-0.2-2.4c0-0.4,0-0.8,0-1.2c0-0.4,0-0.8,0-1.2c0-0.4,0-0.8,0.2-1.2c0.1-0.4,0.3-0.8,0.6-1.1
					c0.5-0.6,1.2-1.1,1.9-1.5c0.7-0.5,1.5-0.7,2.3-0.8c0.8-0.1,1.6-0.2,2.3-0.4c0.4-0.1,0.8-0.1,1.2-0.2s0.8-0.1,1.1-0.2
					c0.7-0.2,1.4-0.6,2-1.1c0.3-0.2,0.5-0.6,0.6-0.9c0.2-0.4,0.4-0.7,0.5-1.1c0.4-0.7,0.7-1.4,0.9-2.1c0.1-0.4,0.1-0.7-0.2-1
					c-0.2-0.2-0.6-0.4-1-0.4s-0.8,0.1-1.2,0l-1.2-0.2c-0.2,0-0.4-0.1-0.6-0.1c-0.2-0.1-0.4-0.1-0.6-0.2c-0.2-0.1-0.4-0.1-0.5-0.1
					l-0.6-0.1c-0.8-0.1-1.6-0.3-2.3-0.6c-0.7-0.3-1.4-0.8-2-1.3c-0.6-0.6-1.1-1.2-1.7-1.6c-0.6-0.4-1.4-0.5-2.2-0.6
					s-1.6-0.1-2.4-0.2c-0.8-0.1-1.6-0.2-2.3-0.2C126.8,12.1,126,12.3,125.4,12.7z"/>
			</g>
			<path d="M144.1,19.6l-0.1-0.1c-0.5-0.6-0.2-1.4,0.2-1.9c0.6-0.6,1.6-0.7,2.3-0.5c0.8,0.2,1.4,1.1,1.1,1.9
				c-0.3,0.7-1.2,0.8-1.8,0.9C145.3,19.9,144.6,20,144.1,19.6z"/>
			<g>
				<path class="st2" d="M124.8,18.5c-0.3,0.4-0.5,0.7-0.9,0.8c-0.4,0.2-0.8,0.4-1.2,0.5c-0.5,0.1-1,0.1-1.4,0.2
					c-1.1,0-2.2,0-3.3-0.1c-1.6-0.1-3.3-0.8-4.7-0.9c-1.3-0.1-2,0.1-2.6,1.2s-0.6,2.8,0.1,3.8c1.3,1.6,3.3,2.2,5.4,2.1
					c2.3-0.1,6-0.5,7.9-2.1c0.5-0.5,1-1,1.5-1.5c0.7-0.7,1-1.7,1.3-2.6"/>
				<path d="M125,18.6c-0.2,0.3-0.5,0.7-0.9,0.9c-0.4,0.2-0.7,0.4-1.1,0.5c-0.8,0.3-1.7,0.3-2.5,0.3s-1.6,0-2.4,0
					c-0.9,0-1.7-0.2-2.5-0.4c-0.8-0.2-1.6-0.4-2.3-0.4c-0.4,0-0.8,0-1.1,0c-0.3,0.1-0.5,0.2-0.7,0.4c-0.4,0.5-0.6,1.2-0.7,1.9
					c0,0.7,0.1,1.4,0.5,1.9c0.9,1.1,2.3,1.7,3.8,1.8c0.4,0,0.7,0,1.1,0s0.8,0,1.2-0.1c0.8-0.1,1.6-0.2,2.3-0.3
					c1.5-0.3,3-0.8,4.1-1.7c0.3-0.2,0.6-0.5,0.8-0.8c0.1-0.1,0.3-0.3,0.5-0.4c0.1-0.1,0.3-0.2,0.4-0.4c0.5-0.5,0.8-1.3,1.1-2
					l0.3,0.1c-0.1,0.8-0.3,1.6-0.7,2.4c-0.1,0.2-0.3,0.4-0.4,0.6l-0.4,0.4c-0.3,0.3-0.5,0.6-0.8,0.9s-0.7,0.6-1.1,0.8
					c-0.4,0.2-0.8,0.4-1.2,0.6c-0.8,0.3-1.6,0.5-2.4,0.7s-1.6,0.3-2.5,0.3c-0.4,0-0.8,0.1-1.2,0.1c-0.4,0-0.9,0-1.3,0
					c-0.9-0.1-1.7-0.3-2.5-0.7c-0.8-0.4-1.5-1-2.1-1.7c-0.3-0.4-0.5-0.9-0.6-1.3c-0.1-0.5-0.1-0.9-0.1-1.4c0.1-0.9,0.4-1.8,1-2.5
					c0.3-0.4,0.8-0.6,1.3-0.7s0.9,0,1.3,0c0.9,0.1,1.7,0.3,2.4,0.6c0.8,0.2,1.5,0.4,2.3,0.5s1.6,0.1,2.4,0.1s1.6,0,2.3-0.1
					c0.4-0.1,0.7-0.3,1.1-0.4c0.3-0.1,0.6-0.4,0.8-0.7L125,18.6z"/>
			</g>
			<g>
				<path d="M112.3,44.2c-0.5,1-0.8,2.1-1.3,3.1c-0.1,0.2,0.5,0.6,0.4,0.7c0.5-1,0.8-2.1,1.3-3.1C112.8,44.7,112.3,44.3,112.3,44.2
					L112.3,44.2z"/>
			</g>
			<g>
				<path d="M111.5,40.7c-0.6,1.1-1,2.3-1.4,3.4c-0.1,0.2,0.5,0.6,0.4,0.7c0.4-1.2,0.8-2.3,1.4-3.4C112,41.2,111.5,40.7,111.5,40.7
					L111.5,40.7z"/>
			</g>
			<g>
				<path d="M108.7,46.6c-0.5,1.2-1.5,2.2-1.6,3.5c0,0.2,0.5,0.5,0.4,0.7c0.2-1.3,1.1-2.4,1.6-3.5C109.2,47.1,108.6,46.7,108.7,46.6
					L108.7,46.6z"/>
			</g>
			<g>
				<path d="M138.8,20.7c0.3,0.5,0.6,0.9,1.1,1.1c0.1,0,0.2,0.1,0.4,0.1c0.1,0,0.3,0.1,0.4,0.1c0.3,0.1,0.5,0.1,0.8,0.2
					c0.5,0.1,1.1,0,1.7-0.1c0.3,0,0.6,0,0.9-0.1c0.3,0,0.6-0.1,0.8-0.2l0.2,0.3c-0.3,0.2-0.6,0.3-0.9,0.4c-0.3,0.1-0.6,0.1-0.9,0.2
					c-0.6,0.2-1.2,0.3-1.9,0.2c-0.3,0-0.6-0.1-0.9-0.2c-0.2,0-0.3-0.1-0.4-0.1c-0.1,0-0.3-0.1-0.5-0.2c-0.7-0.4-1-1-1.1-1.6
					L138.8,20.7z"/>
			</g>
		</g>
		<path class="st2" d="M136.7,12.8c-1.4-0.5-2.9-0.6-4.2,0.2c-0.7,0.5-1,1.5-0.6,2.3s1.5,1.1,2.2,0.6c0.3-0.2,0-0.1,0.3-0.1
			c-0.1,0,0.3,0,0.3,0c0.3,0,0.7,0.2,1,0.3c0.8,0.3,1.8-0.4,2-1.2C138.1,13.9,137.6,13.1,136.7,12.8z"/>
		<path class="st0" d="M136.8,69.1c-0.9,0.4-1.8,0.9-2.9,1.2c-0.5,0.1-1,0.2-1.5,0.4c-1,0.3-2.1,0.5-3.3,0.7c-1.5,0.3-3,0.5-4.5,0.8
			c-0.9,0.1-1.9,0.2-2.8,0.3c-1.4,0.1-3,0.4-4.4,0.4c-3,0.1-6,0-9,0c-1.6,0-3.1,0-4.7-0.2c-1.2-0.2-2.5-0.4-3.7-0.6
			c-0.7-0.1-1.3-0.3-1.9-0.5c-0.7-0.2-1.2-0.5-1.7-0.9c-0.9-0.6-1.6-1.2-2.3-1.9c-0.7-0.6-1.2-1.6-1.2-2.6c0-1.7,1.2-2.5,2.6-2.4
			c1.8,0,3.5,0.9,5.2,0.9c1.4,0,2.6-0.1,4-0.3c0.9-0.1,1.9-0.4,2.8-0.4c1.1,0,2.1,0.1,3.2,0.1c2,0,4.1,0.1,6.1,0
			c0.8,0,1.6-0.2,2.4-0.4c0.2,0,0.4,0,0.6-0.1c0.1,0,0.2-0.1,0.3-0.1c0.2-0.1,0.4-0.1,0.6-0.2c0.2-0.1,0.5-0.1,0.7-0.2
			c0.2,0,0.3,0,0.5,0s0.3-0.1,0.5-0.1c0.4,0,0.8,0,1.2,0c0.7,0,1.4-0.1,2-0.2c0.3-0.1,0.7-0.1,1-0.2c0.2-0.1,0.3-0.1,0.5-0.1
			c0.1,0,0.1,0,0.2,0s0.1-0.1,0.2-0.1c0.2-0.1,0.5-0.1,0.7-0.1c0.1,0,0.2-0.2,0.4-0.2c0.1,0,0.3,0,0.4,0c0.2,0,0.4,0,0.6,0
			c0.1,0,0.2,0,0.3,0s0.2,0.1,0.3,0.1c1,0.1,1.9-0.1,2.9-0.1c0.9,0.1,1.6,0.4,2.3,0.7c1.3,0.5,2.8,1.3,3.1,2.2
			c0.1,0.3,0.2,0.5,0.3,0.8c0.1,0.2,0,0.5,0,0.8c0,0.4,0.2,0.9-0.3,1.1c-0.4,0.2-0.9,0.2-1.2,0.5C137,68.5,137.1,68.7,136.8,69.1z"
			/>
		<g>
			<path class="st0" d="M143.1,73.4c-0.3,0.2-0.5,0.2-0.8,0.5c-0.1,0.1-0.3,0.2-0.4,0.3c-4.6,2.6-9.1,5.4-13.8,7.8
				c-4.8,2.4-9.8,4.2-15,5.5c-3,0.8-5.9,1.7-8.8,2.6c-1.4,0.4-7.8,2.5-8.1-0.4c-0.2-1.6,2.4-3.2,3.4-4.1c2.3-1.9,4.6-3.6,7-5.3
				c2-1.4,4.1-2.5,6-4c1.7-1.3,3.2-3.2,5.5-3.5"/>
			<path d="M143.1,73.5c-0.2,0.1-0.4,0.2-0.5,0.3c-0.1,0.1-0.1,0.1-0.2,0.2c-0.1,0.1-0.2,0.1-0.3,0.2l-1.1,0.6l-2.1,1.3l-4.3,2.6
				c-2.9,1.7-5.7,3.4-8.7,4.8c-1.5,0.7-3,1.4-4.6,2s-3.1,1.2-4.7,1.7s-3.2,0.9-4.8,1.3l-4.8,1.4l-2.4,0.7c-0.8,0.2-1.6,0.5-2.4,0.6
				c-0.8,0.2-1.7,0.4-2.5,0.4c-0.9,0.1-1.8,0.1-2.7-0.2c-0.5-0.2-0.9-0.6-1.1-1.1s-0.2-1.1,0-1.5c0.4-0.9,1.1-1.5,1.7-2.1
				c0.7-0.6,1.3-1,2-1.5s1.3-1,2-1.5c1.3-1,2.7-2,4.1-2.9c1.4-1,2.8-1.8,4.1-2.8c0.7-0.5,1.4-0.9,2-1.4c0.7-0.5,1.3-1,1.9-1.5
				s1.3-1.1,2-1.5s1.6-0.8,2.4-0.8V73c-1.6,0.4-2.8,1.5-4,2.6s-2.6,2.2-4,3c-0.7,0.4-1.5,0.8-2.2,1.2c-0.7,0.5-1.4,0.9-2,1.4
				c-1.3,1-2.7,2-4,3c-0.7,0.5-1.3,1-1.9,1.6c-0.6,0.5-1.3,1-1.9,1.6c-0.6,0.5-1.2,1.1-1.4,1.8c-0.1,0.3-0.1,0.6,0,0.9
				s0.3,0.4,0.6,0.6c0.6,0.2,1.5,0.2,2.2,0.1c0.8-0.1,1.6-0.3,2.4-0.5s1.6-0.5,2.4-0.7l2.4-0.7l4.8-1.4c1.6-0.5,3.2-0.9,4.8-1.4
				c3.1-1,6.3-2,9.3-3.3c3-1.3,6-2.9,8.9-4.4l4.3-2.4l2.2-1.2l1.1-0.6c0.1,0,0.2-0.1,0.2-0.2c0.1-0.1,0.2-0.1,0.3-0.2
				c0.2-0.1,0.4-0.2,0.6-0.3L143.1,73.5z"/>
		</g>
		<g>
			<path class="st0" d="M73.2,66.3c-1.8,1.3-3.7,2.4-5.4,3.9c-1,0.9-2.1,1.7-3,2.7c-0.3,0.4-2.1,2.2-0.7,2.3
				c0.8,0.1,1.5-0.2,2.3-0.5c2.7-1,5.5-1.7,8.3-2.4c2.9-0.7,5.7-1.7,8.5-2.5c0.9-0.3,2-0.4,2.8-0.9"/>
			<path d="M73.3,66.4c-1.2,1-2.5,1.8-3.6,2.8c-0.6,0.5-1.2,0.9-1.7,1.5c-0.6,0.5-1.1,1-1.7,1.6c-0.5,0.5-1,1.1-1.5,1.6
				c-0.2,0.3-0.4,0.6-0.5,0.8c0,0.1,0,0.1,0,0.1l0,0v-0.1c0,0,0-0.1-0.1-0.1l0,0l0,0c0,0,0,0,0.1,0c0.6,0.1,1.2-0.2,1.9-0.4
				c0.7-0.3,1.5-0.5,2.2-0.7c1.5-0.4,3-0.8,4.5-1.1c1.5-0.3,3-0.6,4.4-1l2.2-0.6l1.1-0.3c0.4-0.1,0.7-0.3,1.1-0.4
				c0.4-0.2,0.7-0.3,1.1-0.4s0.8-0.2,1.1-0.2c0.8-0.1,1.5-0.2,2.2-0.5l0.1,0.2c-0.6,0.5-1.4,0.7-2.2,1c-0.4,0.1-0.7,0.2-1.1,0.3
				c-0.4,0.1-0.7,0.2-1.1,0.3c-0.4,0.1-0.8,0.1-1.1,0.2l-1.1,0.4l-2.2,0.7C76,72.6,74.5,73,73,73.4s-2.9,0.8-4.3,1.3
				c-0.7,0.2-1.4,0.5-2.1,0.8s-1.5,0.6-2.5,0.6c-0.1,0-0.2,0-0.2,0c-0.1,0-0.1,0-0.3-0.1c-0.1,0-0.2-0.1-0.3-0.2s-0.2-0.2-0.3-0.3
				c-0.1-0.1-0.1-0.3-0.1-0.4s0-0.2,0-0.3c0-0.2,0.1-0.3,0.1-0.4c0.2-0.5,0.5-0.8,0.8-1.1c0.5-0.6,1.1-1.1,1.7-1.6s1.2-0.9,1.8-1.4
				c0.6-0.5,1.2-0.9,1.9-1.4c1.3-0.9,2.6-1.6,3.9-2.4L73.3,66.4z"/>
		</g>
		<path d="M93.1,57.3C92,57.4,91,58,90.4,58.8c-0.3,0.4-0.5,0.9-0.4,1.4s0.4,0.9,0.8,1.2c1.6,1.5,3.7,2.2,5.8,2.5
			c1.1,0.2,2.2,0.3,3.3,0.3c1.1,0,2.2,0,3.3,0c2.2,0,4.5-0.2,6.7-0.2c4.5,0,9,0.2,13.3-0.6c1.1-0.2,2.2-0.4,3.2-0.8
			c1.1-0.3,2.1-0.7,3-1.3c0.5-0.3,1-0.5,1.4-0.8c0.5-0.3,0.9-0.6,1.4-0.9c0.9-0.6,1.8-1.3,2.6-2l0.2,0.2c-0.7,0.9-1.5,1.7-2.4,2.4
			c-0.4,0.4-0.9,0.7-1.4,1s-1,0.6-1.5,0.8s-1.1,0.4-1.6,0.6c-0.5,0.2-1.1,0.4-1.6,0.6c-1.1,0.4-2.2,0.6-3.3,0.9
			c-4.4,0.9-9,0.9-13.4,1.1c-2.2,0.1-4.4,0.3-6.7,0.3c-1.1,0-2.3,0-3.4-0.1s-2.3-0.2-3.4-0.5c-1.1-0.2-2.2-0.6-3.3-1.1
			c-1-0.5-2-1.2-2.8-2c-0.4-0.4-0.8-1-0.9-1.6c-0.1-0.7,0.2-1.3,0.6-1.7c0.4-0.5,0.9-0.8,1.4-1.1S92.4,57,93,57L93.1,57.3z"/>
		<g>
			<path class="st2" d="M103.4,63.6c-0.3,0-0.6,0-0.9-0.1c-0.9-0.2-1.6-0.2-2.4-0.8c-0.8-0.5-1.5-1-2.3-1.5c-4.2-3.1-6.6-8.2-6-13.6
				c0.1-1.1,0.5-2.4,0.9-3.4c0.7-1.6,1.5-3.2,2.5-4.6c0.6-0.8,1.3-1.8,2.1-2.5c0.3-0.3,1.1-0.9,1.6-0.7c0.9,0.3-0.4,1.7-0.6,2
				C97,40.3,96,41,95.1,43.7c-1,2.9-1,7.8,0.5,10.9c0.7,1.5,2,2.7,3,3.6c0.5,0.4,1,0.9,1.7,1.1c0.9,0.4,1.9,0.4,2.9,0.1"/>
			<path d="M103.4,63.9c-0.3,0-0.7,0-1.1-0.1l-1-0.2c-0.3-0.1-0.7-0.2-1.1-0.3c-0.2-0.1-0.3-0.2-0.5-0.3l-0.4-0.3l-1.7-1.1
				c-0.3-0.2-0.6-0.4-0.8-0.6c-0.3-0.2-0.5-0.5-0.8-0.7c-2.1-1.9-3.6-4.4-4.3-7.1c-0.4-1.4-0.5-2.8-0.5-4.2c0-0.4,0-0.7,0.1-1.1
				c0-0.3,0.1-0.7,0.1-1.1c0.1-0.7,0.3-1.4,0.5-2c0.2-0.7,0.5-1.3,0.8-1.9c0.3-0.6,0.6-1.2,1-1.8s0.7-1.2,1.2-1.7
				c0.4-0.5,0.8-1.1,1.3-1.6s1-1,1.6-1.4c0.2-0.1,0.3-0.2,0.5-0.2c0.2-0.1,0.4-0.1,0.6-0.1c0.1,0,0.1,0,0.2,0.1c0.1,0,0.1,0,0.2,0.1
				s0.2,0.2,0.2,0.4c0,0.3,0,0.5-0.1,0.6c-0.2,0.3-0.4,0.6-0.6,0.9c-0.1,0.1-0.2,0.3-0.3,0.4L98.2,39L97,40.6
				c-0.8,1.1-1.3,2.3-1.7,3.6c-0.4,1.3-0.5,2.6-0.5,4c0,1.3,0.1,2.7,0.4,4s0.8,2.5,1.6,3.6c0.8,1,1.8,2,2.9,2.7
				c0.5,0.4,1.1,0.6,1.7,0.7c0.6,0.1,1.2,0,1.8-0.2l0.3,0.9c-0.7,0.2-1.5,0.3-2.2,0.1c-0.7-0.1-1.4-0.5-2-0.9
				c-1.1-0.9-2.1-1.8-2.9-3c-0.8-1.1-1.4-2.5-1.7-3.8c-0.3-1.4-0.4-2.7-0.4-4.1c0-1.4,0.2-2.7,0.6-4.1c0.4-1.3,1-2.6,1.8-3.7
				c0.4-0.6,0.8-1.1,1.2-1.6l0.3-0.4c0.1-0.2,0.2-0.3,0.3-0.4c0.2-0.3,0.4-0.5,0.5-0.8c0.1-0.1,0.1-0.3,0.1-0.3l0,0l0,0H99
				c-0.2,0-0.5,0.1-0.7,0.3c-0.5,0.4-1,0.8-1.4,1.3s-0.8,1.1-1.2,1.6c-0.4,0.6-0.7,1.1-1,1.7c-0.3,0.6-0.6,1.2-0.9,1.8
				s-0.5,1.2-0.7,1.8c-0.4,1.2-0.6,2.5-0.6,3.8s0.1,2.6,0.5,3.9c0.7,2.5,2,4.9,3.9,6.7c0.2,0.2,0.5,0.5,0.7,0.7
				c0.3,0.2,0.5,0.4,0.8,0.6l1.6,1.2l0.4,0.3c0.1,0.1,0.3,0.2,0.4,0.2c0.3,0.1,0.6,0.2,0.9,0.3s0.7,0.1,1,0.2
				c0.3,0.1,0.6,0.1,0.9,0.1v0.5H103.4z"/>
		</g>
		<g>
			<path class="st2" d="M124.9,43.5c0.3,1.8,0.4,3.6,1.5,5c1.3,1.6,2.4,3.3,3.6,5c1.6,2.5,3.3,5.6,5.4,7.4c1.8,1.5,4.3-0.4,6.1-0.7
				c0.4-1.9-2-2.9-2.8-2.7c-1.8,0.4-6.1-7.4-7.5-9.8c-0.4-0.7-1-2.6-1-4.3c0-0.8,0.1-4-0.1-5"/>
			<path d="M125,43.5c0.2,1.1,0.4,2.2,0.8,3.2c0.2,0.5,0.4,1,0.8,1.4l1.1,1.3c1.4,1.8,2.7,3.6,4,5.5c1.2,1.9,2.5,3.7,4,5.1
				c0.1,0.1,0.2,0.2,0.3,0.2s0.2,0.1,0.2,0.2c0.2,0.1,0.3,0.2,0.5,0.2c0.4,0.1,0.9,0,1.4-0.1s1-0.3,1.5-0.5s1.1-0.4,1.8-0.5
				l-0.6,0.6c0.1-0.4,0-0.7-0.2-1s-0.6-0.6-1-0.8c-0.2-0.1-0.4-0.2-0.6-0.2h-0.1l0,0l0,0h-0.1c-0.1,0-0.3,0-0.4,0
				c-0.1,0-0.2-0.1-0.3-0.1c-0.4-0.2-0.6-0.4-0.8-0.6c-0.2-0.2-0.4-0.4-0.6-0.6c-0.8-0.9-1.4-1.8-2-2.7s-1.2-1.9-1.7-2.8l-1.7-2.9
				c-0.1-0.2-0.3-0.5-0.4-0.7c-0.1-0.3-0.2-0.5-0.3-0.8c-0.2-0.5-0.4-1.1-0.5-1.6c-0.2-0.6-0.2-1.1-0.2-1.7L130,42
				c0-0.5,0.1-1.1,0.1-1.6s0-1.1,0-1.6l0.3-0.1c0.3,1.1,0.4,2.2,0.4,3.3c0,0.6,0,1.1,0,1.7c0,0.5,0.1,1,0.1,1.6
				c0,0.5,0.1,1.1,0.3,1.6c0.1,0.3,0.2,0.5,0.3,0.7s0.3,0.4,0.4,0.7l1.7,2.8c0.6,0.9,1.2,1.8,1.8,2.7s1.3,1.8,2,2.5
				c0.2,0.2,0.4,0.4,0.6,0.5c0.2,0.2,0.4,0.3,0.5,0.3h0.1l0,0l0,0h0.1h0.2c0.1,0,0.2,0,0.3,0c0.4,0,0.7,0.1,1,0.2
				c0.6,0.2,1.2,0.6,1.6,1.1c0.5,0.6,0.6,1.4,0.5,2.1l-0.1,0.5l-0.5,0.1c-0.4,0.1-0.9,0.3-1.5,0.5c-0.5,0.2-1.1,0.4-1.7,0.6
				c-0.6,0.2-1.3,0.3-2,0.2c-0.4,0-0.7-0.2-1.1-0.3c-0.2-0.1-0.3-0.2-0.5-0.3c-0.1-0.1-0.2-0.2-0.4-0.3c-0.9-0.8-1.6-1.8-2.3-2.7
				c-0.6-1-1.2-1.9-1.8-2.9c-1.1-1.9-2.3-3.9-3.6-5.7l-1-1.4c-0.3-0.5-0.6-1.1-0.7-1.6c-0.3-1.1-0.4-2.3-0.5-3.4L125,43.5z"/>
		</g>
		<g>
			<path class="st3" d="M136.9,10.6c-0.2,0.1-0.5,0.2-0.7,0.3c-0.3,0.1-0.5,0.3-0.8,0.4c-0.2,0.2-0.6,0.2-0.7,0.4
				c-0.3,0.6,1.1,1.1,1.4,1.5c0.2,0.2,0.3,0.3,0.5,0.5c0.8,0.7,1.6,1.4,2.5,2c0.4,0.3,0.9,0.4,1.4,0.5c0.3,0.1,0.7,0.1,1,0.1
				c0.2,0,0.4,0,0.6,0c0.4-0.1,0.1-0.8,0-1.1s-0.3-0.6-0.4-0.9c-0.1-0.3-0.3-0.5-0.5-0.7c-0.3-0.6-0.7-1.2-1.1-1.7
				c-0.4-0.4-0.7-0.9-1.2-1.2c-0.3-0.1-0.6-0.2-0.9-0.3C137.5,10.4,137.2,10.4,136.9,10.6z"/>
			<g>
				<path d="M136.9,10.7c-0.4,0.2-0.8,0.4-1.1,0.6c-0.1,0.1-0.2,0.1-0.3,0.2c-0.1,0.1-0.2,0.1-0.3,0.2c-0.2,0.1-0.4,0.1-0.4,0.3
					c-0.1,0.1,0,0.3,0.2,0.4c0.1,0.1,0.3,0.3,0.5,0.4L136,13c0.2,0.1,0.3,0.3,0.5,0.4c0.6,0.6,1.3,1.1,1.9,1.6
					c0.3,0.2,0.7,0.5,1,0.6c0.4,0.2,0.8,0.2,1.2,0.3l0.6,0.1c0.2,0,0.4,0,0.6,0c0.1,0,0.1,0,0.1,0s0,0,0-0.1s-0.1-0.3-0.1-0.5
					c-0.2-0.4-0.4-0.8-0.5-1.1c-0.1-0.2-0.2-0.3-0.4-0.5l-0.3-0.5c-0.2-0.4-0.4-0.7-0.7-1s-0.5-0.7-0.8-0.9
					c-0.1-0.1-0.3-0.2-0.5-0.3s-0.4-0.2-0.6-0.3C137.7,10.5,137.3,10.5,136.9,10.7z M136.8,10.5c0.4-0.2,0.9-0.2,1.3,0
					c0.2,0.1,0.4,0.1,0.6,0.2c0.2,0.1,0.4,0.2,0.6,0.3c0.4,0.3,0.6,0.6,0.9,0.9c0.3,0.3,0.5,0.7,0.8,1.1l0.3,0.5
					c0.1,0.2,0.2,0.3,0.4,0.5c0.2,0.4,0.4,0.8,0.6,1.2c0.1,0.2,0.2,0.4,0.2,0.7c0,0.1,0,0.3-0.2,0.5c-0.1,0.2-0.3,0.2-0.5,0.2
					c-0.3,0-0.5,0-0.7-0.1l-0.6-0.1c-0.4-0.1-0.9-0.2-1.3-0.4c-0.4-0.2-0.7-0.5-1.1-0.7c-0.7-0.5-1.3-1.1-1.9-1.7
					c-0.2-0.2-0.3-0.3-0.4-0.4c-0.2-0.1-0.3-0.2-0.5-0.3s-0.4-0.2-0.5-0.4c-0.1-0.1-0.1-0.2-0.2-0.3c0-0.1-0.1-0.3,0-0.4
					c0-0.1,0.1-0.2,0.2-0.3c0.1-0.1,0.2-0.1,0.3-0.1s0.2-0.1,0.3-0.1c0.1-0.1,0.2-0.1,0.3-0.2C136.1,10.9,136.5,10.7,136.8,10.5z"/>
			</g>
		</g>
		<g>
			<path class="st2" d="M141.3,15.2c-0.2,0-0.4-0.1-0.5-0.3c-0.3-0.2-0.6-0.6-0.9-0.9c-0.3-0.4-0.7-0.7-1-1.1
				c-0.3-0.4-0.5-0.8-0.8-1.2c0-0.1-0.1-0.1-0.1-0.2c-0.1-0.1,0-0.1,0.1-0.2c0.1-0.1,0.3-0.1,0.5-0.2c0.2-0.1,0.3-0.1,0.5-0.1
				c0.4,0,0.7,0.3,1,0.7c0.2,0.2,0.4,0.5,0.6,0.7c0.4,0.5,0.8,1.1,1.1,1.7c0.1,0.1,0.4,0.7,0.4,0.9s-0.2,0.2-0.3,0.2s-0.2,0-0.4,0
				C141.4,15.3,141.4,15.3,141.3,15.2z"/>
			<path d="M141.3,15.3c-0.5-0.1-0.9-0.5-1.3-0.9c-0.3-0.4-0.7-0.8-1-1.2c-0.2-0.2-0.3-0.4-0.4-0.6l-0.4-0.7
				c-0.1-0.1-0.1-0.2-0.2-0.4c0,0,0-0.1,0-0.2l0.1-0.1c0.1,0,0.1-0.1,0.2-0.1c0.2-0.1,0.5-0.2,0.8-0.3c0.3,0,0.6,0.1,0.8,0.3
				s0.4,0.4,0.5,0.6c0.3,0.4,0.7,0.8,1,1.2s0.6,0.8,0.8,1.3c0.1,0.1,0.1,0.2,0.2,0.4c0,0.1,0,0.1,0,0.2c0,0.1,0,0.2-0.1,0.3
				s-0.2,0-0.3,0s-0.1,0-0.2,0C141.6,15.4,141.5,15.4,141.3,15.3z M141.3,15.2c0.1,0,0.2,0,0.4,0c0.1,0,0.3,0,0.3,0l0,0v-0.1
				c0-0.1-0.1-0.2-0.1-0.3c-0.2-0.4-0.5-0.9-0.8-1.3c-0.3-0.4-0.6-0.8-0.9-1.2c-0.3-0.4-0.6-0.9-1.1-0.8c-0.2,0-0.5,0.1-0.7,0.2
				c-0.1,0-0.1,0-0.2,0.1h-0.1l0,0c0,0.1,0.1,0.2,0.2,0.3l0.4,0.6c0.1,0.2,0.3,0.4,0.4,0.6c0.3,0.4,0.7,0.8,1,1.2
				C140.5,14.7,140.9,15,141.3,15.2z"/>
		</g>
		<g>
			<g>
				<path class="st3" d="M123,25.2c0.9,0.6,2.4,0,3.3-0.3c1.1-0.4,2.2-1.1,3-2c0.8-0.8,1.4-1.9,2.4-2.5c0,0,0.5,0.3,0.6,0.3
					c0.3,0.1,0.5,0.2,0.8,0.3c0.6,0.1,1.1,0,1.7-0.1c0.7-0.2,1.4-0.2,2.1-0.6c1.1-0.6,2.2-1.3,2.6-2.6c0.4-1.5-0.5-2.5-1.4-3.6
					c-0.5-0.5-1-1-1.6-1.4c-1.2-1-2.5-1.2-3.9-1.1c-0.7,0.1-1.4,0.4-1.9,0.8c-0.6,0.4-1,0.8-1.2,1.5s-0.3,1.2-0.3,2.1
					c0,0.6,0.2,1.7,0.8,2.1c-0.3,0.4-0.6,0.8-0.9,1.2c-0.7,0.9-1.1,1.9-2.2,2.5c-0.3,0.1-0.5,0.3-0.8,0.4"/>
				<path d="M123.1,25.1c0.3,0.2,0.7,0.3,1.1,0.2c0.4,0,0.8-0.1,1.1-0.2c0.8-0.3,1.5-0.5,2.2-0.9c0.7-0.4,1.3-0.9,1.8-1.5
					s1-1.3,1.6-1.9c0.2-0.1,0.3-0.3,0.5-0.4l0.1-0.1h0.1l0,0l0,0h0.1h0.1l0,0c0.2,0.1,0.2,0.1,0.3,0.2l0.3,0.1
					c0.1,0,0.2,0.1,0.3,0.1c0.2,0.1,0.4,0.1,0.5,0.1c0.4,0,0.8,0,1.2,0c0.2,0,0.4-0.1,0.6-0.1c0.2,0,0.4-0.1,0.6-0.1
					c0.4-0.1,0.8-0.2,1.1-0.3c0.3-0.1,0.7-0.4,1-0.6c0.7-0.4,1.2-0.9,1.5-1.6s0.3-1.5,0-2.1c-0.3-0.7-0.9-1.2-1.4-1.8
					c-0.6-0.5-1.2-1.1-1.8-1.5s-1.4-0.6-2.2-0.7c-0.4,0-0.8,0-1.2,0s-0.7,0.2-1.1,0.3c-0.3,0.2-0.7,0.4-1,0.6
					c-0.3,0.2-0.6,0.5-0.7,0.8c-0.1,0.3-0.2,0.7-0.3,1.1c-0.1,0.4-0.1,0.8-0.1,1.2c0,0.4,0.1,0.7,0.2,1.1c0.1,0.3,0.3,0.7,0.5,0.9
					l0.2,0.2l-0.2,0.2l-0.8,1.1l-0.8,1.2c-0.3,0.4-0.6,0.8-1,1.1c-0.4,0.3-0.9,0.5-1.3,0.7l-0.1-0.2c0.4-0.3,0.9-0.5,1.2-0.7
					c0.4-0.3,0.6-0.6,0.9-1l0.8-1.2l0.8-1.2l0.1,0.4c-0.4-0.3-0.6-0.7-0.8-1.1c-0.1-0.4-0.2-0.8-0.2-1.3c0-0.4,0-0.8,0.1-1.2
					s0.1-0.8,0.3-1.3c0.2-0.4,0.5-0.8,0.9-1c0.3-0.3,0.7-0.5,1.1-0.7c0.4-0.2,0.8-0.3,1.2-0.4c0.4-0.1,0.8-0.1,1.3,0
					c0.8,0,1.7,0.3,2.4,0.8c0.4,0.2,0.7,0.5,1,0.8s0.6,0.5,0.9,0.8c0.6,0.6,1.2,1.2,1.5,2c0.2,0.4,0.3,0.8,0.3,1.3
					c0,0.4-0.1,0.9-0.3,1.3c-0.4,0.8-1.1,1.4-1.8,1.8c-0.2,0.1-0.4,0.2-0.5,0.3c-0.2,0.1-0.4,0.2-0.6,0.3c-0.4,0.2-0.8,0.2-1.2,0.3
					c-0.2,0-0.4,0.1-0.6,0.1c-0.2,0-0.4,0.1-0.6,0.1c-0.4,0-0.8,0-1.3,0c-0.2,0-0.4-0.1-0.6-0.2c-0.1,0-0.2-0.1-0.3-0.1l-0.3-0.2
					c-0.1,0-0.2-0.1-0.2-0.1l0,0c0,0,0,0,0.1,0h0.1l0,0l0,0h-0.1c0,0-0.1,0-0.1,0.1c-0.2,0.1-0.3,0.2-0.4,0.4
					c-0.6,0.5-1,1.2-1.6,1.8c-0.6,0.6-1.2,1.1-1.9,1.5c-0.7,0.4-1.5,0.7-2.3,0.9c-0.4,0.1-0.8,0.2-1.2,0.2c-0.4,0-0.9,0-1.2-0.3
					L123.1,25.1z"/>
			</g>
			<g>
				<path class="st2" d="M137.4,18.2c0.3-0.2,0.5-0.3,0.7-0.5c0.5-0.4,1.1-0.9,1.4-1.5c0.3-0.6,0-1.4-0.3-1.9
					c-0.8-1.3-1.9-2.2-3.4-2.3c-1-0.1-1.8,0.3-2.7,0.8c-0.8,0.5-1.5,1-1.9,1.9c-0.5,1.2,0.1,2.3,0.8,3.2c0.3,0.3,0.4,0.7,0.8,0.9
					C134,19.6,136,19,137.4,18.2z"/>
				<path d="M137.3,18.1c0.4-0.3,0.8-0.6,1.2-0.9s0.7-0.7,0.9-1.2c0.2-0.4,0-0.9-0.2-1.4c-0.2-0.4-0.5-0.8-0.9-1.2
					c-0.7-0.7-1.6-1.3-2.5-1.3c-1-0.1-1.9,0.3-2.7,0.9c-0.4,0.3-0.8,0.6-1.1,0.9c-0.3,0.3-0.6,0.8-0.7,1.2c-0.2,0.9,0.2,1.8,0.8,2.6
					c0.2,0.2,0.3,0.4,0.4,0.6c0.1,0.2,0.3,0.3,0.5,0.4c0.4,0.2,0.9,0.3,1.4,0.2C135.4,18.9,136.4,18.6,137.3,18.1z M137.4,18.3
					c-0.9,0.5-1.8,1-2.9,1.1c-0.5,0.1-1.1,0-1.6-0.2c-0.1-0.1-0.3-0.1-0.4-0.2c-0.1-0.1-0.2-0.2-0.3-0.3c-0.2-0.2-0.3-0.4-0.5-0.6
					c-0.3-0.4-0.6-0.9-0.8-1.4s-0.3-1.1-0.2-1.7c0.1-0.6,0.4-1,0.8-1.4c0.4-0.4,0.8-0.7,1.3-1c0.4-0.3,0.9-0.5,1.4-0.7
					s1.1-0.2,1.6-0.2c1.1,0.1,2,0.7,2.7,1.5c0.3,0.4,0.6,0.8,0.9,1.3c0.2,0.5,0.4,1,0.2,1.6c-0.2,0.5-0.6,0.9-0.9,1.2
					C138.3,17.7,137.8,18,137.4,18.3z"/>
			</g>
		</g>
		<path d="M134.9,16.9c-0.3,0-0.6-0.1-0.7-0.4c-0.2-0.3-0.2-0.7,0.1-0.9c0.2-0.2,0.5-0.2,0.7-0.1c0.8,0.2,0.5,0.6,0.4,0.8
			C135.3,16.5,135.4,16.9,134.9,16.9z"/>
		<g>
			<path d="M92.1,83.8c0,1.9-8.9,2.2-10,2.2c-5.5,0.1-10.9-0.1-16.4-0.7c-0.2,0-0.4,0.9-0.5,0.9c7.5,0.8,14.9,1,22.4,0
				c2-0.3,5.1-0.7,5.1-3.3C92.6,83.1,92.1,83.5,92.1,83.8L92.1,83.8z"/>
		</g>
		<g>
			<path d="M38.5,62.9c4.2,0.1,8.4,0.1,12.6-0.2c0.2,0,0.4-0.9,0.5-0.9c-4.2,0.3-8.4,0.3-12.6,0.2C38.8,62.1,38.6,62.9,38.5,62.9
				L38.5,62.9z"/>
		</g>
		<g>
			<path d="M59.1,51.6c1.3,0,2.6,0,3.9,0c0.2,0,0.4-0.9,0.5-0.9c-1.3,0-2.6,0-3.9,0C59.3,50.8,59.1,51.6,59.1,51.6L59.1,51.6z"/>
		</g>
		<g>
			<path d="M48.1,51.8c1.4,0.2,2.7,0.1,4.1-0.2c0.3-0.1,0.3-0.8,0.5-0.9c-1.4,0.3-2.7,0.4-4.1,0.2C48.4,50.9,48.1,51.8,48.1,51.8
				L48.1,51.8z"/>
		</g>
		<g>
			<path d="M52.6,84.5c-1.2,0-2.3,0-3.5-0.1c-0.2,0-0.4,0.6-0.5,0.7c0,0.1-0.4,0.8-0.3,0.8c1.2,0,2.3,0,3.5,0.1
				c0.2,0,0.4-0.6,0.5-0.7C52.3,85.2,52.6,84.5,52.6,84.5L52.6,84.5z"/>
		</g>
		<g>
			<path d="M40.6,85.7c-0.3,0-0.5-0.1-0.8-0.1c-0.1,0-0.4,0.6-0.5,0.7c0,0.1-0.4,0.8-0.3,0.8c0.3,0,0.5,0.1,0.8,0.1
				c0.1,0,0.4-0.6,0.5-0.7C40.2,86.4,40.6,85.7,40.6,85.7L40.6,85.7z"/>
		</g>
		<g>
			<path d="M21.9,71.5c7.4,0.2,14.8,0.3,22.1-0.4c0.2,0,0.4-0.9,0.5-0.9c-7.4,0.7-14.7,0.6-22.1,0.4C22.2,70.6,22,71.5,21.9,71.5
				L21.9,71.5z"/>
		</g>
		<g>
			<path class="st0" d="M87.4,59.6c-1.3-1.2-2.7-2.2-4.1-3.3c-1.3-1-2.3-2.4-3.5-3.6c-1.3-1.3-2.8-2.4-4.3-3.5
				c-1.2-1-2.5-1.9-3.9-2.6c-0.8-0.4-2-1.1-2.7-0.1c-0.4,0.6-0.3,1.5,0,2.2c0.6,1.9,2,3.4,2.7,5.3c0.8,1.9,1.3,3.8,1.8,5.8
				c0.1,0.3,0.1,0.6,0.2,0.9c0.1,0.2,0.1,0.8,0.3,0.9"/>
			<path d="M87.3,59.7c-1.2-1.1-2.7-1.9-4-2.9c-1.4-1-2.5-2.3-3.7-3.4c-0.6-0.5-1.2-1.1-1.9-1.6c-0.6-0.5-1.3-1-2-1.5
				c-1.3-1-2.6-2.1-3.9-2.9c-0.7-0.4-1.5-0.9-2-0.9c-0.1,0-0.2,0-0.3,0.1c-0.1,0-0.2,0.2-0.3,0.3c-0.1,0.2-0.2,0.5-0.2,0.9
				s0.1,0.7,0.2,1.1c0.1,0.4,0.3,0.7,0.4,1.1c0.3,0.7,0.8,1.4,1.2,2.2c0.4,0.7,0.8,1.5,1.1,2.3c0.1,0.4,0.3,0.8,0.4,1.2
				s0.3,0.8,0.5,1.2s0.3,0.8,0.4,1.2s0.2,0.8,0.3,1.2c0,0.2,0.1,0.4,0.1,0.6c0,0.2,0,0.4,0.1,0.6c0.1,0.4,0.1,0.9,0.2,1.1l-0.1,0.2
				c-0.3-0.2-0.3-0.4-0.4-0.6c0-0.1-0.1-0.2-0.1-0.3s-0.1-0.2-0.1-0.3c-0.1-0.2-0.1-0.4-0.2-0.6v-0.7l-0.4-1.2
				c-0.1-0.4-0.3-0.8-0.3-1.2c-0.1-0.4-0.1-0.8-0.3-1.2c-0.1-0.4-0.3-0.8-0.4-1.1c-0.3-0.8-0.7-1.5-1.1-2.2
				c-0.9-1.4-1.9-2.8-2.2-4.6c-0.1-0.5-0.1-1,0.2-1.5c0.1-0.2,0.3-0.5,0.6-0.6c0.3-0.2,0.6-0.3,0.9-0.3c0.6,0,1,0.2,1.4,0.4l0.6,0.3
				c0.2,0.1,0.4,0.2,0.6,0.3c1.5,0.8,2.8,1.9,4.1,2.9c0.7,0.5,1.3,1,1.9,1.6s1.2,1.1,1.8,1.8c1.2,1.3,2.1,2.6,3.3,3.6
				c1.3,1,2.6,2,3.8,3.3L87.3,59.7z"/>
		</g>
	</g>
	<g>
		<path class="st1" d="M372.6,88.1H253.3c-2.8,0-5-2.2-5-5V65.9c0-2.8,2.2-5,5-5h119.3c2.8,0,5,2.2,5,5V83
			C377.6,85.8,375.3,88.1,372.6,88.1z"/>
		<g>
			<path d="M265.6,66.3h7.3v1.6h-5.5v5.3h4.8v1.6h-4.8v6.9h-1.8V66.3z"/>
			<path d="M280.8,70c3.5,0,6,2.6,6,6s-2.5,6-6,6c-3.4,0-6-2.5-6-6S277.4,70,280.8,70z M280.8,80.4c2.5,0,4.2-1.9,4.2-4.4
				s-1.8-4.4-4.2-4.4c-2.5,0-4.2,1.9-4.2,4.4C276.6,78.6,278.3,80.4,280.8,80.4z"/>
			<path d="M294.1,71.7c-2.6,0-3.4,2.1-3.4,4.5v5.5H289V70.3h1.7v1.9c0.4-1.1,1.7-2.2,3.4-2.2V71.7z"/>
			<path d="M304,69.1h-3.6v-2.8h10.3v2.8h-3.6v12.6H304V69.1z"/>
			<path d="M316.4,69.9c3.6,0,5.6,2.4,5.6,6.1c0,0.2,0,0.4,0,0.7h-8.1c0.1,1.5,1.3,2.6,3,2.6c1.6,0,2.5-0.9,2.8-1.4l2,1.5
				c-0.4,0.8-2,2.5-4.8,2.5c-3.7,0-6-2.5-6-6C310.8,72.5,313.1,69.9,316.4,69.9z M318.9,74.7c-0.1-1.4-1.1-2.3-2.5-2.3
				s-2.4,1-2.5,2.3H318.9z"/>
			<path d="M327.5,74.3c1.2,0,2.1,0.4,2.5,0.6v-0.7c0-1-0.7-1.7-2.1-1.7c-1.1,0-2.2,0.4-3.1,0.8l-1.1-2.1c1-0.7,2.8-1.4,4.5-1.4
				c3.7,0,4.8,1.9,4.8,4.5v7.3h-2.7l-0.2-0.7c-0.6,0.6-1.5,1-2.8,1c-2.3,0-4.3-1.4-4.3-3.8C323,75.9,324.8,74.3,327.5,74.3z
				 M328.1,79.6c1.1,0,2-0.6,2-1.6s-0.8-1.6-2-1.6s-2,0.7-2,1.6C326.1,79,326.9,79.6,328.1,79.6z"/>
			<path d="M351.7,81.7h-3v-6.9c0-1.4-0.7-2.2-1.8-2.2c-1.1,0-1.9,0.8-1.9,2.2v6.9h-3v-7c0-1.3-0.7-2.1-1.8-2.1
				c-1.1,0-1.9,0.8-1.9,2.2v6.9h-3V70.2h3v1.3c0.4-0.8,1.4-1.6,3-1.6c1.5,0,2.5,0.7,3.1,1.7c0.7-1.1,1.9-1.7,3.4-1.7
				c2.6,0,3.9,1.7,3.9,4.2L351.7,81.7L351.7,81.7z"/>
			<path d="M353.2,79.9l1.8-1.6c0.6,0.7,1.3,1.3,2.6,1.3c0.9,0,1.4-0.4,1.4-1c0-1.8-5.4-1.1-5.4-5.2c0-2.1,1.8-3.4,4.2-3.4
				c2.2,0,3.4,1.1,3.9,2l-2,1.5c-0.4-0.4-1-1.1-2.1-1.1c-0.7,0-1.2,0.4-1.2,0.9c0,1.8,5.4,0.9,5.4,5.1c0,2.2-1.9,3.6-4.4,3.6
				C355.2,82,353.8,80.8,353.2,79.9z"/>
		</g>
	</g>
</g>
</svg>
